<?xml version="1.0" encoding="UTF-8"?>
<svg width="32px" height="34px" viewBox="0 0 32 34" version="1.1" xmlns="http://www.w3.org/2000/svg" xmlns:xlink="http://www.w3.org/1999/xlink">
    <!-- Generator: Sketch 53.2 (72643) - https://sketchapp.com -->
    <title>discussion</title>
    <desc>Created with Sketch.</desc>
    <g id="Page-1" stroke="none" stroke-width="1" fill="none" fill-rule="evenodd">
        <g id="MyskorelNew" transform="translate(-707.000000, -106.000000)">
            <g id="Group-8" transform="translate(707.000000, 102.000000)">
                <g id="discussion" transform="translate(-0.000000, 4.000000)">
                    <path d="M27.8034511,29.8787879 L27.8034511,30.6117039 C27.8034511,31.1273534 27.3891796,31.5454545 26.8779951,31.5454545 L4.65723227,31.5454545 C4.17964429,31.5454545 3.79276703,31.1550007 3.79276703,30.6729976 L3.79276703,29.8787879 L0.343434343,29.8787879 L0.343434343,31.1523925 C0.343434343,32.5355433 1.4549635,33.6565657 2.82570302,33.6565657 L28.7702566,33.6565657 C30.1412545,33.6565657 31.2525253,32.5355433 31.2525253,31.1523925 L31.2525253,29.8787879 L27.8034511,29.8787879 Z" id="Path" fill="#4F7693"></path>
                    <path d="M24.3071154,31.5959596 L7.63253837,31.5959596 C6.83143316,31.5959596 6.18181818,30.8896841 6.18181818,30.0183566 L6.18181818,29.6659254 C6.18181818,29.5938566 6.23560632,29.5353535 6.30212689,29.5353535 L25.6375269,29.5353535 C25.7037876,29.5353535 25.7575758,29.5938566 25.7575758,29.6659254 L25.7575758,30.0183566 C25.7575758,30.8896841 25.1082206,31.5959596 24.3071154,31.5959596 L24.3071154,31.5959596 Z" id="Path" fill="#FFAE85"></path>
                    <path d="M25.6375269,29.5353535 L6.30212689,29.5353535 C6.23560632,29.5353535 6.18181818,29.5938566 6.18181818,29.6659254 L6.18181818,30.0186392 C6.18181818,30.1186879 6.19143247,30.2161929 6.20780278,30.3108717 L23.1214382,30.3108717 C23.6842646,30.3108717 24.1150893,30.8775313 23.9869851,31.4733011 C23.9758118,31.5244559 23.9625597,31.5665668 23.9464492,31.5959596 L24.3068556,31.5959596 C25.1079608,31.5959596 25.7575758,30.8896841 25.7575758,30.0186392 L25.7575758,29.6659254 C25.7575758,29.5938566 25.7037876,29.5353535 25.6375269,29.5353535 Z" id="Path" fill="#EA9E7D"></path>
                    <polygon id="Path" fill="#FEDFC5" points="4.12121212 24.040404 1.71717172 24.040404 1.91175467 22.7747379 2.03429003 21.979798 3.89879266 22.0808579 3.97466085 22.7495938"></polygon>
                    <path d="M9.6939735,27.8178627 L7.4009062,27.8257411 L4.27637435,24.1190815 C3.56493621,23.5993613 2.60703367,23.5559031 1.85045735,24.0090381 L1.57013944,24.1767717 C1.26058432,24.3622953 1.06054042,24.6848014 1.0338679,25.042379 L0.686868687,29.5297624 L4.10967107,29.5297624 L4.10967107,27.1387955 L6.41325355,29.5353535 L10.989899,29.5353535 L10.9898989,29.4301388 C10.9901554,28.6590723 10.4526016,27.990425 9.6939735,27.8178627 L9.6939735,27.8178627 Z" id="Path" fill="#FF84A7"></path>
                    <path d="M3.77777778,22.7493229 C3.470009,22.9148771 3.10908262,23.010101 2.72334943,23.010101 C2.35697099,23.010101 2.01376379,22.9247862 1.71717172,22.7742165 L1.83957045,21.979798 L3.70199418,22.0808223 L3.77777778,22.7493229 Z" id="Path" fill="#FECBAA"></path>
                    <path d="M4.80808081,18.5623578 L4.80808081,20.3973527 C4.80808081,21.4611178 3.96224539,22.3232323 2.9194451,22.3232323 C2.16449713,22.3232323 1.51309504,21.8724231 1.21081209,21.2199633 C1.09511412,20.9708047 1.03030303,20.6914372 1.03030303,20.3973527 L1.03030303,18.5623578 C1.03030303,17.7939682 1.6414514,17.1717172 2.39437397,17.1717172 L3.44451618,17.1717172 C4.12401996,17.1717172 4.68656001,17.677522 4.79035899,18.3405679 C4.80200477,18.4131208 4.80808081,18.4867065 4.80808081,18.5623578 L4.80808081,18.5623578 Z" id="Path" fill="#FEDFC5"></path>
                    <path d="M4.80808081,18.3618982 L2.7983702,19.1835647 C2.62718489,19.2532197 2.5150114,19.4243346 2.5150114,19.6138488 L2.5150114,20.1069538 C2.5150114,20.258355 2.44379016,20.399505 2.32424026,20.4862452 L1.21166287,21.2929293 C1.09541959,21.0392799 1.03030303,20.754877 1.03030303,20.4554919 L1.03030303,18.5874228 C1.03030303,17.8051837 1.64433185,17.1717172 2.40080308,17.1717172 L3.45589479,17.1717172 C4.1386012,17.1717172 4.7037926,17.6866387 4.80808081,18.3618982 Z" id="Path" fill="#C97F4C"></path>
                    <polygon id="Path" fill="#FEDFC5" points="30.2222222 24.040404 27.8181818 24.040404 27.9308797 23.0486633 28.040576 22.0808579 29.904867 21.979798 30.0473085 22.9026342"></polygon>
                    <path d="M31.2525253,29.5297624 L30.905526,25.042379 C30.8788535,24.6848014 30.6790661,24.3622953 30.3692545,24.1767717 L30.0889366,24.0090381 C29.3323602,23.5559031 28.3747142,23.5993613 27.6630196,24.1190815 L24.5387442,27.8257411 L22.2454204,27.8178627 C21.4870488,27.990425 20.9494949,28.6593265 20.9494949,29.4301388 L20.9494949,29.5353535 L25.5261403,29.5353535 L27.8297228,27.1387955 L27.8297228,29.5297624 L31.2525253,29.5297624 Z" id="Path" fill="#83D9FF"></path>
                    <path d="M30.2222222,22.9816236 C29.8959685,23.2152167 29.4939961,23.3535354 29.0596111,23.3535354 C28.7360141,23.3535354 28.4304833,23.2771583 28.1616162,23.140152 L28.2686848,22.089508 L30.0838035,21.979798 L30.2222222,22.9816236 Z" id="Path" fill="#FECBAA"></path>
                    <path d="M30.9090909,18.5623578 L30.9090909,20.3973527 C30.9090909,20.6914372 30.8440267,20.9708047 30.7283288,21.2199633 C30.4260457,21.8724231 29.7748968,22.3232323 29.0199489,22.3232323 C27.9768954,22.3232323 27.1313131,21.4611178 27.1313131,20.3973527 L27.1313131,18.562616 C27.1313131,18.4867065 27.137136,18.4131208 27.1490349,18.3408261 C27.2528339,17.677522 27.8153739,17.1717172 28.4948777,17.1717172 L29.5455263,17.1717172 C30.2987021,17.1717172 30.9090909,17.7942264 30.9090909,18.5623578 L30.9090909,18.5623578 Z" id="Path" fill="#FEDFC5"></path>
                    <path d="M30.9090909,18.5874228 L30.9090909,20.4554919 C30.9090909,20.754877 30.84372,21.0392799 30.7274768,21.2929293 L29.6151537,20.4862452 C29.4956038,20.399505 29.4243825,20.258355 29.4243825,20.1069538 L29.4243825,19.6138488 C29.4243825,19.4243346 29.3119548,19.2532197 29.1410238,19.1835647 L27.1313131,18.3616354 C27.2356014,17.6866387 27.8007927,17.1717172 28.4834991,17.1717172 L29.5390996,17.1717172 C30.2958252,17.1717172 30.9090909,17.8054465 30.9090909,18.5874228 L30.9090909,18.5874228 Z" id="Path" fill="#C97F4C"></path>
                    <path d="M13.7373737,5.39550998 L13.7373737,13.2989443 C13.7373737,13.5278623 13.6564045,13.7371364 13.5225625,13.8995268 C13.3562817,14.101467 13.1074991,14.2298078 12.8290873,14.2298078 L5.73035343,14.2298078 C5.57199078,14.2298078 5.42818732,14.3248847 5.36509766,14.4731314 C5.12040178,15.0506649 4.55898065,15.4545455 3.90509613,15.4545455 C3.25146701,15.4545455 2.68979041,15.0506649 2.44458371,14.4731314 C2.38149412,14.3248847 2.2376906,14.2298078 2.07983876,14.2298078 L1.9385895,14.2298078 C1.43668206,14.2298078 1.03030303,13.8125693 1.03030303,13.2989443 L1.03030303,5.39550998 C1.03030303,4.88109921 1.43668206,4.46464646 1.9385895,4.46464646 L12.8290873,4.46464646 C13.3309947,4.46464646 13.7373737,4.88109921 13.7373737,5.39550998 Z" id="Path" fill="#A7C7D3"></path>
                    <path d="M30.9090909,5.39550998 L30.9090909,13.2989443 C30.9090909,13.8125693 30.5027119,14.2298078 30.0008044,14.2298078 L29.8595552,14.2298078 C29.7017033,14.2298078 29.5578998,14.3251467 29.4948102,14.4731314 C29.2496035,15.0509268 28.6879269,15.4545455 28.0342978,15.4545455 C27.3811796,15.4545455 26.8197584,15.0509268 26.5742963,14.4731314 C26.511462,14.3248847 26.3674032,14.2298078 26.2095513,14.2298078 L19.1103066,14.2298078 C18.7417303,14.2298078 18.4242387,14.0042947 18.2817124,13.6808236 C18.2306276,13.5645311 18.2020202,13.4348807 18.2020202,13.2989443 L18.2020202,5.39550998 C18.2020202,4.88109921 18.6083992,4.46464646 19.1103066,4.46464646 L30.0008044,4.46464646 C30.5027119,4.46464646 30.9090909,4.88109921 30.9090909,5.39550998 L30.9090909,5.39550998 Z" id="Path" fill="#A7C7D3"></path>
                    <path d="M22.8863924,0.343434343 L9.05326025,0.343434343 C8.41570764,0.343434343 7.8989899,0.863344556 7.8989899,1.50489711 L7.8989899,11.0487399 C7.8989899,11.6900319 8.41570764,12.2102027 9.05326025,12.2102027 L13.6514532,12.2102027 C13.8519821,12.2102027 14.0349162,12.3284588 14.114869,12.5136572 C14.4261417,13.2338735 15.1395071,13.7373737 15.9698263,13.7373737 C16.8001454,13.7373737 17.5135109,13.2338735 17.8247835,12.5136572 C17.9047364,12.3284588 18.0876705,12.2102027 18.2881994,12.2102027 L22.8863924,12.2102027 C23.5236862,12.2102027 24.0404039,11.6900319 24.0404039,11.0487399 L24.0404039,1.50489711 C24.0406627,0.863344556 23.523945,0.343434343 22.8863924,0.343434343 L22.8863924,0.343434343 Z" id="Path" fill="#E9EDF1"></path>
                    <path d="M14.0808081,5.722946 L14.0808081,13.4905475 C14.0808081,13.7155313 13.9983913,13.9212086 13.8621565,14.0808081 C13.6650841,13.8905758 13.4929708,13.6720276 13.3525762,13.4310839 L9.04116289,13.4310839 C7.8431292,13.4310839 6.86868687,12.466537 6.86868687,11.2811251 L6.86868687,4.80808081 L13.1562838,4.80808081 C13.6671641,4.80808081 14.0808081,5.21737617 14.0808081,5.722946 Z" id="Path" fill="#89B4C9"></path>
                    <path d="M24.7272727,4.46464646 L24.7272727,11.0912984 C24.7272727,12.3048405 23.7534184,13.2922765 22.5561077,13.2922765 L18.2478157,13.2922765 C18.1573938,13.4509198 18.0542401,13.5998126 17.9396538,13.7373737 C17.8876872,13.6203677 17.8585859,13.4899218 17.8585859,13.3531512 L17.8585859,5.40122173 C17.8585859,4.88365455 18.2719802,4.46464646 18.7825522,4.46464646 L24.7272727,4.46464646 Z" id="Path" fill="#89B4C9"></path>
                    <path d="M22.8863924,0.343434343 L9.05326025,0.343434343 C8.41570764,0.343434343 7.8989899,0.863344556 7.8989899,1.50489711 L7.8989899,11.0487399 C7.8989899,11.6900319 8.41570764,12.2102027 9.05326025,12.2102027 L13.6514532,12.2102027 C13.8519821,12.2102027 14.0349162,12.3284588 14.114869,12.5136572 C14.4261417,13.2338735 15.1395071,13.7373737 15.9698263,13.7373737 C16.8001454,13.7373737 17.5135109,13.2338735 17.8247835,12.5136572 C17.9047364,12.3284588 18.0876705,12.2102027 18.2881994,12.2102027 L22.8863924,12.2102027 C23.5236862,12.2102027 24.0404039,11.6900319 24.0404039,11.0487399 L24.0404039,1.50489711 C24.0406627,0.863344556 23.523945,0.343434343 22.8863924,0.343434343 L22.8863924,0.343434343 Z" id="Path" fill="#E9EDF1"></path>
                    <path d="M14.0808081,24.7272727 C14.2674432,24.6593539 14.4340906,24.5510074 14.5722555,24.4124748 C14.8428388,24.1397217 15.0062382,23.7537707 15.0062382,23.3362861 L15.0062382,21.979798 L17.2765901,21.979798 L17.2765901,23.3362861 C17.2765901,23.7238542 17.4167538,24.0844703 17.6541076,24.351833 C17.8020165,24.5194737 17.9886516,24.6504598 18.2020202,24.7272727 L14.0808081,24.7272727 Z" id="Path" fill="#FEDFC5"></path>
                    <path d="M17.1717172,21.979798 L17.1717172,22.8357858 L16.6243463,23.1696555 C16.2219533,23.4148286 15.7166471,23.4148286 15.3147831,23.1696555 L14.7676768,22.8357858 L14.7676768,21.979798 L17.1717172,21.979798 Z" id="Path" fill="#FECBAA"></path>
                    <path d="M18.2020202,17.9115118 L18.2020202,20.7762727 C18.2020202,21.2084296 17.9840302,21.6096625 17.6277536,21.8341865 L16.591861,22.4861899 C16.2094357,22.7268256 15.7292039,22.7268256 15.3472814,22.4861899 L14.3116403,21.8341865 C13.9546095,21.6096625 13.7373737,21.2084296 13.7373737,20.7762727 L13.7373737,17.9115118 C13.7373737,17.1233388 14.3546349,16.4848485 15.1157142,16.4848485 L16.8229254,16.4848485 C17.5845076,16.4848485 18.2020202,17.1233388 18.2020202,17.9115118 Z" id="Path" fill="#FEDFC5"></path>
                    <path d="M16.826653,16.4848485 L15.784784,16.4848485 C16.5445584,16.4848485 17.1601513,17.1233756 17.1601513,17.9115941 L17.1601513,20.7765201 C17.1601513,21.2087019 16.9427505,21.6099579 16.5874368,21.8344949 L15.5543442,22.4865358 C15.5219974,22.5070664 15.4883967,22.525258 15.4545455,22.5421503 C15.8168801,22.7248465 16.2474189,22.7066549 16.5962131,22.4865358 L17.629055,21.8344949 C17.9846194,21.6099579 18.2020202,21.2087019 18.2020202,20.7765201 L18.2020202,17.9115941 C18.2020202,17.1233756 17.5861766,16.4848485 16.826653,16.4848485 L16.826653,16.4848485 Z" id="Path" fill="#FECBAA"></path>
                    <path d="M18.2020202,17.9064829 L18.2020202,19.2323232 L15.2409264,18.2510823 L13.7373737,19.0591174 L13.7373737,17.906224 C13.7373737,17.1209723 14.3548864,16.4848485 15.1157142,16.4848485 L16.8229254,16.4848485 C17.5845076,16.4851074 18.2020202,17.1212312 18.2020202,17.9064829 Z" id="Path" fill="#618AAA"></path>
                    <path d="M16.8341611,16.4848485 L15.7979798,16.4848485 C16.5536066,16.4848485 17.1658389,17.1210322 17.1658389,17.9063579 L17.1658389,18.8861378 L18.2020202,19.2323232 L18.2020202,17.9063579 C18.2020202,17.1210322 17.5895385,16.4848485 16.8341611,16.4848485 L16.8341611,16.4848485 Z" id="Path" fill="#4F7693"></path>
                    <path d="M11.3333333,29.8787879 L11.3333333,27.5130813 C11.3333333,26.386359 12.0604425,25.3857395 13.1407264,25.0263981 L14.0012168,24.7406167 C14.1953202,24.6762838 14.3678853,24.5727361 14.5113869,24.4409946 C14.9732907,24.6063121 15.5169359,24.7180617 16.1319425,24.7049901 C16.7370884,24.6921747 17.2664612,24.5609459 17.7122762,24.3838384 C17.8664171,24.5432608 18.0600015,24.6673131 18.2816115,24.7406167 L19.1421019,25.0263981 C20.2218668,25.3857395 20.9494949,26.386359 20.9494949,27.5130813 L20.9494949,29.8787879 L11.3333333,29.8787879 Z" id="Path" fill="#69D998"></path>
                    <path d="M16.0907971,24.3838384 L15.1211721,27.9876664 C15.0963036,28.0805284 15.1181879,28.1804531 15.1796132,28.2523884 L15.9012988,29.0983476 C16.0042546,29.2189373 16.1825622,29.2236458 16.290989,29.1085493 L17.0939948,28.2573584 C17.1638754,28.1833305 17.1892414,28.074512 17.1593991,27.9748489 L16.0907971,24.3838384 Z" id="Path" fill="#3DC5A1"></path>
                    <path d="M31.938359,29.7211727 C31.9381002,29.7152018 31.938359,29.7092308 31.9381002,29.7032599 L31.5880221,25.1206935 C31.5492107,24.5955104 31.2578671,24.1191333 30.8084319,23.8468064 L30.7287392,23.7985197 L30.5207106,22.2665843 C30.7895437,22.0422847 31.0094746,21.7611313 31.1618737,21.4412966 C31.1673073,21.4301335 31.1724821,21.4189704 31.1771395,21.4075478 C31.3186714,21.0988762 31.3983641,20.755677 31.3983641,20.3943053 L31.3983641,18.5492849 C31.3983641,17.5033321 30.5499484,16.6526029 29.5074761,16.6526029 L28.4339548,16.6526029 C27.5500915,16.6526029 26.8062077,17.2642349 26.5999902,18.0874457 C26.5919693,18.1030221 26.5844657,18.118858 26.5779972,18.1354728 C26.5438432,18.2219217 26.536081,18.3117454 26.5495355,18.3971557 C26.5456544,18.4472598 26.5430669,18.497883 26.5430669,18.5490253 L26.5430669,20.3943053 C26.5430669,21.2512649 26.9870685,22.0056802 27.6561759,22.4397416 L27.5180075,23.8200671 C27.4895459,23.8421336 27.4628954,23.8667962 27.4398674,23.894574 L24.4374231,27.5015408 L22.3573946,27.4940122 C22.3172896,27.493493 22.2813244,27.4981659 22.2443243,27.5067329 C21.8753579,27.5918837 21.5480491,27.7655601 21.2815446,28.0025805 L21.2815446,27.3211145 C21.2815446,25.965192 20.4212269,24.7629563 19.1407118,24.3296738 L18.2819465,24.0396938 C18.1424845,23.9929647 18.0162183,23.9127464 17.9155676,23.8065675 C17.75256,23.6360064 17.6627765,23.4106682 17.6627765,23.1726095 L17.6627765,22.2447774 L17.9548964,22.066428 C18.4664297,21.7536027 18.7844238,21.1855846 18.7844238,20.5840773 L18.7844238,19.0578532 C18.7844238,19.0562956 18.7844238,19.054738 18.7844238,19.0531803 L18.7844238,17.7219204 C18.7844238,16.66117 17.9248823,15.7979798 16.8684379,15.7979798 L15.1118372,15.7979798 C14.0553929,15.7979798 13.1961101,16.66117 13.1961101,17.7219204 L13.1961101,18.8696389 L13.1961101,18.8711965 L13.1961101,20.5840773 C13.1961101,21.1855846 13.5138455,21.7536027 14.0256376,22.066428 L14.3180162,22.2452966 L14.3180162,23.1728691 C14.3180162,23.4267638 14.2116732,23.6715724 14.02719,23.8442104 C13.9322317,23.9329957 13.8217488,23.998676 13.6978112,24.040213 L12.8400809,24.3296738 C11.5595658,24.7629563 10.6992481,25.9649324 10.6992481,27.3213741 L10.6992481,28.0410022 C10.4254988,27.7845114 10.0831829,27.5965566 9.69481088,27.5069925 C9.6578108,27.4984255 9.62210434,27.4940122 9.58174056,27.4942718 L7.50171213,27.5015408 L4.49926782,23.8948336 C4.47623979,23.8670557 4.44984812,23.8421336 4.42112772,23.8200671 L4.28295936,22.4397416 C4.95206668,22.0056802 5.39632699,21.2512649 5.39632699,20.3943053 L5.39632699,18.5492849 C5.39632699,18.497883 5.39348081,18.4475194 5.38959973,18.3971557 C5.40305426,18.3117454 5.39529202,18.2219217 5.36139678,18.1357325 C5.35466952,18.1191177 5.34742474,18.1030221 5.33914499,18.0877053 C5.13318621,17.2642349 4.38930241,16.6526029 3.50518039,16.6526029 L2.43217653,16.6526029 C1.3894455,16.6526029 0.541288649,17.5035917 0.541288649,18.5492849 L0.541288649,20.3943053 C0.541288649,20.7559366 0.620722516,21.0988762 0.762254441,21.4075478 C0.766911834,21.4189704 0.772086678,21.4303932 0.777520247,21.4415562 C0.929919377,21.7611313 1.14985027,22.0422847 1.41868341,22.2665843 L1.2106547,23.7987793 L1.13122083,23.8470661 C0.681785672,24.1193928 0.390183214,24.59577 0.351630645,25.119655 L0.00155248622,29.7035195 C0.00103496874,29.7094904 0.00129369436,29.7154614 0.00103496874,29.7214323 C0.000776243112,29.728182 0,29.7346722 0,29.7416816 L0,31.009338 C0,32.6583558 1.33769706,34 2.98200366,34 L28.9573903,34 C30.6016969,34 31.9393939,32.6583558 31.9393939,31.0090784 L31.9393939,29.741422 C31.9393939,29.7344126 31.9386178,29.7279225 31.938359,29.7211727 L31.938359,29.7211727 Z M28.4339548,17.6494902 L29.5074761,17.6494902 C30.0021912,17.6494902 30.4047941,18.0531777 30.4047941,18.5492849 L30.4047941,20.3930072 L29.8878272,20.0290396 L29.8878272,19.5633063 C29.8878272,19.1687051 29.6513369,18.8197945 29.2854754,18.6746747 L27.6934347,18.0425339 C27.8551486,17.8055135 28.1265691,17.6494902 28.4339548,17.6494902 Z M27.5366369,19.0524015 L28.8942572,19.5913437 L28.8942572,20.0503272 C28.8942572,20.3613353 29.0456214,20.6539114 29.2997062,20.83278 L30.0384152,21.3527709 C29.7757918,21.6469046 29.3944058,21.8322633 28.9705862,21.8322633 C28.17987,21.8322633 27.5366369,21.1871422 27.5366369,20.3943053 L27.5366369,19.0524015 Z M28.9708449,22.8291506 C29.182496,22.8291506 29.3879373,22.8016324 29.5838051,22.7502304 L29.6637565,23.3387574 C29.2999649,23.2645101 28.9258237,23.2665869 28.5643609,23.3444687 L28.6184381,22.8031901 C28.7335783,22.8200645 28.8510472,22.8291506 28.9708449,22.8291506 L28.9708449,22.8291506 Z M22.4161291,28.4911591 L24.6674449,28.4992069 L24.6692561,28.4992069 C24.8164804,28.4992069 24.9562011,28.4337862 25.0503833,28.3203383 L28.1617581,24.5827897 C28.7144314,24.2011688 29.4345109,24.1783234 30.0117647,24.528532 L30.2945699,24.699872 C30.4689622,24.8057913 30.5820325,24.9906308 30.5972983,25.1957197 L30.9064951,29.2429783 L28.4862208,29.2429783 L28.4862208,27.4984255 L28.785068,27.1835233 C28.9744673,26.9841459 28.966705,26.6687245 28.767991,26.4786928 C28.5695357,26.2889208 28.2549052,26.296709 28.0657647,26.4958269 L25.458161,29.2429783 L21.6119584,29.2429783 C21.7379659,28.8816067 22.0326732,28.5970784 22.4161291,28.4911591 L22.4161291,28.4911591 Z M18.8234939,25.2743802 C19.6995949,25.5708504 20.2879746,26.393542 20.2879746,27.3211145 L20.2879746,29.2429783 L16.7742558,29.2429783 L17.4495729,28.5602144 C17.5792027,28.4291133 17.626035,28.2367452 17.570923,28.0604726 L16.5926188,24.9241717 C16.8842212,24.8821155 17.171425,24.8135795 17.4529365,24.7193425 C17.6089581,24.8330499 17.7825741,24.9233928 17.966281,24.9849195 L18.8234939,25.2743802 Z M15.3115862,22.8317467 C15.5286709,22.9252049 15.759469,22.9721936 15.9905257,22.9721936 C16.2213237,22.9721936 16.4523805,22.9252049 16.6694652,22.8317467 L16.6694652,23.1728691 C16.6694652,23.4150816 16.7144864,23.6510635 16.7998713,23.8706903 C16.5279333,23.9355917 16.2508204,23.9724558 15.9703438,23.9786864 C15.6981471,23.9843977 15.428279,23.9612928 15.1628094,23.911708 C15.2595791,23.6796202 15.3115862,23.4283215 15.3115862,23.1728691 L15.3115862,22.8317467 Z M15.9589592,26.2299903 L16.5333668,28.0713761 L15.9530081,28.6578263 L15.4368174,28.0807219 L15.9589592,26.2299903 Z M15.112096,16.7948671 L16.8686967,16.7948671 C17.3773838,16.7948671 17.7911126,17.210756 17.7911126,17.7219204 L17.7911126,18.3673011 L15.3928313,17.5931557 C15.2663063,17.5523976 15.1286555,17.5640799 15.0106691,17.6256066 L14.1899388,18.0555142 L14.1899388,17.7219204 C14.1899388,17.210756 14.6036676,16.7948671 15.112096,16.7948671 L15.112096,16.7948671 Z M14.1899388,19.1801277 L15.2862295,18.6061387 L17.7911126,19.414552 L17.7911126,20.5840773 C17.7911126,20.8403085 17.6557904,21.0820018 17.4381882,21.2151797 L16.3724292,21.866791 C16.1367151,22.0106127 15.8440777,22.0106127 15.6086222,21.866791 L14.5428632,21.2151797 C14.325261,21.0820018 14.1899388,20.8403085 14.1899388,20.5840773 L14.1899388,19.1801277 Z M13.1572988,25.2746399 L14.0134767,24.9854387 C14.1736381,24.9319599 14.3237086,24.8582317 14.4623944,24.7655523 C14.7338149,24.8473283 15.0104103,24.9057396 15.2903694,24.939748 L14.4062474,28.073453 C14.3596737,28.2380432 14.400555,28.414835 14.5144016,28.5420419 L15.1413339,29.2429783 L11.6930768,29.2429783 L11.6930768,27.3211145 C11.6930768,26.3932825 12.2814565,25.5705908 13.1572988,25.2746399 L13.1572988,25.2746399 Z M2.96880779,21.8322633 C2.54498812,21.8322633 2.1638609,21.6469046 1.90097884,21.3527709 L2.63994652,20.83278 C2.89377259,20.6539114 3.04539547,20.3613353 3.04539547,20.0503272 L3.04539547,19.5913437 L4.40275701,19.0524015 L4.40275701,20.3943053 C4.40275701,21.1871422 3.7595239,21.8322633 2.96880779,21.8322633 L2.96880779,21.8322633 Z M2.43217653,17.6494902 L3.50543911,17.6494902 C3.81282483,17.6494902 4.08450409,17.8055135 4.246218,18.0425339 L2.65417729,18.6746747 C2.28831588,18.8197945 2.05182549,19.1687051 2.05182549,19.5633063 L2.05182549,20.0290396 L1.53485864,20.3930072 L1.53485864,18.5492849 C1.53485864,18.0531777 1.93720275,17.6494902 2.43217653,17.6494902 L2.43217653,17.6494902 Z M2.96880779,22.8291506 C3.08834671,22.8291506 3.20607442,22.8200645 3.32095595,22.8031901 L3.37529178,23.3444687 C3.01357024,23.2665869 2.63968773,23.2647696 2.27589625,23.339017 L2.35584757,22.75049 C2.55171545,22.8016324 2.75715671,22.8291506 2.96880779,22.8291506 L2.96880779,22.8291506 Z M1.34235445,25.1944216 C1.35736153,24.9906308 1.47043185,24.8057913 1.64508284,24.699872 L1.92762924,24.528532 C2.50514179,24.1783234 3.22522131,24.2014284 3.77763589,24.5827897 L6.88901064,28.3203383 C6.98345158,28.4337862 7.1231723,28.4992069 7.27039665,28.4992069 L7.27194907,28.4992069 L9.52326486,28.4911591 C9.90672075,28.5970784 10.2016868,28.8816067 10.3274355,29.2429783 L6.48149168,29.2429783 L3.87362926,26.4958269 C3.6844887,26.2964494 3.37011693,26.2889208 3.17140293,26.4786928 C2.97268894,26.6684649 2.96518543,26.9841459 3.15432598,27.1835233 L3.45317316,27.4984255 L3.45317316,29.2429783 L1.03315752,29.2429783 L1.34235445,25.1944216 Z M30.945824,31.0090784 C30.945824,32.1085101 30.0539396,33.0031127 28.957649,33.0031127 L2.98200366,33.0031127 C1.88571304,33.0031127 0.993569987,32.1085101 0.993569987,31.0090784 L0.993569987,30.2398656 L3.45317316,30.2398656 L3.45317316,30.3618805 C3.45317316,30.8764197 3.64671238,31.3662964 3.9978255,31.7416868 C4.09563002,31.8460484 4.22758856,31.8987484 4.36006456,31.8987484 C4.48193208,31.8987484 4.60405839,31.8540962 4.70005176,31.7637532 C4.90005945,31.5752793 4.90989169,31.2598579 4.72204483,31.0589228 C4.54454772,30.8694103 4.44674314,30.6220058 4.44674314,30.3618805 L4.44674314,28.5451572 L5.77719549,29.9465107 L5.77719549,30.1853483 C5.77719549,31.259079 6.64812171,32.1326535 7.71879684,32.1326535 L9.8112449,32.1326535 C10.0855116,32.1326535 10.3080299,31.9096519 10.3080299,31.6342099 C10.3080299,31.3590274 10.0855116,31.1357662 9.8112449,31.1357662 L7.71879684,31.1357662 C7.21631948,31.1357662 6.8041432,30.7416842 6.77309414,30.2455769 L10.8914935,30.2455769 C10.9158153,30.2455769 10.9396195,30.2432405 10.9631651,30.2398656 L20.9764876,30.2398656 C20.9997744,30.2432405 21.0238375,30.2455769 21.0481592,30.2455769 L25.2677267,30.2455769 C25.2364189,30.7416842 24.8245014,31.1357662 24.322024,31.1357662 L11.9378469,31.1357662 C11.6635802,31.1357662 11.4410619,31.3590274 11.4410619,31.6342099 C11.4410619,31.9096519 11.6635802,32.1326535 11.9378469,32.1326535 L24.322024,32.1326535 C25.3924404,32.1326535 26.2633667,31.259079 26.2633667,30.1853483 L26.2633667,29.8613599 C26.2633667,29.8546102 26.2625904,29.8478605 26.2623317,29.8411107 L27.4926508,28.5451572 L27.4926508,30.3618805 C27.4926508,30.6220058 27.395105,30.8694103 27.2176078,31.0589228 C27.029761,31.2598579 27.0395932,31.5752793 27.2396009,31.7637532 C27.3353355,31.8540962 27.4577206,31.8987484 27.5795882,31.8987484 C27.7120642,31.8987484 27.8440226,31.8460484 27.9418272,31.7416868 C28.2929404,31.3662964 28.4862208,30.8764197 28.4862208,30.3618805 L28.4862208,30.2398656 L30.945824,30.2398656 L30.945824,31.0090784 Z" id="Shape" fill="#000000" fill-rule="nonzero"></path>
                    <path d="M2.10521353,14.91915 L2.18861507,14.91915 C2.53672601,15.6638529 3.27982893,16.1414141 4.09934009,16.1414141 C4.91962822,16.1414141 5.66247216,15.6635915 6.00954698,14.91915 L13.1486702,14.91915 C13.7684839,14.91915 14.2950534,14.5155624 14.4877577,13.955663 C14.9104638,14.2664569 15.426932,14.4447254 15.9724094,14.4447254 C16.6448022,14.4447254 17.2731632,14.1744472 17.735757,13.7175358 C17.8453187,14.3976751 18.4296478,14.91915 19.134158,14.91915 L26.2735403,14.91915 C26.6213922,15.6635915 27.364236,16.1414141 28.1834882,16.1414141 C29.0032583,16.1414141 29.7463613,15.6635915 30.0942131,14.91915 L30.1776148,14.91915 C30.9595692,14.91915 31.5959596,14.2771739 31.5959596,13.4880346 L31.5959596,5.60082397 C31.5959596,4.81168467 30.9595692,4.16970849 30.1776148,4.16970849 L26.1466248,4.16970849 C25.8718141,4.16970849 25.6493235,4.39450471 25.6493235,4.67157912 C25.6493235,4.9489149 25.8718141,5.17344975 26.1466248,5.17344975 L30.1776148,5.17344975 C30.4112427,5.17344975 30.6013569,5.36531074 30.6013569,5.60082397 L30.6013569,13.4882959 C30.6013569,13.7238092 30.4112427,13.9154088 30.1776148,13.9154088 L30.0343816,13.9154088 C29.6753922,13.9154088 29.3513693,14.1289652 29.2086541,14.4598862 C29.0309726,14.8715769 28.6284693,15.1376729 28.1834882,15.1376729 C27.7387661,15.1376729 27.3367809,14.8715769 27.1588402,14.4596248 C27.0161251,14.1292266 26.6921023,13.9154088 26.3331128,13.9154088 L19.134158,13.9154088 C18.90053,13.9154088 18.7104159,13.7238092 18.7104159,13.4882959 L18.7104159,12.9121903 L22.8960354,12.9121903 C23.8072365,12.9121903 24.5485262,12.1640894 24.5485262,11.2447774 L24.5485262,1.66741291 C24.5487853,0.748100941 23.8072365,0 22.8960354,0 L9.04878338,0 C8.13732327,0 7.3960335,0.748100941 7.3960335,1.66741291 L7.3960335,4.16970849 L2.10521353,4.16970849 C1.32325897,4.16970849 0.686868687,4.81168467 0.686868687,5.60082397 L0.686868687,6.3131143 C0.686868687,6.59018871 0.909618242,6.81498493 1.18417002,6.81498493 C1.45898079,6.81498493 1.68147135,6.59018871 1.68147135,6.3131143 L1.68147135,5.60082397 C1.68147135,5.36531074 1.87158547,5.17344975 2.10521353,5.17344975 L7.3960335,5.17344975 L7.3960335,11.2447774 C7.3960335,12.1640894 8.13732327,12.9121903 9.04878338,12.9121903 L13.5724124,12.9121903 L13.5724124,13.4882959 C13.5724124,13.7238092 13.3822983,13.9154088 13.1486702,13.9154088 L5.95023345,13.9154088 C5.59098502,13.9154088 5.26670318,14.1289652 5.12372905,14.4601475 C4.94656538,14.8715769 4.54458014,15.1376729 4.09934009,15.1376729 C3.65435897,15.1376729 3.25185573,14.8715769 3.07417408,14.4596248 C2.93145901,14.1292266 2.60743609,13.9154088 2.24844666,13.9154088 L2.10521353,13.9154088 C1.87158547,13.9154088 1.68147135,13.7238092 1.68147135,13.4882959 L1.68147135,8.42672158 C1.68147135,8.14938573 1.45898079,7.92485095 1.18417002,7.92485095 C0.909618242,7.92485095 0.686868687,8.14938573 0.686868687,8.42672158 L0.686868687,13.4882959 C0.686868687,14.2771739 1.32325897,14.91915 2.10521353,14.91915 L2.10521353,14.91915 Z M8.39063617,11.2447774 L8.39063617,1.66741291 C8.39063617,1.30146557 8.68590883,1.00374126 9.04878338,1.00374126 L22.8960354,1.00374126 C23.25891,1.00374126 23.5539236,1.30146557 23.5539236,1.66741291 L23.5539236,11.2447774 C23.5539236,11.6107248 23.25891,11.9084491 22.8960354,11.9084491 L18.293149,11.9084491 C18.2353895,11.9084491 18.178407,11.9139383 18.1227196,11.9236097 C18.1180574,11.9243939 18.1131362,11.9251781 18.108474,11.9262236 C17.7849691,11.9868663 17.5070502,12.2040822 17.3731415,12.5146146 C17.1307071,13.0773894 16.5808265,13.4409842 15.9724094,13.4409842 C15.3642513,13.4409842 14.8143707,13.0773894 14.5716773,12.5146146 C14.4129035,12.1463148 14.051842,11.9084491 13.6516698,11.9084491 L9.04878338,11.9084491 C8.68590883,11.9084491 8.39063617,11.6107248 8.39063617,11.2447774 Z" id="Shape" fill="#000000" fill-rule="nonzero"></path>
                    <path d="M10.4537853,3.77777778 L21.1421743,3.77777778 C21.415008,3.77777778 21.6363636,3.54730119 21.6363636,3.26262626 C21.6363636,2.97795141 21.415008,2.74747475 21.1421743,2.74747475 L10.4537853,2.74747475 C10.1809515,2.74747475 9.95959596,2.97795141 9.95959596,3.26262626 C9.95959596,3.54730119 10.1809515,3.77777778 10.4537853,3.77777778 Z" id="Path" fill="#000000"></path>
                    <path d="M10.4537853,6.52525253 L21.1421743,6.52525253 C21.415008,6.52525253 21.6363636,6.29477594 21.6363636,6.01010101 C21.6363636,5.72569451 21.415008,5.49494949 21.1421743,5.49494949 L10.4537853,5.49494949 C10.1809515,5.49494949 9.95959596,5.72569451 9.95959596,6.01010101 C9.95959596,6.29477594 10.1809515,6.52525253 10.4537853,6.52525253 Z" id="Path" fill="#000000"></path>
                    <path d="M16.4848485,8.41414141 C16.4848485,8.12946656 16.2598172,7.8989899 15.9824531,7.8989899 L10.118557,7.8989899 C9.84119282,7.8989899 9.61616162,8.12946656 9.61616162,8.41414141 C9.61616162,8.69854798 9.84119282,8.92929293 10.118557,8.92929293 L15.9824531,8.92929293 C16.2598172,8.92929293 16.4848485,8.69854798 16.4848485,8.41414141 Z" id="Path" fill="#000000"></path>
                </g>
            </g>
        </g>
    </g>
</svg>