<?xml version="1.0" encoding="UTF-8" standalone="no"?>
<svg width="24px" height="27px" viewBox="0 0 24 27" version="1.1" xmlns="http://www.w3.org/2000/svg" xmlns:xlink="http://www.w3.org/1999/xlink">
    <!-- Generator: Sketch 49.3 (51167) - http://www.bohemiancoding.com/sketch -->
    <title>add-user (2)</title>
    <desc>Created with Sketch.</desc>
    <defs></defs>
    <g id="Symbols" stroke="none" stroke-width="1" fill="none" fill-rule="evenodd">
        <g id="Add-frnd" transform="translate(-251.000000, -67.000000)" fill-rule="nonzero">
            <g id="Group-3">
                <g transform="translate(0.000000, 58.000000)">
                    <g id="Group-2">
                        <g id="add-user-(2)" transform="translate(251.000000, 9.000000)">
                            <path d="M17.0037115,13.1114423 C20.3795192,13.1114423 23.0922692,15.8241346 23.0922692,19.2 C23.0922692,22.5758654 20.3795769,25.2885577 17.0037115,25.2885577 C14.8636731,25.2885577 12.9949038,24.2034808 11.9098269,22.5456923 C11.2768846,21.5811923 10.9151538,20.4358269 10.9151538,19.2 C10.9151538,16.8790962 12.2112115,14.8596346 14.1101538,13.8348462 C14.98425,13.3827115 15.94875,13.1114423 17.0037115,13.1114423 Z" id="Shape" fill="#FFE3BA"></path>
                            <g id="Group" transform="translate(0.865385, 0.865385)" fill="#FFE3BA">
                                <path d="M11.9486538,1.39523077 C12.7926346,2.23921154 13.305,3.38457692 13.305,4.68063462 C13.305,5.97669231 12.7925769,7.12205769 11.9486538,7.96603846 C11.1047308,8.81001923 9.95930769,9.32238462 8.66325,9.32238462 C6.10125,9.32238462 4.0215,7.24263462 4.0215,4.68063462 C4.0215,3.41469231 4.53392308,2.23921154 5.37784615,1.39523077 C6.22176923,0.55125 7.36719231,0.0388846154 8.66325,0.0388846154 C9.95930769,0.0388846154 11.1047308,0.55125 11.9486538,1.39523077 Z" id="Shape"></path>
                                <path d="M13.2145962,12.9091731 L13.2447115,12.9694615 C11.3458269,13.99425 10.0497115,16.0137115 10.0497115,18.3346154 C10.0497115,19.5703846 10.4113846,20.71575 11.0443846,21.6803077 L0.0428653846,21.6803077 L0.0428653846,19.5703846 C0.0428653846,15.441 3.38855769,12.0953654 7.51788462,12.0953654 L9.83878846,12.0953654 C11.0444423,12.0953654 12.1898077,12.3968077 13.2145962,12.9091731 Z" id="Shape"></path>
                            </g>
                            <g id="Group" fill="#3D3D63">
                                <path d="M9.52863462,11.0919808 C6.48438462,11.0919808 3.98261538,8.59026923 3.98261538,5.54596154 C3.98261538,4.06903846 4.58544231,2.65240385 5.61023077,1.62761538 C6.66525,0.572711538 8.05171154,0 9.52863462,0 C11.0055577,0 12.4221923,0.572711538 13.4469808,1.62761538 C14.5019423,2.68257692 15.0745962,4.06903846 15.0745962,5.54596154 C15.0745962,7.02288462 14.5018846,8.43951923 13.4469808,9.46430769 C12.4221923,10.4891538 11.0055577,11.0919808 9.52863462,11.0919808 Z M9.52863462,1.80848077 C8.53396154,1.80848077 7.59957692,2.18546273 6.87617308,2.85239666 C6.18294231,3.51933058 5.79115385,4.44729899 5.79115385,5.40424038 C5.79115385,7.37612467 7.47905769,9 9.52869231,9 C10.5233654,9 11.4878654,8.62301804 12.1811538,7.95608411 C12.8743846,7.28915019 13.2662308,6.36118178 13.2662308,5.40424038 C13.2662308,4.44729899 12.8743846,3.54835908 12.1811538,2.85239666 C11.4576923,2.18546273 10.5233077,1.80848077 9.52863462,1.80848077 Z" id="Shape"></path>
                                <path d="M17.0037115,12.2072308 C16.0392115,12.2072308 15.0746538,12.4182115 14.1704423,12.8100577 C13.0551923,12.2976346 11.9098269,12.0565385 10.7041731,12.0565385 L8.38326923,12.0565385 C3.77163462,12.0565385 0.00398076923,15.8241923 0.00398076923,20.4358269 L0.00398076923,22.5456923 C0.00398076923,23.0581154 0.395826923,23.4499038 0.908192308,23.4499038 L11.4576923,23.4499038 C12.7839231,25.1679808 14.8033846,26.1927692 17.0037115,26.1927692 C20.8617692,26.1927692 23.9964808,23.0580577 23.9964808,19.2 C23.9964808,15.3419423 20.8617692,12.2072308 17.0037115,12.2072308 Z M1.81246154,20.4357692 C1.81246154,16.8188077 4.76630769,13.8649615 8.38326923,13.8649615 L10.7041731,13.8649615 C11.2165962,13.8649615 11.7591346,13.92525 12.2715,14.0458269 C10.8548654,15.3418846 10.0108846,17.2106538 10.0108846,19.2 C10.0108846,20.0439808 10.1615769,20.8577885 10.4630192,21.6414231 L1.81246154,21.6414231 L1.81246154,20.4357692 Z M17.0037115,24.3842885 C15.2555192,24.3842885 13.6279038,23.5101923 12.6633462,22.0633846 C12.1208077,21.2194038 11.8193654,20.2247885 11.8193654,19.1999423 C11.8193654,17.3010577 12.8441538,15.5528654 14.5320577,14.6485962 C15.31575,14.2266346 16.1596731,14.0156538 17.0036538,14.0156538 C19.8670962,14.0156538 22.1879423,16.3365577 22.1879423,19.1999423 C22.1879423,22.0633269 19.8670962,24.3842885 17.0037115,24.3842885 Z" id="Shape"></path>
                                <path d="M19.5054231,18.2957885 L17.9079231,18.2957885 L17.9079231,16.6982885 C17.9079231,16.1858654 17.5160769,15.7940769 17.0037115,15.7940769 C16.4913462,15.7940769 16.0995,16.1859231 16.0995,16.6982885 L16.0995,18.2957885 L14.502,18.2957885 C13.9895769,18.2957885 13.5977885,18.6876346 13.5977885,19.2 C13.5977885,19.7123654 13.9896346,20.1042115 14.502,20.1042115 L16.0995,20.1042115 L16.0995,21.7017115 C16.0995,22.2141346 16.4913462,22.6059231 17.0037115,22.6059231 C17.5161346,22.6059231 17.9079231,22.2140769 17.9079231,21.7017115 L17.9079231,20.1042115 L19.5054231,20.1042115 C20.0178462,20.1042115 20.4096346,19.7123654 20.4096346,19.2 C20.4096346,18.6876346 20.0177885,18.2957885 19.5054231,18.2957885 Z" id="Shape"></path>
                            </g>
                        </g>
                    </g>
                </g>
            </g>
        </g>
    </g>
</svg>