<?xml version="1.0" encoding="UTF-8"?>
<svg width="32px" height="29px" viewBox="0 0 32 29" version="1.1" xmlns="http://www.w3.org/2000/svg" xmlns:xlink="http://www.w3.org/1999/xlink">
    <!-- Generator: Sketch 50.2 (55047) - http://www.bohemiancoding.com/sketch -->
    <title>add-user (3)</title>
    <desc>Created with Sketch.</desc>
    <defs></defs>
    <g id="Symbols" stroke="none" stroke-width="1" fill="none" fill-rule="evenodd">
        <g id="add-user-(3)" transform="translate(0.000000, 1.000000)" fill-rule="nonzero">
            <path d="M24.2977638,17.0560491 L23.0554325,17.0560491 L23.0554325,15.8137178 C23.0554325,15.1276196 22.4991994,14.5713865 21.8131012,14.5713865 C21.1270031,14.5713865 20.5707699,15.1276196 20.5707699,15.8137178 L20.5707699,17.0560491 L19.3284387,17.0560491 C18.6423405,17.0560491 18.0861074,17.6122822 18.0861074,18.2983804 C18.0861074,18.9844785 18.6423405,19.5407117 19.3284387,19.5407117 L20.5707699,19.5407117 L20.5707699,20.7830429 C20.5707699,21.4691411 21.1270031,22.0253742 21.8131012,22.0253742 C22.4991994,22.0253742 23.0554325,21.4691411 23.0554325,20.7830429 L23.0554325,19.5407117 L24.2977638,19.5407117 C24.983862,19.5407117 25.5400951,18.9844785 25.5400951,18.2983804 C25.5400951,17.6122822 24.983862,17.0560491 24.2977638,17.0560491 Z" id="XMLID_92_" fill="#3D3D63"></path>
            <path d="M21.8131012,9.60206135 C18.9569816,9.60206135 16.4180706,10.9862669 14.8317791,13.1189356 C14.1979417,12.985592 13.5412454,12.9149448 12.868316,12.9149448 C12.1524847,12.9149448 11.4550399,12.9948681 10.7840982,13.145273 C7.62683742,13.8528221 5.05703374,16.1323344 3.94249693,19.1160828 C3.55580061,20.1513589 3.34377607,21.2711135 3.34377607,22.4394847 C3.34377607,23.1255828 3.9000092,23.681816 4.58610736,23.681816 L14.9882301,23.681816 C16.5822239,25.6983681 19.0489969,26.9946994 21.8131012,26.9946994 C26.6083344,26.9946994 30.5094202,23.0936135 30.5094202,18.2983804 C30.5094202,13.5031472 26.6083344,9.60206135 21.8131012,9.60206135 Z M21.8131012,24.5100368 C20.6873834,24.5100368 19.6316503,24.2075706 18.7201933,23.681816 C16.8583528,22.607862 15.6014448,20.5978528 15.6014448,18.2983804 C15.6014448,16.6411104 16.2550767,15.1346595 17.3165245,14.0196258 C18.4487025,12.8303834 20.045181,12.0867239 21.8131012,12.0867239 C25.2382086,12.0867239 28.0247577,14.873273 28.0247577,18.2983804 C28.0247577,21.7234877 25.2382086,24.5100368 21.8131012,24.5100368 Z" id="XMLID_93_" stroke="#3D3D63" fill="#FFE3BA"></path>
            <path d="M2.70182209,5.23327914 C2.70182209,7.19334663 4.22301534,8.80365644 6.14672393,8.94842945 C5.53533129,7.84673006 5.18648466,6.58004908 5.18648466,5.23327914 C5.18648466,3.8865092 5.53533129,2.6197454 6.14672393,1.51812883 C4.22301534,1.66281902 2.70182209,3.27321166 2.70182209,5.23327914 Z" id="XMLID_104_" fill="#3D3D63"></path>
            <path d="M7.74295399,11.5805982 C7.3147638,11.4913988 6.87481288,11.4448528 6.42881595,11.4448528 C2.88394785,11.4448528 0,14.3288834 0,17.8737515 C0,18.5598497 0.556233129,19.1160828 1.24233129,19.1160828 L1.32722393,19.1160828 C2.28812577,15.784316 4.65609202,13.0434018 7.74295399,11.5805982 Z" id="XMLID_105_" fill="#3D3D63"></path>
            <path d="M8.6313865,2.22915644 C8.02769632,3.07808282 7.67114724,4.1145184 7.67114724,5.23319632 C7.67114724,6.35187423 8.02769632,7.38830982 8.6313865,8.2372362 C9.57415031,9.5628865 11.1214325,10.4301994 12.868316,10.4301994 C15.7340429,10.4301994 18.0654018,8.09884049 18.0654018,5.2331135 C18.0654018,2.3673865 15.7340429,0.0360276074 12.868316,0.0360276074 C11.1213497,0.0361932515 9.57415031,0.903506135 8.6313865,2.22915644 Z" id="XMLID_106_" stroke="#3D3D63" fill="#FFE3BA"></path>
        </g>
    </g>
</svg>