<?xml version="1.0" encoding="utf-8"?>
<!-- Generator: Adobe Illustrator 17.1.0, SVG Export Plug-In . SVG Version: 6.00 Build 0)  -->
<!DOCTYPE svg PUBLIC "-//W3C//DTD SVG 1.1//EN" "http://www.w3.org/Graphics/SVG/1.1/DTD/svg11.dtd">
<svg version="1.1" id="Layer_1" xmlns="http://www.w3.org/2000/svg" xmlns:xlink="http://www.w3.org/1999/xlink" x="0px" y="0px"
	 viewBox="299.7 242 362.3 76.7" enable-background="new 299.7 242 362.3 76.7" xml:space="preserve">
<title>icons</title>
<path fill="#00B6BC" d="M404.3,258.4c-6.1-9.4-16.5-15-27.7-15.2c-5.5,0-10.8,1.4-15.6,4c-10.2-5.6-22.6-5.3-32.5,0.8v37.8
	c-0.5,10.3,7.6,19.1,17.9,19.5c0.5,0,1.1,0,1.6,0c5.9,0,11.5-2.6,15.3-7.2l3.3,2.7c-4.5,5.6-11.3,8.8-18.5,8.8
	c-12.7,0.5-23.5-9.4-24-22.1c0-0.6,0-1.1,0-1.7v-34.7c-4.4,3.7-7.8,8.4-10,13.7c-7.9,2.1-13.4,9.3-13.2,17.5
	c-0.3,9.2,6.7,17,15.9,17.8c6,10.1,16.9,16.4,28.6,16.5c5.5,0,10.8-1.4,15.6-4c4.8,2.6,10.1,4,15.6,4c8.3,0,16.3-3.2,22.3-8.9
	c12.4-0.8,22.2-11.8,22.2-25.2C421.3,271.8,414.5,262,404.3,258.4z M378,298.9c-3.9,0-7.6-1.5-10.4-4.2l0,0c-2.5-2.5-6.4-2.5-8.9,0
	c0,0,0,0,0,0l0,0c-2.8,2.7-6.5,4.3-10.4,4.2c-8.2,0-14.9-6.7-14.9-14.9s6.7-14.9,14.9-14.9H378c8.2,0,14.9,6.7,14.9,14.9
	S386.2,298.9,378,298.9L378,298.9z"/>
<path fill="#00B6BC" d="M458.1,277.4c-0.8-1.1-1.9-1.9-3.1-2.5c-1.3-0.7-2.7-1.1-4.2-1.1c-1.3,0-2.5,0.3-3.7,0.8
	c-1.1,0.5-1.7,1.6-1.7,2.8c0,1.2,0.7,2.4,1.9,2.7c1.7,0.7,3.5,1.2,5.4,1.6c1.3,0.3,2.6,0.7,3.8,1.1c1.2,0.5,2.4,1.1,3.5,1.9
	c1,0.8,1.9,1.7,2.5,2.8c0.7,1.3,1,2.7,1,4.1c0.1,1.8-0.3,3.6-1.1,5.2c-0.7,1.4-1.8,2.6-3.1,3.4c-1.3,0.9-2.8,1.6-4.4,1.9
	c-1.7,0.4-3.5,0.6-5.2,0.6c-2.6,0-5.2-0.5-7.6-1.4c-2.3-0.9-4.4-2.2-6.1-4l5.5-5.1c1,1.2,2.2,2.3,3.6,3c1.5,0.8,3.2,1.2,4.9,1.2
	c0.6,0,1.3-0.1,1.9-0.2c0.6-0.1,1.2-0.4,1.7-0.6c0.5-0.3,1-0.7,1.3-1.2c0.3-0.6,0.5-1.2,0.5-1.9c0.1-1.3-0.7-2.5-1.9-3
	c-1.8-0.8-3.8-1.5-5.7-1.9c-1.2-0.3-2.5-0.6-3.6-1.1c-1.1-0.4-2.2-1-3.1-1.7c-0.9-0.7-1.7-1.6-2.2-2.7c-0.6-1.2-0.9-2.6-0.8-4
	c0-1.7,0.4-3.3,1.1-4.8c0.7-1.3,1.8-2.4,3-3.3c1.3-0.9,2.7-1.5,4.2-1.9c1.6-0.4,3.2-0.6,4.9-0.6c2.4,0,4.8,0.4,7,1.3
	c2.1,0.7,4,2.1,5.4,3.8L458.1,277.4z"/>
<path fill="#00B6BC" d="M470.8,249.4h8.3v33.1h0.2l12.6-14h10.7l-14.4,15.1l15.3,18.2h-11l-13.2-17.1h-0.2v17.1h-8.3L470.8,249.4z"
	/>
<path fill="#00B6BC" d="M504.9,285c0-2.5,0.5-4.9,1.4-7.2c0.9-2.1,2.2-4,3.8-5.5c1.7-1.5,3.6-2.8,5.7-3.5c4.6-1.7,9.6-1.7,14.1,0
	c4.3,1.6,7.8,4.8,9.5,9c1,2.3,1.5,4.7,1.4,7.2c0,2.5-0.5,4.9-1.4,7.2c-0.9,2.1-2.2,4-3.8,5.6c-1.7,1.6-3.6,2.8-5.7,3.6
	c-4.6,1.8-9.6,1.8-14.1,0c-2.1-0.8-4.1-2.1-5.7-3.6c-1.6-1.6-2.9-3.5-3.8-5.6C505.4,290,504.9,287.5,504.9,285z M513.4,285
	c0,1.3,0.2,2.6,0.6,3.8c0.4,1.3,1,2.4,1.8,3.5c0.8,1,1.8,1.9,3,2.5c2.7,1.3,5.9,1.3,8.6,0c1.2-0.6,2.2-1.5,3-2.5
	c0.8-1,1.4-2.2,1.8-3.5c0.4-1.2,0.6-2.5,0.6-3.8c0-1.3-0.2-2.6-0.6-3.8c-0.4-1.2-1-2.4-1.8-3.4c-0.8-1-1.8-1.9-3-2.5
	c-2.7-1.2-5.9-1.2-8.6,0c-1.2,0.6-2.2,1.4-3,2.5c-0.8,1-1.4,2.2-1.8,3.4C513.6,282.5,513.4,283.7,513.4,285z"/>
<path fill="#00B6BC" d="M549.2,268.5h8v5.6h0.1c0.9-1.9,2.2-3.5,3.8-4.7c1.7-1.3,3.7-1.9,5.8-1.9h1c0.3,0,0.7,0.1,1,0.2v7.6
	c-0.6-0.1-1-0.2-1.4-0.3h-1.1c-1.6-0.1-3.2,0.3-4.6,1c-1.1,0.6-2,1.5-2.7,2.5c-0.6,0.9-1.1,1.9-1.3,3c-0.2,0.8-0.3,1.6-0.3,2.4v17.8
	h-8.3L549.2,268.5z"/>
<path fill="#00B6BC" d="M574.6,249.4h8.3v33.1h0.2l12.6-14h10.7L592,283.6l15.3,18.2h-11l-13.2-17.1h-0.2v17.1h-8.3V249.4z"/>
<path fill="#00B6BC" d="M642.6,285.6v1.1c0,0.4,0,0.7,0,1.1h-25.4c0.1,2.3,1.3,4.4,3.1,5.9c0.9,0.7,1.9,1.3,3,1.7
	c1.1,0.4,2.3,0.6,3.5,0.6c1.8,0.1,3.6-0.3,5.3-1.1c1.4-0.7,2.6-1.8,3.5-3.1l5.6,4.4c-3.3,4.5-8.7,7-14.3,6.7c-2.4,0-4.9-0.4-7.1-1.2
	c-2.1-0.7-4.1-1.9-5.7-3.4c-1.7-1.5-3-3.4-3.8-5.4c-0.9-2.3-1.4-4.8-1.4-7.3c0-2.5,0.4-5,1.4-7.3c0.8-2.1,2.1-4,3.7-5.6
	c1.6-1.6,3.5-2.8,5.6-3.6c2.2-0.9,4.6-1.3,7-1.3c2.2,0,4.4,0.4,6.4,1.1c1.9,0.7,3.7,1.9,5.1,3.4c1.5,1.6,2.7,3.6,3.4,5.7
	C642.2,280.3,642.6,282.9,642.6,285.6z M634.3,281.8c0-1-0.2-2.1-0.5-3.1c-0.6-1.9-2-3.5-3.8-4.3c-1.1-0.5-2.3-0.7-3.5-0.7
	c-2.3-0.1-4.6,0.7-6.3,2.3c-1.7,1.4-2.7,3.5-2.9,5.7L634.3,281.8z"/>
<path fill="#00B6BC" d="M650.8,249.4h8.3v52.4h-8.3V249.4z"/>
</svg>
