<?xml version="1.0" encoding="UTF-8"?>
<svg width="16px" height="16px" viewBox="0 0 16 16" version="1.1" xmlns="http://www.w3.org/2000/svg" xmlns:xlink="http://www.w3.org/1999/xlink">
    <!-- Generator: Sketch 50.2 (55047) - http://www.bohemiancoding.com/sketch -->
    <title>download (1)</title>
    <desc>Created with Sketch.</desc>
    <defs></defs>
    <g id="Page-1" stroke="none" stroke-width="1" fill="none" fill-rule="evenodd">
        <g id="Case-detail" transform="translate(-944.000000, -95.000000)" fill-rule="nonzero">
            <g id="Research-Card" transform="translate(230.000000, 80.000000)">
                <g id="Group-12" transform="translate(714.000000, 13.000000)">
                    <g id="download-(1)" transform="translate(0.000000, 2.000000)">
                        <path d="M7.86453333,15.2287111 C11.9245918,15.2287111 15.2290667,11.9245457 15.2290667,7.86453333 C15.2290667,3.80452101 11.9245918,0.500355556 7.86453333,0.500355556 C3.8042455,0.500355556 0.5,3.80439481 0.5,7.86453333 C0.5,11.9246719 3.8042455,15.2287111 7.86453333,15.2287111 Z" id="Shape" stroke="#00B6BC" fill="#FFFFFF"></path>
                        <path d="M7.86453333,9.00586667 C7.71733333,9.00586667 7.59786667,8.8864 7.59786667,8.7392 L7.59786667,4.60515556 C7.59786667,4.45795556 7.71733333,4.33848889 7.86453333,4.33848889 C8.01173333,4.33848889 8.1312,4.45795556 8.1312,4.60515556 L8.1312,8.7392 C8.1312,8.8864 8.01173333,9.00586667 7.86453333,9.00586667 Z" id="Shape" fill="#00B6BC"></path>
                        <path d="M11.1765333,10.7253333 L4.55288889,10.7253333 C4.40568889,10.7253333 4.28622222,10.6058667 4.28622222,10.4586667 C4.28622222,10.3114667 4.40568889,10.192 4.55288889,10.192 L11.1761778,10.192 C11.3233778,10.192 11.4428444,10.3114667 11.4428444,10.4586667 C11.4428444,10.6058667 11.3237333,10.7253333 11.1765333,10.7253333 Z" id="Shape" fill="#00B6BC"></path>
                        <path d="M7.86453333,9.00586667 C7.79662222,9.00586667 7.728,8.97991111 7.67644444,8.928 L6.49102222,7.74542222 C6.38648889,7.64124444 6.38648889,7.47235556 6.49031111,7.36817778 C6.59413333,7.26364444 6.76373333,7.26364444 6.86755556,7.36746667 L8.05297778,8.55004444 C8.15751111,8.65422222 8.15751111,8.82346667 8.05368889,8.92764444 C8.00142222,8.97991111 7.93315556,9.00586667 7.86453333,9.00586667 Z" id="Shape" fill="#00B6BC"></path>
                        <path d="M7.86453333,9.00586667 C7.79626667,9.00586667 7.72764444,8.97991111 7.67573333,8.92728889 C7.57191111,8.82311111 7.57191111,8.65386667 7.67644444,8.54968889 L8.86186667,7.36711111 C8.96568889,7.26328889 9.13564444,7.26328889 9.23911111,7.36782222 C9.34328889,7.472 9.34328889,7.64088889 9.2384,7.74506667 L8.05333333,8.92764444 C8.00106667,8.97991111 7.9328,9.00586667 7.86453333,9.00586667 Z" id="Shape" fill="#00B6BC"></path>
                    </g>
                </g>
            </g>
        </g>
    </g>
</svg>