<?xml version="1.0" encoding="UTF-8" standalone="no"?>
<svg width="16px" height="15px" viewBox="0 0 16 15" version="1.1" xmlns="http://www.w3.org/2000/svg" xmlns:xlink="http://www.w3.org/1999/xlink">
    <!-- Generator: Sketch 49.3 (51167) - http://www.bohemiancoding.com/sketch -->
    <title>Shape</title>
    <desc>Created with Sketch.</desc>
    <defs></defs>
    <g id="Symbols" stroke="none" stroke-width="1" fill="none" fill-rule="evenodd">
        <g id="Coments" transform="translate(-86.000000, -1.000000)" fill="#777777" fill-rule="nonzero">
            <g id="Group-2">
                <g id="bubble" transform="translate(86.000000, 1.000000)">
                    <path d="M0.421200957,14.3166316 C0.231727273,14.3166316 0.0658325363,14.1903158 0.0153062205,14.0075789 C-0.0352200953,13.8248421 0.0422535889,13.6311579 0.204779905,13.5343158 C1.6287799,12.6804211 2.21909569,11.4383158 2.4287799,10.8572632 C0.880990431,9.67242105 0.000148325768,8.03284211 0.000148325768,6.31663158 C0.000148325768,5.45010526 0.217411484,4.61052632 0.646885168,3.82063158 C1.05614833,3.06778947 1.64056938,2.39326316 2.38246412,1.81557895 C3.88730622,0.645052632 5.88225359,0 8.00014833,0 C10.1180431,0 12.1129904,0.645052632 13.6178325,1.81557895 C14.3597273,2.39242105 14.9441483,3.06694737 15.3534115,3.82063158 C15.7828852,4.60968421 16.0001483,5.44926316 16.0001483,6.31663158 C16.0001483,7.184 15.7828852,8.02273684 15.3534115,8.81263158 C14.9441483,9.56547368 14.3597273,10.24 13.6178325,10.8176842 C12.1129904,11.9882105 10.1180431,12.6332632 8.00014833,12.6332632 C7.13025359,12.6332632 6.27635885,12.5246316 5.46035885,12.3090526 C5.09909569,12.5498947 4.42372727,12.9768421 3.61699043,13.3785263 C2.3639378,14.0016842 1.28941148,14.3174737 0.422043063,14.3174737 L0.421200957,14.3166316 Z M8.00014833,0.842947368 C4.05320096,0.842947368 0.842253589,3.29852632 0.842253589,6.31663158 C0.842253589,7.84505263 1.68856938,9.31621053 3.16309569,10.352 C3.3079378,10.4538947 3.37362201,10.6349474 3.32814833,10.8058947 C3.22962201,11.1730526 2.89446412,12.1810526 1.99762201,13.1536842 C3.09404306,12.7696842 4.27467464,12.1035789 5.14625359,11.504 C5.24983254,11.4324211 5.37951675,11.4113684 5.5007799,11.4458947 C6.29909569,11.6741053 7.14035885,11.7903158 8.00014833,11.7903158 C8.94489626,11.7903158 9.8474758,11.6496258 10.6739455,11.3942072 C11.2343308,11.2210214 11.7597248,10.9950893 12.239547,10.7245039 C14.0084899,9.7269466 15.1580431,8.12248428 15.1580431,6.31663158 C15.1580431,4.08758161 13.4065677,2.16537286 10.9006792,1.31264421 C10.0136265,1.01078913 9.03204068,0.842947368 8.00014833,0.842947368 Z" id="Shape"></path>
                </g>
            </g>
        </g>
    </g>
</svg>