<?xml version="1.0" encoding="UTF-8" standalone="no"?>
<svg width="16px" height="15px" viewBox="0 0 16 15" version="1.1" xmlns="http://www.w3.org/2000/svg" xmlns:xlink="http://www.w3.org/1999/xlink">
    <!-- Generator: Sketch 49.3 (51167) - http://www.bohemiancoding.com/sketch -->
    <title>bubble</title>
    <desc>Created with Sketch.</desc>
    <defs>
        <path d="M0.421200957,14.3166316 C0.231727273,14.3166316 0.0658325363,14.1903158 0.0153062205,14.0075789 C-0.0352200953,13.8248421 0.0422535889,13.6311579 0.204779905,13.5343158 C1.6287799,12.6804211 2.21909569,11.4383158 2.4287799,10.8572632 C0.880990431,9.67242105 0.000148325768,8.03284211 0.000148325768,6.31663158 C0.000148325768,5.45010526 0.217411484,4.61052632 0.646885168,3.82063158 C1.05614833,3.06778947 1.64056938,2.39326316 2.38246412,1.81557895 C3.88730622,0.645052632 5.88225359,0 8.00014833,0 C10.1180431,0 12.1129904,0.645052632 13.6178325,1.81557895 C14.3597273,2.39242105 14.9441483,3.06694737 15.3534115,3.82063158 C15.7828852,4.60968421 16.0001483,5.44926316 16.0001483,6.31663158 C16.0001483,7.184 15.7828852,8.02273684 15.3534115,8.81263158 C14.9441483,9.56547368 14.3597273,10.24 13.6178325,10.8176842 C12.1129904,11.9882105 10.1180431,12.6332632 8.00014833,12.6332632 C7.13025359,12.6332632 6.27635885,12.5246316 5.46035885,12.3090526 C5.09909569,12.5498947 4.42372727,12.9768421 3.61699043,13.3785263 C2.3639378,14.0016842 1.28941148,14.3174737 0.422043063,14.3174737 L0.421200957,14.3166316 Z" id="path-1"></path>
    </defs>
    <g id="Symbols" stroke="none" stroke-width="1" fill="none" fill-rule="evenodd">
        <g id="Coments-Counts" transform="translate(-92.000000, -1.000000)" fill-rule="nonzero">
            <g id="Group-2" transform="translate(23.000000, 0.000000)">
                <g id="bubble" transform="translate(69.000000, 1.000000)">
                    <g id="Shape">
                        <use fill="#FFE3BA" fill-rule="evenodd" xlink:href="#path-1"></use>
                        <path stroke="#3D3D63" stroke-width="1" d="M0.494763145,13.8166316 L0.628307739,13.8166316 L0.65446422,13.8427881 C0.591218495,13.8839488 0.526642259,13.9243144 0.46071744,13.9638457 C0.49189976,13.9452656 0.506648767,13.9084163 0.497223919,13.8743298 C0.488866699,13.8441045 0.463131583,13.8219181 0.432564977,13.8174558 C0.453141963,13.8173859 0.473874923,13.8171112 0.494763145,13.8166316 Z M0.712249809,13.804714 C1.44461722,13.7423659 2.34742882,13.4514771 3.39413148,12.9309396 C4.04658001,12.6060774 4.66089596,12.2411027 5.18300875,11.8930275 L5.37036601,11.7681226 L5.58807201,11.8256384 C6.36100224,12.0298387 7.17189813,12.1332632 8.00014833,12.1332632 C10.009477,12.1332632 11.8961371,11.5234378 13.3106453,10.4231769 C14.0001756,9.8862668 14.5389163,9.26402624 14.9141419,8.57379633 C15.3040829,7.85661073 15.5001483,7.09986716 15.5001483,6.31663158 C15.5001483,5.53310599 15.3039429,4.77563063 14.9140142,4.05923168 C14.5388582,3.36835806 14.0002532,2.74627416 13.3108469,2.21024316 C11.8961371,1.10982533 10.009477,0.5 8.00014833,0.5 C5.9908197,0.5 4.10415955,1.10982533 2.68965138,2.21008621 C2.00012101,2.74699636 1.46138036,3.36923692 1.0861547,4.05946683 C0.696374453,4.77635678 0.500148326,5.53391203 0.500148326,6.31663158 C0.500148326,7.86805871 1.30160383,9.36472078 2.73270537,10.4602376 L3.02333045,10.6827128 L2.89909313,11.0269849 C2.52799278,12.0553353 1.83399181,13.0564641 0.712249809,13.804714 Z"></path>
                    </g>
                </g>
            </g>
        </g>
    </g>
</svg>