<?xml version="1.0" encoding="utf-8"?>
<!-- Generator: Adobe Illustrator 17.1.0, SVG Export Plug-In . SVG Version: 6.00 Build 0)  -->
<!DOCTYPE svg PUBLIC "-//W3C//DTD SVG 1.1//EN" "http://www.w3.org/Graphics/SVG/1.1/DTD/svg11.dtd">
<svg version="1.1" id="Capa_1" xmlns="http://www.w3.org/2000/svg" xmlns:xlink="http://www.w3.org/1999/xlink" x="0px" y="0px"
	 viewBox="107.7 1.3 216.3 212.7" enable-background="new 107.7 1.3 216.3 212.7" xml:space="preserve">
<g>
	<path fill="#777777" d="M267.8,16.8c-1.7-8.5-9.3-14.9-18.2-14.9c-2.1,0-3.7,1.7-3.7,3.7s1.7,3.7,3.7,3.7c6.2,0,11.2,5,11.2,11.2
		s-5,11.2-11.2,11.2c-2.1,0-3.7,1.7-3.7,3.7c0,2.1,1.7,3.7,3.7,3.7c9,0,16.5-6.4,18.2-14.9h48.8v33.5H115.4V24.2h52.1h11.2
		c2.1,0,3.7-1.7,3.7-3.7s-1.7-3.7-3.7-3.7H172c1.5-4.3,5.6-7.4,10.5-7.4c6.2,0,11.2,5,11.2,11.2s-5,11.2-11.2,11.2
		c-2.1,0-3.7,1.7-3.7,3.7c0,2.1,1.7,3.7,3.7,3.7c10.3,0,18.6-8.4,18.6-18.6s-8.4-18.6-18.6-18.6c-9,0-16.5,6.4-18.2,14.9H108v48.4
		v149h216v-149V16.8H267.8z M316.6,206.7H115.4V65.2h201.1V206.7z"/>
	<path fill="#777777" d="M204.8,9.3c6.2,0,11.2,5,11.2,11.2s-5,11.2-11.2,11.2c-2.1,0-3.7,1.7-3.7,3.7c0,2.1,1.7,3.7,3.7,3.7
		c10.3,0,18.6-8.4,18.6-18.6s-8.4-18.6-18.6-18.6c-2.1,0-3.7,1.7-3.7,3.7S202.8,9.3,204.8,9.3z"/>
	<path fill="#777777" d="M227.2,9.3c6.2,0,11.2,5,11.2,11.2s-5,11.2-11.2,11.2c-2.1,0-3.7,1.7-3.7,3.7c0,2.1,1.7,3.7,3.7,3.7
		c10.3,0,18.6-8.4,18.6-18.6s-8.4-18.6-18.6-18.6c-2.1,0-3.7,1.7-3.7,3.7S225.1,9.3,227.2,9.3z"/>
	<circle fill="#777777" cx="189.9" cy="91.2" r="3.7"/>
	<circle fill="#777777" cx="216" cy="91.2" r="3.7"/>
	<circle fill="#777777" cx="242.1" cy="91.2" r="3.7"/>
	<circle fill="#777777" cx="268.1" cy="91.2" r="3.7"/>
	<circle fill="#777777" cx="294.2" cy="91.2" r="3.7"/>
	<circle fill="#777777" cx="137.8" cy="121" r="3.7"/>
	<circle fill="#777777" cx="163.9" cy="121" r="3.7"/>
	<circle fill="#777777" cx="189.9" cy="121" r="3.7"/>
	<circle fill="#777777" cx="216" cy="121" r="3.7"/>
	<circle fill="#777777" cx="242.1" cy="121" r="3.7"/>
	<circle fill="#777777" cx="268.1" cy="121" r="3.7"/>
	<circle fill="#777777" cx="294.2" cy="121" r="3.7"/>
	<circle fill="#777777" cx="137.8" cy="147.1" r="3.7"/>
	<circle fill="#777777" cx="163.9" cy="147.1" r="3.7"/>
	<circle fill="#777777" cx="189.9" cy="147.1" r="3.7"/>
	<circle fill="#777777" cx="216" cy="147.1" r="3.7"/>
	<circle fill="#777777" cx="242.1" cy="147.1" r="3.7"/>
	<circle fill="#777777" cx="268.1" cy="147.1" r="3.7"/>
	<circle fill="#777777" cx="294.2" cy="147.1" r="3.7"/>
	<circle fill="#777777" cx="137.8" cy="176.9" r="3.7"/>
	<circle fill="#777777" cx="163.9" cy="176.9" r="3.7"/>
	<circle fill="#777777" cx="189.9" cy="176.9" r="3.7"/>
	<circle fill="#777777" cx="216" cy="176.9" r="3.7"/>
	<circle fill="#777777" cx="242.1" cy="176.9" r="3.7"/>
</g>
</svg>
