<?xml version="1.0" encoding="UTF-8"?>
<svg width="16px" height="12px" viewBox="0 0 16 12" version="1.1" xmlns="http://www.w3.org/2000/svg" xmlns:xlink="http://www.w3.org/1999/xlink">
    <!-- Generator: Sketch 50.2 (55047) - http://www.bohemiancoding.com/sketch -->
    <title>camera</title>
    <desc>Created with Sketch.</desc>
    <defs></defs>
    <g id="Symbols" stroke="none" stroke-width="1" fill="none" fill-rule="evenodd">
        <g id="Posting-section" transform="translate(-443.000000, -106.000000)" fill="#00B6BC" fill-rule="nonzero">
            <g id="Group">
                <g transform="translate(443.000000, 104.000000)">
                    <g id="camera" transform="translate(0.000000, 2.000000)">
                        <path d="M7.6,10.2 C5.6152,10.2 4,8.5848 4,6.6 C4,4.6152 5.6152,3 7.6,3 C9.5848,3 11.2,4.6152 11.2,6.6 C11.2,8.5848 9.5848,10.2 7.6,10.2 Z M7.6,3.8 C6.056,3.8 4.8,5.056 4.8,6.6 C4.8,8.144 6.056,9.4 7.6,9.4 C9.144,9.4 10.4,8.144 10.4,6.6 C10.4,5.056 9.144,3.8 7.6,3.8 Z" id="Shape"></path>
                        <path d="M14,12.0008 L1.2,12.0008 C0.5384,12.0008 0,11.4624 0,10.8008 L0,2.8008 C0,2.1392 0.5384,1.6008 1.2,1.6008 L2.4,1.6008 C2.732,1.6008 3.248,1.3872 3.4832,1.152 L3.952,0.6832 C4.3416,0.2936 5.0504,0 5.6008,0 L9.6008,0 C10.1512,0 10.86,0.2936 11.2496,0.6832 L11.7184,1.152 C11.9528,1.3864 12.4696,1.6008 12.8016,1.6008 L14.0016,1.6008 C14.6632,1.6008 15.2016,2.1392 15.2016,2.8008 L15.2016,10.8008 C15.2016,11.4624 14.6632,12.0008 14.0016,12.0008 L14,12.0008 Z M1.2,2.4008 C0.9792,2.4008 0.8,2.58 0.8,2.8008 L0.8,10.8008 C0.8,11.0216 0.9792,11.2008 1.2,11.2008 L14,11.2008 C14.2208,11.2008 14.4,11.0216 14.4,10.8008 L14.4,2.8008 C14.4,2.58 14.2208,2.4008 14,2.4008 L12.8,2.4008 C12.2496,2.4008 11.5408,2.1072 11.1512,1.7176 L10.6824,1.2488 C10.448,1.0144 9.9312,0.8 9.5992,0.8 L5.5992,0.8 C5.2672,0.8 4.7512,1.0136 4.516,1.2488 L4.0472,1.7176 C3.6576,2.1072 2.9496,2.4008 2.3984,2.4008 L1.1984,2.4008 L1.2,2.4008 Z" id="Shape"></path>
                    </g>
                </g>
            </g>
        </g>
    </g>
</svg>