<?xml version="1.0" encoding="UTF-8"?>
<svg width="37px" height="34px" viewBox="0 0 37 34" version="1.1" xmlns="http://www.w3.org/2000/svg" xmlns:xlink="http://www.w3.org/1999/xlink">
    <!-- Generator: Sketch 53.2 (72643) - https://sketchapp.com -->
    <title>school</title>
    <desc>Created with Sketch.</desc>
    <g id="Page-1" stroke="none" stroke-width="1" fill="none" fill-rule="evenodd">
        <g id="MyskorelNew" transform="translate(-534.000000, -107.000000)">
            <g id="Group-7" transform="translate(534.000000, 103.000000)">
                <g id="school" transform="translate(0.000000, 4.000000)">
                    <polygon id="Path" fill="#FFA742" points="35 33 2 33 2 17.6590909 8.82765733 17.6590909 18.5 8 28.1726272 17.6590909 35 17.6590909"></polygon>
                    <rect id="Rectangle" fill="#FFC670" x="15" y="27" width="7" height="7"></rect>
                    <path d="M22.8541667,25 L16.1458333,25 C16.0652604,25 16,25.0559375 16,25.125 L16,27 L23,27 L23,25.125 C23,25.0559375 22.9347396,25 22.8541667,25 Z" id="Path" fill="#FFC670"></path>
                    <path d="M23.951291,3.5 L24.9020596,1.97171875 C25.0211336,1.78007812 25.0325087,1.53351563 24.9310807,1.33023438 C24.8296528,1.12695313 24.6320469,1 24.4167221,1 L18.5833384,1 C18.2608981,1 18,1.27953125 18,1.625 L18,5.375 C18,5.72046875 18.2608981,6 18.5833384,6 L24.4167221,6 C24.6320469,6 24.8297257,5.87304688 24.9311536,5.66976563 C25.0325816,5.46648437 25.0211336,5.21992187 24.9021326,5.02828125 L23.951291,3.5 Z" id="Path" fill="#FFA742"></path>
                    <path d="M18.5,9 C18.223625,9 18,8.73165 18,8.4 L18,0.6 C18,0.26835 18.223625,0 18.5,0 C18.776375,0 19,0.26835 19,0.6 L19,8.4 C19,8.73165 18.776375,9 18.5,9 Z" id="Path" fill="#3D3D63"></path>
                    <path d="M21.0436812,11.3323686 C21.131823,11.130982 21.3405348,11 21.5716035,11 L32.4286186,11 C32.623902,11 32.8058284,11.0940971 32.9107558,11.2492428 L36.9107087,17.1723767 C37.0228502,17.3385609 37.0295644,17.548361 36.9297085,17.720805 C36.8292811,17.8927778 36.6372833,18 36.4285715,18 L27.8572438,18 C27.7054599,18 27.5603902,17.9431918 27.4532486,17.8422293 L21.1676083,11.9190954 C21.0040388,11.7650939 20.9548965,11.5337551 21.0436812,11.3323686 Z" id="Path" fill="#3D3D63"></path>
                    <path d="M15.9563662,11.3323654 C15.8681527,11.1309135 15.6594402,11 15.4284422,11 L4.57139498,11 C4.37611099,11 4.19418402,11.0940962 4.08925637,11.2492404 L0.0892915867,17.1723173 C-0.0228502831,17.3385 -0.0295645097,17.5482981 0.070291754,17.7207404 C0.170790869,17.8927115 0.362717751,18 0.571430199,18 L9.14278331,18 C9.29456768,18 9.43963783,17.9431923 9.54677975,17.8422308 L15.8324387,11.9191538 C15.9959373,11.7650865 16.0450797,11.53375 15.9563662,11.3323654 Z" id="Path" fill="#3D3D63"></path>
                    <path d="M28.4161711,19 C28.2667978,19 28.1174246,18.94344 28.0034427,18.8302475 L18.4999635,9.39870171 L8.9965573,18.8302475 C8.7685205,19.05656 8.3990644,19.05656 8.1710276,18.8302475 C7.9429908,18.603935 7.9429908,18.2372726 8.1710276,18.0109601 L18.0872352,8.16973437 C18.315272,7.94342188 18.684728,7.94342188 18.9127648,8.16973437 L28.8289724,18.0109601 C29.0570092,18.2372726 29.0570092,18.603935 28.8289724,18.8302475 C28.7148445,18.9433676 28.5655443,19 28.4161711,19 Z" id="Path" fill="#3D3D63"></path>
                    <circle id="Oval" fill="#FFC670" cx="18.5" cy="17.5" r="3.5"></circle>
                    <path d="M19.2,15 C18.7578,15 18.4,15.3578 18.4,15.8 L18.4,17.4 L16.8,17.4 C16.3578,17.4 16,17.7578 16,18.2 C16,18.6422 16.3578,19 16.8,19 L19.2,19 C19.6422,19 20,18.6422 20,18.2 L20,15.8 C20,15.3578 19.6422,15 19.2,15 Z" id="Path" fill="#3D3D63"></path>
                    <g id="Group" transform="translate(24.000000, 19.000000)">
                        <path d="M3.41292857,1.94444444 C3.41292857,1.17736111 2.77335714,0.555555556 1.98435714,0.555555556 C1.19535714,0.555555556 0.555785714,1.17736111 0.555785714,1.94444444 C0.555785714,2.03958333 0.565857143,2.13243056 0.584571429,2.22222222 L0.555785714,2.22222222 L0.555785714,4.44444444 L3.41292857,4.44444444 L3.41292857,2.22222222 L3.38414286,2.22222222 C3.40292857,2.13243056 3.41292857,2.03958333 3.41292857,1.94444444 Z" id="Path" fill="#FFC670"></path>
                        <path d="M2,0 C0.897285714,0 0,0.872361111 0,1.94444444 L0,4.44444444 C0,4.75152778 0.255571429,5 0.571428571,5 L3.42857143,5 C3.74442857,5 4,4.75152778 4,4.44444444 L4,1.94444444 C4,0.872361111 3.10271429,0 2,0 Z M2,1.11111111 C2.47264286,1.11111111 2.85714286,1.48493056 2.85714286,1.94444444 L2.85714286,2.22222222 L1.14285714,2.22222222 L1.14285714,1.94444444 C1.14285714,1.48493056 1.52735714,1.11111111 2,1.11111111 Z M1.14285714,3.88888889 L1.14285714,3.33333333 L2.85714286,3.33333333 L2.85714286,3.88888889 L1.14285714,3.88888889 Z" id="Shape" fill="#3D3D63" fill-rule="nonzero"></path>
                    </g>
                    <g id="Group" transform="translate(9.000000, 27.000000)">
                        <rect id="Rectangle" fill="#FFC670" x="0.5715" y="0.625" width="2.85714286" height="3.75"></rect>
                        <path d="M3.42857143,0 L0.571428571,0 C0.255571429,0 0,0.27953125 0,0.625 L0,4.375 C0,4.72046875 0.255571429,5 0.571428571,5 L3.42857143,5 C3.74442857,5 4,4.72046875 4,4.375 L4,0.625 C4,0.27953125 3.74442857,0 3.42857143,0 Z M2.85714286,1.25 L2.85714286,1.875 L1.14285714,1.875 L1.14285714,1.25 L2.85714286,1.25 Z M1.14285714,3.75 L1.14285714,3.125 L2.85714286,3.125 L2.85714286,3.75 L1.14285714,3.75 Z" id="Shape" fill="#3D3D63" fill-rule="nonzero"></path>
                    </g>
                    <g id="Group" transform="translate(4.000000, 27.000000)">
                        <rect id="Rectangle" fill="#FFC670" x="0.616280702" y="0.625" width="2.80701754" height="3.75"></rect>
                        <path d="M3.42322807,0 L0.616210526,0 C0.305894737,0 0.0548070175,0.27953125 0.0548070175,0.625 L0.0548070175,4.375 C0.0548070175,4.72046875 0.305894737,5 0.616210526,5 L3.42322807,5 C3.73354386,5 3.98463158,4.72046875 3.98463158,4.375 L3.98463158,0.625 C3.98463158,0.27953125 3.73354386,0 3.42322807,0 Z M2.86182456,1.25 L2.86182456,1.875 L1.17761404,1.875 L1.17761404,1.25 L2.86182456,1.25 Z M1.17761404,3.75 L1.17761404,3.125 L2.86182456,3.125 L2.86182456,3.75 L1.17761404,3.75 Z" id="Shape" fill="#3D3D63" fill-rule="nonzero"></path>
                    </g>
                    <g id="Group" transform="translate(29.000000, 27.000000)">
                        <rect id="Rectangle" fill="#FFC670" x="0.571428571" y="0.625" width="2.85714286" height="3.75"></rect>
                        <path d="M3.42857143,0 L0.571428571,0 C0.255571429,0 0,0.27953125 0,0.625 L0,4.375 C0,4.72046875 0.255571429,5 0.571428571,5 L3.42857143,5 C3.74442857,5 4,4.72046875 4,4.375 L4,0.625 C4,0.27953125 3.74442857,0 3.42857143,0 Z M2.85714286,1.25 L2.85714286,1.875 L1.14285714,1.875 L1.14285714,1.25 L2.85714286,1.25 Z M1.14285714,3.75 L1.14285714,3.125 L2.85714286,3.125 L2.85714286,3.75 L1.14285714,3.75 Z" id="Shape" fill="#3D3D63" fill-rule="nonzero"></path>
                    </g>
                    <g id="Group" transform="translate(24.000000, 27.000000)">
                        <rect id="Rectangle" fill="#FFC670" x="0.616280702" y="0.625" width="2.80701754" height="3.75"></rect>
                        <path d="M3.42322807,0 L0.616210526,0 C0.305894737,0 0.0548070175,0.27953125 0.0548070175,0.625 L0.0548070175,4.375 C0.0548070175,4.72046875 0.305894737,5 0.616210526,5 L3.42322807,5 C3.73354386,5 3.98463158,4.72046875 3.98463158,4.375 L3.98463158,0.625 C3.98463158,0.27953125 3.73354386,0 3.42322807,0 Z M2.86182456,1.25 L2.86182456,1.875 L1.17761404,1.875 L1.17761404,1.25 L2.86182456,1.25 Z M1.17761404,3.75 L1.17761404,3.125 L2.86182456,3.125 L2.86182456,3.75 L1.17761404,3.75 Z" id="Shape" fill="#3D3D63" fill-rule="nonzero"></path>
                    </g>
                    <g id="Group" transform="translate(29.000000, 19.000000)">
                        <path d="M3.40792982,1.94444444 C3.40792982,1.17736111 2.77957895,0.555555556 2.00442105,0.555555556 C1.22926316,0.555555556 0.600912281,1.17736111 0.600912281,1.94444444 C0.600912281,2.03958333 0.610807018,2.13243056 0.629192982,2.22222222 L0.600912281,2.22222222 L0.600912281,4.44444444 L3.40792982,4.44444444 L3.40792982,2.22222222 L3.37964912,2.22222222 C3.39803509,2.13243056 3.40792982,2.03958333 3.40792982,1.94444444 Z" id="Path" fill="#FFC670"></path>
                        <path d="M2.0197193,0 C0.936350877,0 0.0548070175,0.872361111 0.0548070175,1.94444444 L0.0548070175,4.44444444 C0.0548070175,4.75152778 0.305894737,5 0.616210526,5 L3.42322807,5 C3.73354386,5 3.98463158,4.75152778 3.98463158,4.44444444 L3.98463158,1.94444444 C3.98463158,0.872361111 3.10308772,0 2.0197193,0 Z M2.0197193,1.11111111 C2.48407018,1.11111111 2.86182456,1.48493056 2.86182456,1.94444444 L2.86182456,2.22222222 L1.17761404,2.22222222 L1.17761404,1.94444444 C1.17761404,1.48493056 1.55536842,1.11111111 2.0197193,1.11111111 Z M1.17761404,3.88888889 L1.17761404,3.33333333 L2.86182456,3.33333333 L2.86182456,3.88888889 L1.17761404,3.88888889 Z" id="Shape" fill="#3D3D63" fill-rule="nonzero"></path>
                    </g>
                    <g id="Group" transform="translate(4.000000, 19.000000)">
                        <path d="M3.40792982,1.94444444 C3.40792982,1.17736111 2.77957895,0.555555556 2.00442105,0.555555556 C1.22926316,0.555555556 0.600912281,1.17736111 0.600912281,1.94444444 C0.600912281,2.03958333 0.610807018,2.13243056 0.629192982,2.22222222 L0.600912281,2.22222222 L0.600912281,4.44444444 L3.40792982,4.44444444 L3.40792982,2.22222222 L3.37964912,2.22222222 C3.39803509,2.13243056 3.40792982,2.03958333 3.40792982,1.94444444 Z" id="Path" fill="#FFC670"></path>
                        <path d="M2.0197193,0 C0.936350877,0 0.0548070175,0.872361111 0.0548070175,1.94444444 L0.0548070175,4.44444444 C0.0548070175,4.75152778 0.305894737,5 0.616210526,5 L3.42322807,5 C3.73354386,5 3.98463158,4.75152778 3.98463158,4.44444444 L3.98463158,1.94444444 C3.98463158,0.872361111 3.10308772,0 2.0197193,0 Z M2.0197193,1.11111111 C2.48407018,1.11111111 2.86182456,1.48493056 2.86182456,1.94444444 L2.86182456,2.22222222 L1.17761404,2.22222222 L1.17761404,1.94444444 C1.17761404,1.48493056 1.55536842,1.11111111 2.0197193,1.11111111 Z M1.17761404,3.88888889 L1.17761404,3.33333333 L2.86182456,3.33333333 L2.86182456,3.88888889 L1.17761404,3.88888889 Z" id="Shape" fill="#3D3D63" fill-rule="nonzero"></path>
                    </g>
                    <g id="Group" transform="translate(9.000000, 19.000000)">
                        <path d="M3.3925614,1.94444444 C3.3925614,1.17736111 2.76421053,0.555555556 1.98905263,0.555555556 C1.21389474,0.555555556 0.58554386,1.17736111 0.58554386,1.94444444 C0.58554386,2.03958333 0.595438596,2.13243056 0.613824561,2.22222222 L0.58554386,2.22222222 L0.58554386,4.44444444 L3.3925614,4.44444444 L3.3925614,2.22222222 L3.3642807,2.22222222 C3.38266667,2.13243056 3.3925614,2.03958333 3.3925614,1.94444444 Z" id="Path" fill="#FFC670"></path>
                        <path d="M2.00442105,0 C0.921052632,0 0.0395087719,0.872361111 0.0395087719,1.94444444 L0.0395087719,4.44444444 C0.0395087719,4.75152778 0.290596491,5 0.600912281,5 L3.40792982,5 C3.71824561,5 3.96933333,4.75152778 3.96933333,4.44444444 L3.96933333,1.94444444 C3.96933333,0.872361111 3.0877193,0 2.00442105,0 Z M2.00442105,1.11111111 C2.46877193,1.11111111 2.84652632,1.48493056 2.84652632,1.94444444 L2.84652632,2.22222222 L1.16231579,2.22222222 L1.16231579,1.94444444 C1.16231579,1.48493056 1.54,1.11111111 2.00442105,1.11111111 Z M1.16231579,3.88888889 L1.16231579,3.33333333 L2.84652632,3.33333333 L2.84652632,3.88888889 L1.16231579,3.88888889 Z" id="Shape" fill="#3D3D63" fill-rule="nonzero"></path>
                    </g>
                    <path d="M19,22 C16.7943571,22 15,20.2056429 15,18 C15,15.7943571 16.7943571,14 19,14 C21.2056429,14 23,15.7943571 23,18 C23,20.2056429 21.2056429,22 19,22 Z M19,15.1428571 C17.4246429,15.1428571 16.1428571,16.4245 16.1428571,18 C16.1428571,19.5755 17.4246429,20.8571429 19,20.8571429 C20.5753571,20.8571429 21.8571429,19.5755 21.8571429,18 C21.8571429,16.4245 20.5753571,15.1428571 19,15.1428571 Z" id="Shape" fill="#3D3D63" fill-rule="nonzero"></path>
                    <path d="M21.2857143,24 L16.7142857,24 C15.769,24 15,24.7476389 15,25.6666667 L15,33.4444444 C15,33.7515278 15.2555714,34 15.5714286,34 C15.8872857,34 16.1428571,33.7515278 16.1428571,33.4444444 L16.1428571,27.3333333 L18.4129286,27.3333333 L18.4129286,33.4444444 L19.5557857,33.4444444 L19.5557857,27.3333333 L21.8571429,27.3333333 L21.8571429,33.4444444 C21.8571429,33.7515278 22.1127143,34 22.4285714,34 C22.7444286,34 23,33.7515278 23,33.4444444 L23,25.6666667 C23,24.7476389 22.231,24 21.2857143,24 Z M21.8571429,26.2222222 L16.1428571,26.2222222 L16.1428571,25.6666667 C16.1428571,25.3601389 16.399,25.1111111 16.7142857,25.1111111 L21.2857143,25.1111111 C21.601,25.1111111 21.8571429,25.3601389 21.8571429,25.6666667 L21.8571429,26.2222222 Z" id="Shape" fill="#3D3D63" fill-rule="nonzero"></path>
                    <path d="M36.421875,34 L0.578125,34 C0.258566406,34 0,33.776375 0,33.5 C0,33.223625 0.258566406,33 0.578125,33 L36.421875,33 C36.7414336,33 37,33.223625 37,33.5 C37,33.776375 36.7414336,34 36.421875,34 Z" id="Path" fill="#5C546A"></path>
                </g>
            </g>
        </g>
    </g>
</svg>