<?xml version="1.0" encoding="UTF-8" standalone="no"?>
<svg width="10px" height="10px" viewBox="0 0 10 10" version="1.1" xmlns="http://www.w3.org/2000/svg" xmlns:xlink="http://www.w3.org/1999/xlink">
    <!-- Generator: Sketch 49.3 (51167) - http://www.bohemiancoding.com/sketch -->
    <title>cross</title>
    <desc>Created with Sketch.</desc>
    <defs></defs>
    <g id="Page-1" stroke="none" stroke-width="1" fill="none" fill-rule="evenodd">
        <g id="tag-Seletecd" transform="translate(-706.000000, -346.000000)" fill="#545852" fill-rule="nonzero">
            <g id="Maincontent" transform="translate(0.000000, -3.000000)">
                <g id="form-control" transform="translate(246.000000, 335.000000)">
                    <g id="Group-2" transform="translate(6.000000, 4.000000)">
                        <g id="Chip" transform="translate(318.000000, 0.000000)">
                            <g id="cross" transform="translate(136.000000, 10.000000)">
                                <path d="M5.54305604,4.9992308 L9.88596592,0.656320911 C10.0359602,0.50632668 10.0359602,0.262489904 9.88596592,0.112495673 C9.73597169,-0.0374985577 9.49213492,-0.0374985577 9.34214069,0.112495673 L4.9992308,4.45540556 L0.656320911,0.112495673 C0.50632668,-0.0374985577 0.262489904,-0.0374985577 0.112495673,0.112495673 C-0.0374985577,0.262489904 -0.0374985577,0.50632668 0.112495673,0.656320911 L4.45540556,4.9992308 L0.112495673,9.34214069 C-0.0374985577,9.49213492 -0.0374985577,9.73597169 0.112495673,9.88596592 C0.187877389,9.96134764 0.286335141,9.9982693 0.384792893,9.9982693 C0.483250644,9.9982693 0.581708396,9.96057844 0.657090112,9.88596592 L5,5.54305604 L9.34290989,9.88596592 C9.4182916,9.96134764 9.51674936,9.9982693 9.61520711,9.9982693 C9.71366486,9.9982693 9.81212261,9.96057844 9.88750433,9.88596592 C10.0374986,9.73597169 10.0374986,9.49213492 9.88750433,9.34214069 L5.54459444,4.9992308 L5.54305604,4.9992308 Z" id="Shape"></path>
                            </g>
                        </g>
                    </g>
                </g>
            </g>
        </g>
    </g>
</svg>