<?xml version="1.0" encoding="UTF-8"?>
<svg width="30px" height="42px" viewBox="0 0 30 42" version="1.1" xmlns="http://www.w3.org/2000/svg" xmlns:xlink="http://www.w3.org/1999/xlink">
    <!-- Generator: Sketch 54.1 (76490) - https://sketchapp.com -->
    <title>noun_CSV File_56841</title>
    <desc>Created with Sketch.</desc>
    <g id="Page-1" stroke="none" stroke-width="1" fill="none" fill-rule="evenodd">
        <g id="noun_CSV-File_56841" fill="#FFFFFF">
            <g id="Group">
                <path d="M24.0740816,41.6326531 L5.92591837,41.6326531 C2.71469388,41.6326531 0.102244898,39.0202041 0.102244898,35.8089796 L0.102244898,6.14265306 C0.102244898,2.93142857 2.71469388,0.318979592 5.92591837,0.318979592 L24.0746939,0.318979592 C27.2859184,0.318979592 29.8983673,2.93142857 29.8983673,6.14265306 L29.8983673,35.8089796 C29.8977551,39.0202041 27.2853061,41.6326531 24.0740816,41.6326531 Z M5.92591837,2.44469388 C3.88714286,2.44469388 2.22795918,4.10387755 2.22795918,6.14265306 L2.22795918,35.8089796 C2.22795918,37.8477551 3.88714286,39.5069388 5.92591837,39.5069388 L24.0740816,39.5069388 C26.1128571,39.5069388 27.7720408,37.8477551 27.7720408,35.8089796 L27.7726531,6.14265306 C27.7726531,4.10387755 26.1134694,2.44469388 24.0746939,2.44469388 L5.92591837,2.44469388 Z" id="Shape"></path>
                <path d="M21.8436735,16.9806122 C21.5846939,16.7216327 21.1653061,16.7216327 20.9063265,16.9806122 L15.6606122,22.2263265 L15.6606122,8.48632653 C15.6606122,8.12020408 15.3636735,7.82326531 14.997551,7.82326531 C14.6314286,7.82326531 14.3344898,8.12020408 14.3344898,8.48632653 L14.3344898,22.2269388 L9.08877551,16.9812245 C8.82979592,16.7222449 8.41040816,16.7222449 8.15142857,16.9812245 C7.89244898,17.2402041 7.89244898,17.6595918 8.15142857,17.9185714 L14.4893878,24.2565306 C14.5010204,24.2706122 14.5132653,24.2846939 14.5267347,24.2981633 C14.6559184,24.4273469 14.8255102,24.4922449 14.995102,24.4922449 C14.9957143,24.4922449 14.9963265,24.4922449 14.9969388,24.4922449 C14.997551,24.4922449 14.9981633,24.4922449 14.9987755,24.4922449 C15.1683673,24.4922449 15.3379592,24.4273469 15.4671429,24.2981633 C15.4806122,24.2846939 15.4928571,24.2706122 15.5044898,24.2565306 L21.842449,17.9185714 C22.1020408,17.6589796 22.1020408,17.2395918 21.8436735,16.9806122 Z" id="Path" transform="translate(14.997245, 16.157755) scale(1, -1) translate(-14.997245, -16.157755) "></path>
                <g transform="translate(6.122449, 30.000000)" id="Path">
                    <path d="M1.19020408,4.20795918 L1.12102041,4.20795918 C0.934897959,4.20795918 0.765918367,4.27836735 0.631836735,4.41183673 C0.498979592,4.54530612 0.429183673,4.71367347 0.429183673,4.94081633 C0.429183673,5.12693878 0.498979592,5.29591837 0.633061224,5.43 C0.765918367,5.5622449 0.934897959,5.63265306 1.12102041,5.63265306 L1.19020408,5.63265306 C1.37693878,5.63265306 1.54591837,5.5622449 1.67755102,5.42938776 C1.81102041,5.29653061 1.88142857,5.12755102 1.88142857,4.89918367 C1.88142857,4.71244898 1.81102041,4.54346939 1.67877551,4.41122449 C1.54591837,4.27836735 1.37693878,4.20795918 1.19020408,4.20795918 Z"></path>
                    <path d="M6.74326531,4.68612245 C6.74326531,4.54040816 6.69,4.40571429 6.59204082,4.29857143 C6.40714286,4.09408163 6.1022449,4.07877551 5.89530612,4.18102041 C5.72816327,4.26918367 5.5555102,4.34020408 5.38285714,4.39408163 C5.22,4.44428571 5.01673469,4.47 4.77795918,4.47 C4.27469388,4.47 3.89571429,4.32428571 3.61897959,4.02489796 C3.36244898,3.74571429 3.23816327,3.37897959 3.23816327,2.90265306 C3.23816327,2.42632653 3.36244898,2.06020408 3.61897959,1.78102041 C3.7444898,1.6444898 3.90367347,1.5355102 4.09285714,1.45714286 C4.48653061,1.29306122 5.06204082,1.31326531 5.3822449,1.41183673 C5.55612245,1.46571429 5.72816327,1.53734694 5.90204082,1.62857143 C6.09244898,1.7222449 6.4077551,1.71061224 6.58959184,1.50979592 C6.68938776,1.40081633 6.74265306,1.26734694 6.74265306,1.12346939 C6.74265306,0.998571429 6.71265306,0.887755102 6.65387755,0.794693878 C6.5944898,0.701020408 6.49346939,0.620204082 6.30367347,0.516122449 C6.15428571,0.435306122 5.95346939,0.353265306 5.69081633,0.265102041 C5.41530612,0.172040816 5.08714286,0.124897959 4.71489796,0.124897959 C3.93306122,0.124897959 3.28102041,0.377142857 2.77959184,0.873673469 C2.26102041,1.38183673 1.99897959,2.0644898 1.99897959,2.90326531 C1.99897959,3.74265306 2.26163265,4.42530612 2.77714286,4.93102041 C3.02204082,5.17653061 3.31591837,5.36510204 3.64836735,5.49306122 C3.97653061,5.61857143 4.33408163,5.68163265 4.71122449,5.68163265 C5.08530612,5.68163265 5.41408163,5.6344898 5.69020408,5.54142857 C5.95408163,5.45265306 6.20387755,5.34306122 6.42183673,5.22244898 C6.62632653,5.11959184 6.74326531,4.92428571 6.74326531,4.68612245 Z"></path>
                    <path d="M8.86897959,1.47367347 C9.05020408,1.36836735 9.29265306,1.31510204 9.59020408,1.31510204 C9.93857143,1.31510204 10.2495918,1.36285714 10.5116327,1.45530612 C10.6493878,1.5055102 10.7577551,1.52877551 10.8538776,1.52877551 C10.9610204,1.52877551 11.1177551,1.49204082 11.2530612,1.31816327 C11.3430612,1.20306122 11.3908163,1.07020408 11.3908163,0.933673469 C11.3908163,0.665510204 11.2469388,0.459795918 10.9965306,0.370408163 C10.5508163,0.20755102 10.054898,0.124897959 9.52163265,0.124897959 C8.89469388,0.124897959 8.38102041,0.290816327 7.99469388,0.617755102 C7.62183673,0.934285714 7.43204082,1.34632653 7.43204082,1.84285714 C7.43204082,2.31857143 7.6255102,2.70673469 8.01122449,2.99877551 C8.1722449,3.11632653 8.35653061,3.21367347 8.55979592,3.28714286 C8.74346939,3.35387755 8.93020408,3.41387755 9.11877551,3.46653061 C9.30306122,3.51795918 9.4855102,3.56571429 9.66489796,3.60979592 C9.82591837,3.64959184 9.96612245,3.69367347 10.0818367,3.74142857 C10.2079592,3.79653061 10.3585714,3.88408163 10.3585714,3.99122449 C10.3585714,4.13632653 10.3585714,4.47673469 9.45979592,4.47673469 C9.18857143,4.47673469 8.95102041,4.45040816 8.75326531,4.3977551 C8.55,4.34387755 8.40306122,4.29857143 8.31306122,4.25877551 C7.98,4.11061224 7.71979592,4.14612245 7.53673469,4.35612245 C7.43632653,4.46938776 7.38367347,4.60591837 7.38367347,4.75163265 C7.38367347,4.88938776 7.42591837,5.01673469 7.5055102,5.12081633 C7.57530612,5.21142857 7.65979592,5.27938776 7.76142857,5.32530612 C8.30693878,5.56102041 8.89897959,5.68102041 9.52163265,5.68102041 C10.1210204,5.68102041 10.617551,5.5322449 10.9971429,5.23714286 C11.3908163,4.92918367 11.5904082,4.52387755 11.5904082,4.0322449 C11.5904082,3.51734694 11.395102,3.11387755 11.0106122,2.83469388 C10.8489796,2.71714286 10.6659184,2.62040816 10.4638776,2.54877551 C10.2802041,2.48387755 10.0916327,2.42693878 9.89816327,2.37857143 C9.71326531,2.33265306 9.53326531,2.28857143 9.35816327,2.24755102 C9.20326531,2.21081633 9.0655102,2.16428571 8.94183673,2.10673469 C8.67061224,1.98795918 8.67061224,1.85755102 8.67061224,1.79510204 C8.67061224,1.65122449 8.73061224,1.55510204 8.86897959,1.47367347 Z"></path>
                    <path d="M16.4234694,0.158571429 C16.1828571,0.158571429 15.9832653,0.304897959 15.874898,0.564489796 L14.5408163,3.89142857 L13.2042857,0.560204082 C13.0971429,0.305510204 12.8785714,0.159183673 12.604898,0.159183673 C12.4365306,0.159183673 12.2865306,0.224081633 12.1732653,0.347755102 C12.0661224,0.463469388 12.0097959,0.60244898 12.0097959,0.74755102 C12.0097959,0.861428571 12.0238776,0.947755102 12.0532653,1.01571429 L13.7583673,5.15081633 C13.954898,5.58244898 14.284898,5.64673469 14.4636735,5.64673469 L14.614898,5.64673469 C14.7936735,5.64673469 15.1236735,5.58244898 15.3244898,5.14040816 L17.0234694,1.02 C17.0553061,0.947142857 17.0693878,0.860816327 17.0693878,0.748163265 C17.0693878,0.646530612 17.0406122,0.495306122 16.9053061,0.348367347 C16.827551,0.261428571 16.68,0.158571429 16.4234694,0.158571429 Z"></path>
                </g>
            </g>
        </g>
    </g>
</svg>