<?xml version="1.0" encoding="UTF-8"?>
<svg width="17px" height="17px" viewBox="0 0 17 17" version="1.1" xmlns="http://www.w3.org/2000/svg" xmlns:xlink="http://www.w3.org/1999/xlink">
    <!-- Generator: Sketch 50.2 (55047) - http://www.bohemiancoding.com/sketch -->
    <title>download (1)</title>
    <desc>Created with Sketch.</desc>
    <defs></defs>
    <g id="Symbols" stroke="none" stroke-width="1" fill="none" fill-rule="evenodd">
        <g id="Research" transform="translate(-228.000000, -6.000000)" fill-rule="nonzero">
            <g id="Answer-section">
                <g id="Group-4" transform="translate(229.333333, 6.000000)">
                    <g id="download-(1)" transform="translate(0.000000, 1.000000)">
                        <path d="M7.373,14.7456667 C3.30766667,14.7456667 0,11.4383333 0,7.373 C0,3.30766667 3.30766667,0.000333333333 7.373,0.000333333333 C11.438,0.000333333333 14.746,3.30766667 14.746,7.373 C14.746,11.4383333 11.438,14.7456667 7.373,14.7456667 Z" id="Shape" stroke="#3D3D63" fill="#FFE3BA"></path>
                        <path d="M7.373,8.443 C7.235,8.443 7.123,8.331 7.123,8.193 L7.123,4.31733333 C7.123,4.17933333 7.235,4.06733333 7.373,4.06733333 C7.511,4.06733333 7.623,4.17933333 7.623,4.31733333 L7.623,8.193 C7.623,8.331 7.511,8.443 7.373,8.443 Z" id="Shape" fill="#3D3D63"></path>
                        <path d="M10.478,10.055 L4.26833333,10.055 C4.13033333,10.055 4.01833333,9.943 4.01833333,9.805 C4.01833333,9.667 4.13033333,9.555 4.26833333,9.555 L10.4776667,9.555 C10.6156667,9.555 10.7276667,9.667 10.7276667,9.805 C10.7276667,9.943 10.616,10.055 10.478,10.055 Z" id="Shape" fill="#3D3D63"></path>
                        <path d="M7.373,8.443 C7.30933333,8.443 7.245,8.41866667 7.19666667,8.37 L6.08533333,7.26133333 C5.98733333,7.16366667 5.98733333,7.00533333 6.08466667,6.90766667 C6.182,6.80966667 6.341,6.80966667 6.43833333,6.907 L7.54966667,8.01566667 C7.64766667,8.11333333 7.64766667,8.272 7.55033333,8.36966667 C7.50133333,8.41866667 7.43733333,8.443 7.373,8.443 Z" id="Shape" fill="#3D3D63"></path>
                        <path d="M7.373,8.443 C7.309,8.443 7.24466667,8.41866667 7.196,8.36933333 C7.09866667,8.27166667 7.09866667,8.113 7.19666667,8.01533333 L8.308,6.90666667 C8.40533333,6.80933333 8.56466667,6.80933333 8.66166667,6.90733333 C8.75933333,7.005 8.75933333,7.16333333 8.661,7.261 L7.55,8.36966667 C7.501,8.41866667 7.437,8.443 7.373,8.443 Z" id="Shape" fill="#3D3D63"></path>
                    </g>
                </g>
            </g>
        </g>
    </g>
</svg>