<?xml version="1.0" encoding="UTF-8" standalone="no"?>
<svg width="20px" height="12px" viewBox="0 0 20 12" version="1.1" xmlns="http://www.w3.org/2000/svg" xmlns:xlink="http://www.w3.org/1999/xlink">
    <!-- Generator: Sketch 49.3 (51167) - http://www.bohemiancoding.com/sketch -->
    <title>Group 9</title>
    <desc>Created with Sketch.</desc>
    <defs></defs>
    <g id="Page-1" stroke="none" stroke-width="1" fill="none" fill-rule="evenodd">
        <g id="Journal-Detail" transform="translate(-1015.000000, -83.000000)" fill="#00B6BC" fill-rule="nonzero">
            <g id="Group-4" transform="translate(0.000000, -3.000000)">
                <g id="cloud-download-copy-2" transform="translate(1014.000000, 84.000000)">
                    <g id="Group-9" transform="translate(0.000000, 2.000000)">
                        <path d="M17.006,12 L14.5,12 C14.224,12 14,11.776 14,11.5 C14,11.224 14.224,11 14.5,11 L17.006,11 C18.657,11 20,9.657 20,8.006 C20,6.355 18.657,5.012 17.006,5.012 C16.654,5.012 16.31,5.072 15.983,5.191 C15.765,5.27 15.521,5.189 15.394,4.995 C15.267,4.801 15.29,4.545 15.45,4.377 C15.805,4.004 16,3.515 16,3 C16,1.897 15.103,1 14,1 C13.358,1 12.771,1.297 12.39,1.814 C12.161,2.124 12.028,2.491 12.004,2.875 C11.991,3.087 11.845,3.268 11.64,3.326 C11.435,3.384 11.217,3.305 11.095,3.131 L11.09,3.124 C10.983,2.972 10.864,2.822 10.739,2.682 C9.79,1.614 8.427,1.001 6.999,1.001 C4.242,1.001 1.999,3.244 1.999,6.001 C1.999,8.758 4.242,11.001 6.999,11.001 L8.499,11.001 C8.775,11.001 8.999,11.225 8.999,11.501 C8.999,11.777 8.775,12.001 8.499,12.001 L6.999,12.001 C3.691,12.001 0.999,9.309 0.999,6.001 C0.999,2.693 3.691,0.001 6.999,0.001 C8.602,0.001 10.136,0.644 11.26,1.776 C11.347,1.581 11.456,1.395 11.584,1.221 C12.148,0.457 13.051,0.001 13.999,0.001 C15.653,0.001 16.999,1.347 16.999,3.001 C16.999,3.352 16.938,3.695 16.823,4.018 C16.884,4.015 16.945,4.014 17.006,4.014 C19.208,4.014 21,5.806 21,8.008 C21,10.21 19.208,12.002 17.006,12.002 L17.006,12 Z" id="Shape"></path>
                        <path d="M13.854,9.146 C13.659,8.951 13.342,8.951 13.147,9.146 L12.001,10.292 L12.001,6.499 C12.001,6.223 11.777,5.999 11.501,5.999 C11.225,5.999 11.001,6.223 11.001,6.499 L11.001,10.292 L9.855,9.146 C9.66,8.951 9.343,8.951 9.148,9.146 C8.953,9.341 8.953,9.658 9.148,9.853 L11.148,11.853 C11.246,11.951 11.374,11.999 11.502,11.999 C11.63,11.999 11.758,11.95 11.856,11.853 L13.856,9.853 C14.051,9.658 14.051,9.341 13.856,9.146 L13.854,9.146 Z" id="Shape"></path>
                    </g>
                </g>
            </g>
        </g>
    </g>
</svg>