<?xml version="1.0" encoding="UTF-8"?>
<svg width="16px" height="16px" viewBox="0 0 16 16" version="1.1" xmlns="http://www.w3.org/2000/svg" xmlns:xlink="http://www.w3.org/1999/xlink">
    <!-- Generator: Sketch 50.2 (55047) - http://www.bohemiancoding.com/sketch -->
    <title>pencil (2)</title>
    <desc>Created with Sketch.</desc>
    <defs>
        <linearGradient x1="20.599258%" y1="40.6924877%" x2="79.7024688%" y2="68.2415551%" id="linearGradient-1">
            <stop stop-color="#FFFFFF" stop-opacity="0.2" offset="0%"></stop>
            <stop stop-color="#FFFFFF" stop-opacity="0" offset="100%"></stop>
        </linearGradient>
    </defs>
    <g id="Page-1" stroke="none" stroke-width="1" fill="none" fill-rule="evenodd">
        <g id="🔸Mobile-right-section-option" transform="translate(-95.000000, -259.000000)" fill-rule="nonzero">
            <g id="pencil-(2)" transform="translate(95.000000, 259.000000)">
                <path d="M15.5518638,2.59295319 L13.3731404,0.412391489 C12.8242043,-0.137021277 11.8692426,-0.138076596 11.3181617,0.413446809 L1.55788936,10.2700255 C1.51462128,10.3136681 1.48340426,10.3672851 1.46638298,10.4261787 L0.0139234043,15.5141787 C-0.0222297872,15.6408851 0.0132085106,15.7775319 0.106485106,15.8708766 C0.175625532,15.9400851 0.268187234,15.9773617 0.363234043,15.9773617 C0.396561702,15.9773617 0.43026383,15.9727319 0.462876596,15.9635064 L5.54655319,14.5097872 C5.60541277,14.492766 5.6589617,14.4615149 5.70257021,14.4182128 L15.5518638,4.64857872 C15.8263489,4.37388936 15.9773957,4.00902128 15.9773957,3.62076596 C15.9773957,3.23251064 15.8263489,2.86764255 15.5518638,2.59295319 Z" id="Shape" fill="#3D3D63"></path>
                <g id="Group" transform="translate(2.655319, 3.029787)" fill="#FFE3BA">
                    <path d="M1.43635745,8.34035745 L0.935523404,7.33834894 C0.873804255,7.21528511 0.748289362,7.13763404 0.610689362,7.13763404 L0.0291744681,7.13763404 L7.07829787,0.0250893617 L8.41494468,1.36173617 L1.43635745,8.34035745 Z" id="Shape"></path>
                    <path d="M2.95182979,9.35465532 L1.94982128,8.85382128 L8.92840851,1.87523404 L10.2650553,3.21188085 L3.15254468,10.2610043 L3.15254468,9.67948936 C3.15254468,9.54188936 3.07485957,9.41637447 2.95182979,9.35465532 Z" id="Shape"></path>
                </g>
                <path d="M11.8305362,0.93906383 C12.1050213,0.664578723 12.5830128,0.664578723 12.8574979,0.93906383 L15.0362213,3.11778723 C15.1734468,3.25501277 15.2489872,3.4372766 15.2489872,3.63125106 C15.2489872,3.82522553 15.1734468,4.00748936 15.0372766,4.14365957 L13.4361532,5.73048511 L10.244766,2.53909787 L11.8305362,0.93906383 Z" id="Shape" fill="#F6716F"></path>
                <path d="M3.832,12.309583 C3.79690213,12.292017 3.68714894,12.1822638 3.66958298,12.147166 L3.04371064,10.8953872 L2.08946383,10.8953872 L1.28125957,13.7245617 L2.29412766,14.6866723 L5.08381277,13.8897362 L5.08381277,12.9354894 L3.832,12.309583 Z" id="Shape" fill="#EFF5F6"></path>
                <polygon id="Shape" fill="#373A36" points="2.29409362 14.6866723 1.28125957 13.7245617 1.36493617 13.4315234 0.891948936 15.0872511 2.54764255 14.6142298"></polygon>
                <path d="M5.08377872,12.9354894 L3.832,12.309617 C3.79690213,12.2920511 3.77824681,12.2558638 3.75080851,12.2284255 L0.891948936,15.0872851 L5.08377872,13.8897702 L5.08377872,12.9354894 Z" id="Shape" fill="#708487" opacity="0.1"></path>
                <path d="M13.9490383,2.0301617 L11.8426553,4.13654468 L13.438366,5.73225532 L15.0394894,4.14542979 C15.1756596,4.00925957 15.2512,3.82699574 15.2512,3.63302128 C15.2512,3.43904681 15.1756596,3.25678298 15.038434,3.11955745 L13.9490383,2.0301617 Z" id="Shape" fill="#000000" opacity="0.1"></path>
                <path d="M5.60932766,12.3861787 L4.60731915,11.8853447 L11.5859064,4.90675745 L12.9225532,6.24340426 L5.81004255,13.2925277 L5.81004255,12.7110128 C5.81004255,12.5734128 5.73235745,12.4478979 5.60932766,12.3861787 Z" id="Shape" fill="#000000" opacity="0.1"></path>
                <path d="M15.5518638,2.59295319 L13.3731404,0.412391489 C12.8242043,-0.137021277 11.8692426,-0.138076596 11.3181617,0.413446809 L1.55788936,10.2700255 C1.51462128,10.3136681 1.48340426,10.3672851 1.46638298,10.4261787 L0.0139234043,15.5141787 C-0.0222297872,15.6408851 0.0132085106,15.7775319 0.106485106,15.8708766 C0.175625532,15.9400851 0.268187234,15.9773617 0.363234043,15.9773617 C0.396561702,15.9773617 0.43026383,15.9727319 0.462876596,15.9635064 L5.54655319,14.5097872 C5.60541277,14.492766 5.6589617,14.4615149 5.70257021,14.4182128 L15.5518638,4.64857872 C15.8263489,4.37388936 15.9773957,4.00902128 15.9773957,3.62076596 C15.9773957,3.23251064 15.8263489,2.86764255 15.5518638,2.59295319 Z" id="Shape" fill="url(#linearGradient-1)"></path>
            </g>
        </g>
    </g>
</svg>