<?xml version="1.0" encoding="UTF-8"?>
<svg width="17px" height="17px" viewBox="0 0 17 17" version="1.1" xmlns="http://www.w3.org/2000/svg" xmlns:xlink="http://www.w3.org/1999/xlink">
    <!-- Generator: Sketch 50.2 (55047) - http://www.bohemiancoding.com/sketch -->
    <title>pencil</title>
    <desc>Created with Sketch.</desc>
    <defs></defs>
    <g id="Symbols" stroke="none" stroke-width="1" fill="none" fill-rule="evenodd">
        <g id="Answer-section" transform="translate(-163.000000, -6.000000)" fill-rule="nonzero">
            <g id="Group-4">
                <g transform="translate(164.000000, 6.000000)">
                    <g id="pencil" transform="translate(0.000000, 1.000000)">
                        <path d="M3.31,14.8663636 C3.27318182,14.8663636 3.23590909,14.8572727 3.20227273,14.8390909 C3.12863636,14.7995455 3.08272727,14.7222727 3.08272727,14.6390909 L3.08272727,11.4009091 C1.09318182,10.3663636 0,8.555 0,6.28545455 C0,2.77818182 3.22409091,0.133636364 7.5,0.133636364 C11.7759091,0.133636364 15,2.77818182 15,6.28545455 C15,9.79227273 11.7759091,12.4368182 7.5,12.4368182 C7.35954545,12.4368182 7.22181818,12.4290909 7.08363636,12.4218182 L7.07454545,12.4213636 L3.435,14.8286364 C3.39727273,14.8536364 3.35363636,14.8663636 3.31,14.8663636 Z" id="Shape" stroke="#3D3D63" fill="#FFE3BA"></path>
                        <g id="Group" transform="translate(4.545455, 3.181818)" fill="#3D3D63">
                            <path d="M0.535909091,5.59318182 C0.476363636,5.59318182 0.418181818,5.56954545 0.375,5.52681818 C0.321818182,5.47409091 0.298636364,5.39818182 0.312272727,5.32454545 C0.625909091,3.64909091 0.744090909,3.53045455 0.795,3.47954545 L3.81772727,0.457272727 C3.91727273,0.356818182 4.05045455,0.301363636 4.19227273,0.301363636 C4.19227273,0.301363636 4.19272727,0.301363636 4.19272727,0.301363636 C4.33454545,0.301363636 4.46772727,0.356818182 4.56818182,0.457272727 L5.44545455,1.33409091 C5.65136364,1.54181818 5.65136364,1.87818182 5.44590909,2.08454545 L2.42272727,5.10727273 C2.37227273,5.15727273 2.25454545,5.27545455 0.577727273,5.58954545 C0.563636364,5.59181818 0.549545455,5.59318182 0.535909091,5.59318182 Z M1.13272727,3.78409091 C1.07227273,3.91454545 0.938636364,4.49727273 0.822727273,5.07909091 C1.42227273,4.95954545 2.02363636,4.82136364 2.12863636,4.76409091 L5.12409091,1.76318182 C5.15409091,1.73318182 5.15363636,1.685 5.12363636,1.65409091 L4.24681818,0.778181818 C4.22818182,0.759545455 4.20727273,0.755454545 4.19272727,0.755454545 C4.17863636,0.755454545 4.15772727,0.759545455 4.13954545,0.777727273 L1.13272727,3.78409091 Z" id="Shape"></path>
                            <path d="M2.26181818,5.17363636 C2.20363636,5.17363636 2.14545455,5.15136364 2.10090909,5.10727273 L0.794545455,3.80090909 C0.705909091,3.71227273 0.705909091,3.56818182 0.794545455,3.47954545 C0.883181818,3.39090909 1.02727273,3.39090909 1.11590909,3.47954545 L2.42227273,4.78590909 C2.51090909,4.87454545 2.51090909,5.01863636 2.42227273,5.10727273 C2.37818182,5.15136364 2.32,5.17363636 2.26181818,5.17363636 Z" id="Shape"></path>
                        </g>
                    </g>
                </g>
            </g>
        </g>
    </g>
</svg>