<?xml version="1.0" encoding="UTF-8"?>
<svg width="16px" height="12px" viewBox="0 0 16 12" version="1.1" xmlns="http://www.w3.org/2000/svg" xmlns:xlink="http://www.w3.org/1999/xlink">
    <!-- Generator: Sketch 50.2 (55047) - http://www.bohemiancoding.com/sketch -->
    <title>if_32_icons_2191555</title>
    <desc>Created with Sketch.</desc>
    <defs></defs>
    <g id="Symbols" stroke="none" stroke-width="1" fill="none" fill-rule="evenodd">
        <g id="Blog-com" transform="translate(-321.000000, -9.000000)">
            <g id="Answer-section">
                <g id="Group-3" transform="translate(321.000000, 6.000000)">
                    <g id="if_32_icons_2191555" transform="translate(0.000000, 3.000000)">
                        <path d="M7.94008749,10.5911059 C10.1236116,10.5911059 11.9969759,9.59622196 13.5105551,8.03463203 C14.1556872,7.36717828 14.9000704,6.42266824 15.334294,5.55371901 C14.887664,4.69736324 14.1556872,3.74025974 13.5105551,3.07280598 C11.9969759,1.52380952 10.1236116,0.52892562 7.94008749,0.52892562 C5.75656343,0.52892562 3.88319904,1.52380952 2.36961986,3.08539945 C1.72448775,3.75285321 0.98010455,4.69736324 0.545881015,5.55371901 C0.992510936,6.41007477 1.72448775,7.36717828 2.36961986,8.03463203 C3.88319904,9.58362849 5.75656343,10.5911059 7.94008749,10.5911059 Z M7.94008749,11.107438 C5.62009318,11.107438 3.61025853,10.0495868 2.00983465,8.39984258 C1.29026422,7.65682802 0.483849081,6.61157025 0.0248127734,5.66706021 C0.0124063867,5.62927981 0,5.59149941 0,5.55371901 C0,5.51593861 0.0124063867,5.47815821 0.0248127734,5.4403778 C0.483849081,4.49586777 1.29026422,3.45061 1.99742826,2.7201889 C3.61025853,1.05785124 5.62009318,0 7.94008749,0 C10.2600818,0 12.2699165,1.05785124 13.8703403,2.70759543 C14.5899108,3.43801653 15.3963259,4.49586777 15.8429558,5.42778434 C15.8553622,5.46556474 15.8677686,5.50334514 15.8677686,5.54112554 C15.8677686,5.57890594 15.8553622,5.61668634 15.8429558,5.65446675 C15.3839195,6.59897678 14.5775044,7.64423455 13.8703403,8.37465565 C12.2699165,10.0495868 10.2600818,11.107438 7.94008749,11.107438 Z M7.94008749,0.96969697 C10.4337712,0.96969697 12.4560123,3.02243211 12.4560123,5.55371901 C12.4560123,8.0850059 10.4337712,10.137741 7.94008749,10.137741 C5.44640376,10.137741 3.42416273,8.0850059 3.42416273,5.55371901 C3.42416273,3.02243211 5.44640376,0.96969697 7.94008749,0.96969697 Z M7.94008749,1.48602912 C10.1484243,1.48602912 11.9473504,3.31208186 11.9473504,5.55371901 C11.9473504,7.79535616 10.1484243,9.62140889 7.94008749,9.62140889 C5.73175066,9.62140889 3.93282459,7.79535616 3.93282459,5.55371901 C3.93282459,3.31208186 5.73175066,1.48602912 7.94008749,1.48602912 Z M5.79378259,5.55371901 L5.28512074,5.55371901 C5.28512074,4.08028335 6.47613386,2.85871704 7.94008749,2.85871704 L7.94008749,3.38764266 C6.74907437,3.37504919 5.79378259,4.34474616 5.79378259,5.55371901 Z M7.94008749,3.80322708 C8.89537927,3.80322708 9.66457524,4.58402204 9.66457524,5.55371901 C9.66457524,6.52341598 8.89537927,7.30421094 7.94008749,7.30421094 C6.98479571,7.30421094 6.21559974,6.52341598 6.21559974,5.55371901 C6.21559974,4.59661551 6.98479571,3.80322708 7.94008749,3.80322708 Z" id="XMLID_16_" fill="#3D3D63" fill-rule="nonzero"></path>
                        <path d="M7.9338843,1.58677686 C10.120001,1.58677686 11.9008264,3.36760228 11.9008264,5.55371901 C11.9008264,7.73983573 10.120001,9.52066116 7.9338843,9.52066116 C5.74776757,9.52066116 3.96694215,7.73983573 3.96694215,5.55371901 C3.96694215,3.36760228 5.74776757,1.58677686 7.9338843,1.58677686 Z M7.9338843,3.84658291 C6.98820459,3.84658291 6.2267482,4.6080393 6.2267482,5.55371901 C6.2267482,6.49939872 6.98820459,7.2608551 7.9338843,7.2608551 C8.879564,7.2608551 9.64102039,6.49939872 9.64102039,5.55371901 C9.64102039,4.62032086 8.879564,3.84658291 7.9338843,3.84658291 Z M5.80917534,5.55371901 C5.80917534,4.38697132 6.75485505,3.44129161 7.9338843,3.44129161 L7.9338843,2.92546632 C6.48466085,2.92546632 5.3056316,4.10449556 5.3056316,5.55371901 L5.80917534,5.55371901 Z" id="XMLID_12_" fill="#FFE3BA"></path>
                    </g>
                </g>
            </g>
        </g>
    </g>
</svg>