<?xml version="1.0" encoding="UTF-8"?>
<svg width="9px" height="11px" viewBox="0 0 9 11" version="1.1" xmlns="http://www.w3.org/2000/svg" xmlns:xlink="http://www.w3.org/1999/xlink">
    <!-- Generator: Sketch 50.2 (55047) - http://www.bohemiancoding.com/sketch -->
    <title>file (1)</title>
    <desc>Created with Sketch.</desc>
    <defs></defs>
    <g id="Page-1" stroke="none" stroke-width="1" fill="none" fill-rule="evenodd">
        <g id="Research-mob" transform="translate(-32.000000, -166.000000)" fill="#00B6BC" fill-rule="nonzero">
            <g id="Group-2" transform="translate(15.000000, 147.000000)">
                <g id="Research-Card">
                    <g id="Group" transform="translate(12.000000, 15.000000)">
                        <g id="file-(1)" transform="translate(5.000000, 4.000000)">
                            <path d="M6.69166667,4.03333333 L2.10833333,4.03333333 C2.00713333,4.03333333 1.925,4.14508333 1.925,4.28333333 C1.925,4.42158333 2.00713333,4.53333333 2.10833333,4.53333333 L6.69166667,4.53333333 C6.79286667,4.53333333 6.875,4.42158333 6.875,4.28333333 C6.875,4.14508333 6.79286667,4.03333333 6.69166667,4.03333333 Z" id="Shape"></path>
                            <path d="M2.10833333,3.06666667 L3.94166667,3.06666667 C4.04286667,3.06666667 4.125,2.95491667 4.125,2.81666667 C4.125,2.67841667 4.04286667,2.56666667 3.94166667,2.56666667 L2.10833333,2.56666667 C2.00713333,2.56666667 1.925,2.67841667 1.925,2.81666667 C1.925,2.95491667 2.00713333,3.06666667 2.10833333,3.06666667 Z" id="Shape"></path>
                            <path d="M6.69166667,5.5 L2.10833333,5.5 C2.00713333,5.5 1.925,5.61175 1.925,5.75 C1.925,5.88825 2.00713333,6 2.10833333,6 L6.69166667,6 C6.79286667,6 6.875,5.88825 6.875,5.75 C6.875,5.61175 6.79286667,5.5 6.69166667,5.5 Z" id="Shape"></path>
                            <path d="M6.69166667,6.96666667 L2.10833333,6.96666667 C2.00713333,6.96666667 1.925,7.07841667 1.925,7.21666667 C1.925,7.35491667 2.00713333,7.46666667 2.10833333,7.46666667 L6.69166667,7.46666667 C6.79286667,7.46666667 6.875,7.35491667 6.875,7.21666667 C6.875,7.07841667 6.79286667,6.96666667 6.69166667,6.96666667 Z" id="Shape"></path>
                            <path d="M6.69166667,8.43333333 L2.10833333,8.43333333 C2.00713333,8.43333333 1.925,8.54508333 1.925,8.68333333 C1.925,8.82158333 2.00713333,8.93333333 2.10833333,8.93333333 L6.69166667,8.93333333 C6.79286667,8.93333333 6.875,8.82158333 6.875,8.68333333 C6.875,8.54508333 6.79286667,8.43333333 6.69166667,8.43333333 Z" id="Shape"></path>
                            <path d="M6.03423333,0 L0.0916666667,0 L0.0916666667,11 L8.70833333,11 L8.70833333,2.6741 L6.03423333,0 Z M6.14166667,0.6259 L8.08243333,2.56666667 L6.14166667,2.56666667 L6.14166667,0.6259 Z M0.458333333,10.6333333 L0.458333333,0.366666667 L5.775,0.366666667 L5.775,2.93333333 L8.34166667,2.93333333 L8.34166667,10.6333333 L0.458333333,10.6333333 Z" id="Shape"></path>
                        </g>
                    </g>
                </g>
            </g>
        </g>
    </g>
</svg>