<?xml version="1.0" encoding="UTF-8"?>
<svg width="14px" height="14px" viewBox="0 0 14 14" version="1.1" xmlns="http://www.w3.org/2000/svg" xmlns:xlink="http://www.w3.org/1999/xlink">
    <!-- Generator: Sketch 50.2 (55047) - http://www.bohemiancoding.com/sketch -->
    <title>Group 15</title>
    <desc>Created with Sketch.</desc>
    <defs></defs>
    <g id="Page-1" stroke="none" stroke-width="1" fill="none" fill-rule="evenodd">
        <g id="Group-15" fill-rule="nonzero" stroke="#00B6BC">
            <path d="M13.465586,0.582886769 C13.4333479,0.510016045 13.4168661,0.50003843 13.3400907,0.5 L0.644904597,0.5 C0.567000411,0.5 0.551286737,0.510388807 0.52156656,0.57833773 C0.487846352,0.659677045 0.48966175,0.668754375 0.552155197,0.727568137 L5.58842817,5.76369799 L5.58842817,10.7910819 C5.58842817,10.8293097 5.5977204,10.8513178 5.63040352,10.8840646 L8.17850312,13.4323385 C8.20259134,13.4577264 8.21992147,13.4650521 8.2622247,13.4650521 C8.27737209,13.4650521 8.29972119,13.4605673 8.3102448,13.4570499 C8.38677303,13.4236809 8.39708822,13.4080852 8.39708822,13.3301886 L8.39708822,5.76373793 L8.54353357,5.61729154 L13.4453255,0.715868298 C13.4947418,0.669682801 13.4974023,0.660183672 13.465586,0.58288677 Z" id="Shape-Copy-2"></path>
        </g>
    </g>
</svg>