<?xml version="1.0" encoding="UTF-8"?>
<svg width="14px" height="14px" viewBox="0 0 14 14" version="1.1" xmlns="http://www.w3.org/2000/svg" xmlns:xlink="http://www.w3.org/1999/xlink">
    <!-- Generator: Sketch 50.2 (55047) - http://www.bohemiancoding.com/sketch -->
    <title>filter-tool-black-shape</title>
    <desc>Created with Sketch.</desc>
    <defs></defs>
    <g id="Page-1" stroke="none" stroke-width="1" fill="none" fill-rule="evenodd">
        <g id="filter-tool-black-shape" fill="#00B6BC" fill-rule="nonzero">
            <path d="M13.9255895,0.386858561 C13.8129989,0.129057072 13.6181453,0.000138957816 13.3400907,0 L0.644904597,0 C0.36723214,0 0.172100626,0.129057072 0.0596837528,0.386858561 C-0.0526636417,0.657861042 -0.00642542831,0.889434243 0.19860683,1.08112655 L5.08842817,5.97080893 L5.08842817,10.7910819 C5.08842817,10.9632159 5.15127184,11.1117965 5.27685497,11.2376228 L7.81578797,13.7764864 C7.93490956,13.9020347 8.08362916,13.9650521 8.2622247,13.9650521 C8.34150013,13.9650521 8.42411055,13.9484119 8.5100907,13.9153747 C8.76806589,13.8028883 8.89708822,13.6078958 8.89708822,13.3301886 L8.89708822,5.97084367 L13.7867359,1.08116129 C13.9918376,0.889468983 14.0379716,0.657965261 13.9255895,0.386858561 Z" id="Shape"></path>
        </g>
    </g>
</svg>