<?xml version="1.0" encoding="UTF-8"?>
<svg width="14px" height="18px" viewBox="0 0 14 18" version="1.1" xmlns="http://www.w3.org/2000/svg" xmlns:xlink="http://www.w3.org/1999/xlink">
    <!-- Generator: Sketch 50.2 (55047) - http://www.bohemiancoding.com/sketch -->
    <title>lock</title>
    <desc>Created with Sketch.</desc>
    <defs></defs>
    <g id="Page-1" stroke="none" stroke-width="1" fill="none" fill-rule="evenodd">
        <g id="Signup" transform="translate(-377.000000, -552.000000)" fill="#777777" fill-rule="nonzero">
            <g id="Group-5" transform="translate(212.000000, 157.000000)">
                <g id="Group-7" transform="translate(151.000000, 77.000000)">
                    <g id="Username-or-email-Copy" transform="translate(0.000000, 310.000000)">
                        <g id="lock" transform="translate(14.000000, 8.000000)">
                            <path d="M12.1764706,6.35294118 L11.6470588,6.35294118 L11.6470588,4.76470588 C11.6470588,2.13776471 9.50929412,0 6.88235294,0 C4.25541176,0 2.11764706,2.13776471 2.11764706,4.76470588 L2.11764706,6.35294118 L1.58823529,6.35294118 C0.712588235,6.35294118 0,7.06552941 0,7.94117647 L0,16.4117647 C0,17.2874118 0.712588235,18 1.58823529,18 L12.1764706,18 C13.0521176,18 13.7647059,17.2874118 13.7647059,16.4117647 L13.7647059,7.94117647 C13.7647059,7.06552941 13.0521176,6.35294118 12.1764706,6.35294118 Z M3.17647059,4.76470588 C3.17647059,2.72117647 4.83882353,1.05882353 6.88235294,1.05882353 C8.92588235,1.05882353 10.5882353,2.72117647 10.5882353,4.76470588 L10.5882353,6.35294118 L3.17647059,6.35294118 L3.17647059,4.76470588 Z M12.7058824,16.4117647 C12.7058824,16.704 12.4687059,16.9411765 12.1764706,16.9411765 L1.58823529,16.9411765 C1.296,16.9411765 1.05882353,16.704 1.05882353,16.4117647 L1.05882353,7.94117647 C1.05882353,7.64894118 1.296,7.41176471 1.58823529,7.41176471 L12.1764706,7.41176471 C12.4687059,7.41176471 12.7058824,7.64894118 12.7058824,7.94117647 L12.7058824,16.4117647 Z" id="Shape"></path>
                        </g>
                    </g>
                </g>
            </g>
        </g>
    </g>
</svg>