<?xml version="1.0" encoding="UTF-8"?>
<svg width="16px" height="11px" viewBox="0 0 16 11" version="1.1" xmlns="http://www.w3.org/2000/svg" xmlns:xlink="http://www.w3.org/1999/xlink">
    <!-- Generator: Sketch 50.2 (55047) - http://www.bohemiancoding.com/sketch -->
    <title>envelope</title>
    <desc>Created with Sketch.</desc>
    <defs></defs>
    <g id="Page-1" stroke="none" stroke-width="1" fill="none" fill-rule="evenodd">
        <g id="Signup" transform="translate(-376.000000, -503.000000)" fill="#545852" fill-rule="nonzero">
            <g id="Group-5" transform="translate(212.000000, 157.000000)">
                <g id="Group-7" transform="translate(151.000000, 77.000000)">
                    <g id="Email-Addres" transform="translate(0.000000, 257.000000)">
                        <g id="envelope" transform="translate(13.000000, 12.000000)">
                            <path d="M14.6697803,0 L1.25740974,0 C0.564157835,0 0,0.566736842 0,1.26315789 L0,8.84210526 C0,9.53852632 0.564157835,10.1052632 1.25740974,10.1052632 L14.6697803,10.1052632 C15.3630322,10.1052632 15.92719,9.53852632 15.92719,8.84210526 L15.92719,1.26315789 C15.92719,0.566736842 15.3630322,0 14.6697803,0 Z M14.6697803,0.842105263 C14.6949284,0.842105263 14.7184001,0.844631579 14.74271,0.848842105 L8.4288366,5.07705263 C8.18573738,5.23957895 7.74229088,5.23957895 7.49919167,5.07705263 L1.18531824,0.848842105 C1.20878989,0.844631579 1.23309981,0.842105263 1.25824801,0.842105263 L14.6706185,0.842105263 L14.6697803,0.842105263 Z M14.6697803,9.26315789 L1.25740974,9.26315789 C1.02604634,9.26315789 0.838273157,9.07452632 0.838273157,8.84210526 L0.838273157,1.62863158 L7.03395006,5.77768421 C7.29465301,5.952 7.629124,6.03957895 7.96359499,6.03957895 C8.29806598,6.03957895 8.63253697,5.952 8.89323993,5.77768421 L15.0889168,1.62863158 L15.0889168,8.84210526 C15.0889168,9.07452632 14.9011436,9.26315789 14.6697803,9.26315789 Z" id="Shape"></path>
                        </g>
                    </g>
                </g>
            </g>
        </g>
    </g>
</svg>