<?xml version="1.0" encoding="UTF-8"?>
<svg width="18px" height="18px" viewBox="0 0 18 18" version="1.1" xmlns="http://www.w3.org/2000/svg" xmlns:xlink="http://www.w3.org/1999/xlink">
    <!-- Generator: Sketch 50.2 (55047) - http://www.bohemiancoding.com/sketch -->
    <title>Group 4</title>
    <desc>Created with Sketch.</desc>
    <defs></defs>
    <g id="Page-1" stroke="none" stroke-width="1" fill="none" fill-rule="evenodd">
        <g id="Signup" transform="translate(-375.000000, -393.000000)" fill="#777777" fill-rule="nonzero">
            <g id="Group-5" transform="translate(212.000000, 157.000000)">
                <g id="Group-7" transform="translate(151.000000, 77.000000)">
                    <g id="Username-or-email" transform="translate(0.000000, 151.000000)">
                        <g id="Group-4" transform="translate(12.000000, 8.000000)">
                            <path d="M9,9.9 C6.02214545,9.9 3.6,7.6797 3.6,4.95 C3.6,2.2203 6.02214545,0 9,0 C11.9778545,0 14.4,2.2203 14.4,4.95 C14.4,7.6797 11.9778545,9.9 9,9.9 Z M9,0.9 C6.56410909,0.9 4.58181818,2.7171 4.58181818,4.95 C4.58181818,7.1829 6.56410909,9 9,9 C11.4358909,9 13.4181818,7.1829 13.4181818,4.95 C13.4181818,2.7171 11.4358909,0.9 9,0.9 Z" id="Shape"></path>
                            <path d="M16.5789474,18 L1.42105263,18 C0.637578947,18 0,17.3943 0,16.65 C0,16.5888 0.0132631579,15.1335 1.16052632,13.68 C1.82842105,12.834 2.74263158,12.1617 3.87852632,11.6829 C5.26547368,11.097 6.98873684,10.8 9,10.8 C11.0112632,10.8 12.7345263,11.097 14.1214737,11.6829 C15.2573684,12.1626 16.1715789,12.834 16.8394737,13.68 C17.9867368,15.1335 18,16.5888 18,16.65 C18,17.3943 17.3624211,18 16.5789474,18 Z M9,11.7 C5.69652632,11.7 3.25894737,12.5577 1.95063158,14.1804 C0.970105263,15.3963 0.948315789,16.6392 0.947368421,16.6518 C0.947368421,16.8984 1.15957895,17.1 1.42105263,17.1 L16.5789474,17.1 C16.8404211,17.1 17.0526316,16.8984 17.0526316,16.65 C17.0526316,16.6392 17.0308421,15.3963 16.0493684,14.1804 C14.7401053,12.5577 12.3025263,11.7 9,11.7 Z" id="Shape"></path>
                        </g>
                    </g>
                </g>
            </g>
        </g>
    </g>
</svg>