<?xml version="1.0" encoding="UTF-8"?>
<svg width="16px" height="22px" viewBox="0 0 16 22" version="1.1" xmlns="http://www.w3.org/2000/svg" xmlns:xlink="http://www.w3.org/1999/xlink">
    <!-- Generator: Sketch 53.2 (72643) - https://sketchapp.com -->
    <title>file</title>
    <desc>Created with Sketch.</desc>
    <g id="Page-1" stroke="none" stroke-width="1" fill="none" fill-rule="evenodd">
        <g id="PreRegester-Step-1" transform="translate(-579.000000, -441.000000)">
            <g id="file" transform="translate(580.000000, 442.000000)">
                <g id="Group">
                    <path d="M14.2847619,3.87755102 C14.2847222,3.77138776 14.2453968,3.66697959 14.1695238,3.58893878 L10.7965079,0.11955102 C10.7206349,0.0415102041 10.619127,0.00102040816 10.5159127,0.000979591837 L10.5159127,0 L0.396825397,0 C0.17765873,0 0,0.182734694 0,0.408163265 L0,19.5918367 C0,19.8172653 0.17765873,20 0.396825397,20 L13.8888889,20 C14.1080159,20 14.2857143,19.8172653 14.2857143,19.5918367 L14.2857143,3.87755102 L14.2847619,3.87755102 Z M10.9126984,1.39355102 L12.9308333,3.46938776 L10.9126984,3.46938776 L10.9126984,1.39355102 Z M0.793650794,19.1836735 L0.793650794,0.816326531 L10.1190476,0.816326531 L10.1190476,3.87755102 C10.1190476,4.10297959 10.296746,4.28571429 10.515873,4.28571429 L13.4920635,4.28571429 L13.4920635,19.1836735 L0.793650794,19.1836735 Z" id="Shape" stroke="#777777" stroke-width="0.5"></path>
                    <g transform="translate(3.174603, 6.734694)" fill="#777777" fill-rule="nonzero">
                        <path d="M2.96928571,0.204163265 C2.80880952,0.207020408 2.66579365,0.309061224 2.60698413,0.462653061 L0.0276190476,7.19734694 L0.766031746,7.49653061 L1.60496032,5.30612245 L4.52753968,5.30612245 L5.41821429,7.41330612 L6.14607143,7.08787755 L3.34007937,0.449510204 C3.27611111,0.298081633 3.13150794,0.202408163 2.96928571,0.204163265 Z M1.91761905,4.48979592 L2.99428571,1.67865306 L4.18246032,4.48979592 L1.91761905,4.48979592 Z" id="Shape"></path>
                        <polygon id="Path" points="7.53968254 0.816326531 6.74603175 0.816326531 6.74603175 0 5.95238095 0 5.95238095 0.816326531 5.15873016 0.816326531 5.15873016 1.63265306 5.95238095 1.63265306 5.95238095 2.44897959 6.74603175 2.44897959 6.74603175 1.63265306 7.53968254 1.63265306"></polygon>
                    </g>
                    <rect id="Rectangle" fill="#777777" fill-rule="nonzero" x="1.78571429" y="16.7346939" width="1.58730159" height="1"></rect>
                    <rect id="Rectangle" fill="#777777" fill-rule="nonzero" x="4.16666667" y="16.7346939" width="1.58730159" height="1"></rect>
                    <rect id="Rectangle" fill="#777777" fill-rule="nonzero" x="6.54761905" y="16.7346939" width="5.95238095" height="1"></rect>
                    <rect id="Rectangle" fill="#777777" fill-rule="nonzero" x="1.78571429" y="1.63265306" width="1.58730159" height="1"></rect>
                    <rect id="Rectangle" fill="#777777" fill-rule="nonzero" x="1.78571429" y="3.26530612" width="3.17460317" height="1"></rect>
                </g>
            </g>
        </g>
    </g>
</svg>