<?xml version="1.0" encoding="UTF-8" standalone="no"?>
<svg width="20px" height="14px" viewBox="0 0 20 14" version="1.1" xmlns="http://www.w3.org/2000/svg" xmlns:xlink="http://www.w3.org/1999/xlink">
    <!-- Generator: Sketch 49.3 (51167) - http://www.bohemiancoding.com/sketch -->
    <title>graph</title>
    <desc>Created with Sketch.</desc>
    <defs></defs>
    <g id="Page-1" stroke="none" stroke-width="1" fill="none" fill-rule="evenodd">
        <g id="Myskorkel-Score" transform="translate(-284.000000, -438.000000)" fill="#00B6BC" fill-rule="nonzero">
            <g id="Group-9" transform="translate(231.000000, 340.000000)">
                <g id="Graph" transform="translate(0.000000, 49.000000)">
                    <g id="Group-8" transform="translate(53.000000, 45.000000)">
                        <g id="graph" transform="translate(0.000000, 4.000000)">
                            <path d="M19.9599991,0.0100606061 L19.9599991,3.84872727 L19.0507591,3.84872727 L19.0507591,1.51818182 L9.17695882,11.3904242 L6.03032181,8.24430303 L0.642953877,13.6308485 L0,12.988 L6.03032181,6.95872727 L9.17695882,10.1047879 L18.3639799,0.919212121 L16.1207031,0.919212121 L16.1207031,0.0101212121 L19.9599991,0.0100606061 Z M6.25563147,9.79339394 L3.04801478,13.0004848 L3.69096865,13.6433333 L6.89858535,10.4362424 L6.25563147,9.79339394 Z M18.0784785,4.49333333 L9.56987171,13.0006061 L10.2128256,13.6433939 L18.7214324,5.13618182 L18.0784785,4.49333333 Z M12.9233911,13.0007879 L13.566345,13.6436364 L19.8277956,7.38321212 L19.1848417,6.74036364 L12.9233911,13.0007879 Z M16.2758194,13.0007273 L16.9187733,13.6435758 L19.7308706,10.8319394 L19.0879774,10.1890909 L16.2758194,13.0007273 Z M6.36316425,12.9884242 L7.00611813,13.6312727 L8.42392629,12.213697 L7.78097241,11.5708485 L6.36316425,12.9884242 Z" id="Shape"></path>
                        </g>
                    </g>
                </g>
            </g>
        </g>
    </g>
</svg>