<?xml version="1.0" encoding="UTF-8"?>
<svg width="15px" height="15px" viewBox="0 0 15 15" version="1.1" xmlns="http://www.w3.org/2000/svg" xmlns:xlink="http://www.w3.org/1999/xlink">
    <!-- Generator: Sketch 53.2 (72643) - https://sketchapp.com -->
    <title>info</title>
    <desc>Created with Sketch.</desc>
    <g id="Page-1" stroke="none" stroke-width="1" fill="none" fill-rule="evenodd">
        <g id="MyskorelNew" transform="translate(-417.000000, -237.000000)">
            <g id="info" transform="translate(418.000000, 238.000000)">
                <path d="M13,6.50015721 C13,2.90995501 10.0898444,0 6.50010481,0 C2.91018184,-3.75324958e-16 0,2.90995501 0,6.50015721 C0,10.0898092 2.91018184,13 6.50010481,13 C10.0898444,13 13,10.0898092 13,6.50015721 Z" id="Path" stroke="#00B6BC"></path>
                <g id="Group" transform="translate(5.000000, 2.000000)" fill="#00B6BC">
                    <path d="M3.81754054,7.28410864 C3.78005405,7.23316713 3.70813514,7.21504178 3.64808108,7.24144011 C2.9837027,7.53317549 2.22964865,7.84160724 2.08164865,7.8685571 C2.07791892,7.86547354 2.072,7.85983287 2.06424324,7.85008078 C2.04418919,7.82488579 2.03443243,7.79196936 2.03443243,7.74942618 C2.03443243,7.40083287 2.31808108,6.34038719 2.87745946,4.59769638 C3.34910811,3.13347911 3.40364865,2.83031198 3.40364865,2.72965738 C3.40364865,2.57427577 3.33951351,2.44298607 3.21810811,2.34995265 C3.10278378,2.26173259 2.94164865,2.21703343 2.73921622,2.21703343 C2.40248649,2.21703343 2.01221622,2.33561281 1.54608108,2.57956546 C1.09437838,2.81604735 0.590621622,3.21658496 0.0488918919,3.77004735 C0.00648648649,3.81339276 0.00205405405,3.87819777 0.0382162162,3.92618106 C0.0744324324,3.97418942 0.141594595,3.99246518 0.2,3.9704039 C0.390189189,3.8984039 1.346,3.53522006 1.48532432,3.45404457 C1.59940541,3.38771031 1.69816216,3.35404178 1.77886486,3.35404178 C1.78175676,3.35404178 1.78424324,3.35414206 1.78632432,3.35429248 C1.7872973,3.35925627 1.78821622,3.3668273 1.78821622,3.37768245 C1.78821622,3.45406964 1.77127027,3.54449582 1.73805405,3.64600279 C0.923567568,6.0938273 0.527648649,7.59442061 0.527648649,8.2335961 C0.527648649,8.4591727 0.595243243,8.64077716 0.728513514,8.77329526 C0.864324324,8.90849582 1.04751351,8.97703621 1.273,8.97703621 C1.5132973,8.97703621 1.80575676,8.88392758 2.16705405,8.69239554 C2.51667568,8.50708078 3.0502973,8.0994234 3.79848649,7.44600836 C3.84694595,7.40371588 3.85502703,7.33505014 3.81754054,7.28410864 Z" id="Path"></path>
                    <path d="M3.79140541,0.192334262 C3.6582973,0.0659582173 3.48797297,0.00188022284 3.28521622,0.00188022284 C3.03278378,0.00188022284 2.81291892,0.0944122563 2.63181081,0.27691922 C2.45359459,0.456417827 2.36321622,0.676679666 2.36321622,0.931562674 C2.36321622,1.13294708 2.42978378,1.29983565 2.56105405,1.42756546 C2.69408108,1.55722563 2.86210811,1.62295822 3.06040541,1.62295822 C3.30251351,1.62295822 3.52118919,1.52523677 3.71032432,1.33250139 C3.89616216,1.14315042 3.99040541,0.920532033 3.99040541,0.67083844 C3.99043243,0.478955432 3.92348649,0.317983287 3.79140541,0.192334262 Z" id="Path"></path>
                </g>
            </g>
        </g>
    </g>
</svg>