<?xml version="1.0" encoding="UTF-8"?>
<svg width="16px" height="14px" viewBox="0 0 16 14" version="1.1" xmlns="http://www.w3.org/2000/svg" xmlns:xlink="http://www.w3.org/1999/xlink">
    <!-- Generator: Sketch 50.2 (55047) - http://www.bohemiancoding.com/sketch -->
    <title>Upvote Copy</title>
    <desc>Created with Sketch.</desc>
    <defs></defs>
    <g id="Symbols" stroke="none" stroke-width="1" fill="none" fill-rule="evenodd">
        <g id="Un" transform="translate(-6.000000, -7.000000)" fill="#777777" fill-rule="nonzero">
            <g id="Answer-section">
                <g id="Group-2" transform="translate(6.000000, 6.000000)">
                    <g id="Upvote-Copy" transform="translate(0.000000, 1.000000)">
                        <path d="M3.51219512,11.3521951 C3.25571947,11.3521951 3.04780488,11.5601097 3.04780488,11.8165854 C3.04780488,12.073061 3.25571947,12.2809756 3.51219512,12.2809756 C3.76867077,12.2809756 3.97658537,12.073061 3.97658537,11.8165854 C3.97658537,11.6934214 3.92765868,11.5753019 3.84056861,11.4882119 C3.75347855,11.4011218 3.63535907,11.3521951 3.51219512,11.3521951 Z" id="Shape"></path>
                        <path d="M16,8.05853659 C16.0036513,7.59431075 15.7808428,7.1574314 15.4029268,6.88780488 C15.7660205,6.46660316 15.8490844,5.87191536 15.6152996,5.36734372 C15.3815147,4.86277208 14.8741297,4.54165896 14.3180488,4.54634146 L11.5356098,4.54634146 C11.3018971,4.54748741 11.0722957,4.60790884 10.8682927,4.72195122 C10.8033565,4.58883828 10.7802289,4.43918854 10.8019512,4.29268293 C10.9221835,3.67727798 10.9550272,3.04799219 10.8995122,2.42341463 C10.7858968,1.12080286 9.6383052,0.156616317 8.33560976,0.269268293 C8.11865059,0.288098549 7.91810836,0.392509372 7.77826069,0.559447952 C7.63841302,0.726386532 7.57076187,0.942122775 7.5902439,1.15902439 L7.61365854,1.4204878 C7.70966483,2.53446248 7.44419111,3.64972576 6.85658537,4.60097561 L5.27609756,6.66926829 C5.12293771,6.23780489 4.71539936,5.94893671 4.25756098,5.94731707 L2.75121951,5.94731707 C2.15444513,5.94728257 1.66885595,6.42765036 1.66243902,7.02439024 L1.66243902,7.12195122 L0.647804878,7.12195122 C0.432279122,7.12195122 0.257560976,7.29666937 0.257560976,7.51219512 C0.257560976,7.72772088 0.432279122,7.90243902 0.647804878,7.90243902 L1.66243902,7.90243902 L1.66243902,11.6565854 L0.647804878,11.6565854 C0.432279122,11.6565854 0.257560976,11.8313035 0.257560976,12.0468293 C0.257560976,12.262355 0.432279122,12.4370732 0.647804878,12.4370732 L1.66243902,12.4370732 L1.66243902,12.5346341 C1.66243902,13.135951 2.14990265,13.6234146 2.75121951,13.6234146 L4.25756098,13.6234146 C4.73597443,13.6177176 5.15504199,13.3014402 5.29170732,12.8429268 C6.18730933,13.3492018 7.19756222,13.6178861 8.22634146,13.6234146 L13.9590244,13.6234146 C14.7456934,13.6234146 15.3834146,12.9856934 15.3834146,12.1990244 C15.384591,11.8784255 15.2757724,11.5671219 15.075122,11.3170732 C15.4717949,11.0583601 15.7144375,10.6198495 15.7229268,10.1463415 C15.7221209,9.81309773 15.6032089,9.49092897 15.3873171,9.23707317 C15.7718657,8.96795465 16.0006358,8.52790002 16,8.05853659 Z M4.58146341,10.0097561 L4.58146341,11.7073171 L4.58146341,12.5190244 C4.579359,12.6884104 4.44255674,12.8252127 4.27317073,12.8273171 L2.75121951,12.8273171 C2.58095416,12.8273171 2.44292683,12.6892897 2.44292683,12.5190244 L2.44292683,7.02439024 C2.44292683,6.8541249 2.58095416,6.71609756 2.75121951,6.71609756 L4.25756098,6.71609756 C4.42694699,6.71820198 4.56374924,6.85500423 4.56585366,7.02439024 L4.58146341,10.0097561 Z M11.5512195,5.32682927 L14.3180488,5.32682927 C14.6736663,5.32682929 14.9619512,5.61511422 14.9619512,5.97073171 C14.9619512,6.32634919 14.6736663,6.61463413 14.3180488,6.61463415 L11.5356098,6.61463415 C11.1799923,6.61463413 10.8917074,6.32634919 10.8917074,5.97073171 C10.8917074,5.61511422 11.1799923,5.32682929 11.5356098,5.32682927 L11.5512195,5.32682927 Z M10.6107317,12.8390244 L8.22634146,12.8390244 C7.29520214,12.8376863 6.38100145,12.58995 5.57658537,12.1209756 C5.43727911,12.0397014 5.35011702,11.891969 5.34634146,11.7307317 L5.34634146,7.99609756 C5.34560263,7.87169719 5.39480668,7.75220163 5.48292683,7.66439024 L5.51804878,7.62536585 L7.49658537,5.0302439 C8.1875871,3.92942357 8.50129123,2.63351044 8.3902439,1.33853659 L8.36682927,1.07317073 C8.36682927,1.05365854 8.36682927,1.03414634 8.40195122,1.0302439 C8.82590508,0.987610967 9.2488607,1.12013706 9.57268293,1.39707317 C9.89775527,1.66548634 10.1004421,2.05396951 10.1346341,2.47414634 C10.1841904,3.02697993 10.1552861,3.58404445 10.0487805,4.12878049 C9.96676356,4.53900414 10.0632649,4.96474549 10.3141463,5.2995122 C10.0717457,5.70818595 10.0584535,6.21328912 10.2790244,6.63414634 C9.5700929,6.68548293 9.00823521,7.25291316 8.96389749,7.96231676 C8.91955976,8.67172036 9.40639223,9.30469373 10.1034146,9.44390244 C9.9836432,9.65834124 9.92303658,9.90076773 9.92780488,10.1463415 C9.9306831,10.6797146 10.2321122,11.1665226 10.7082927,11.4068293 C10.5444798,11.644487 10.4560843,11.9259929 10.4546341,12.2146341 C10.4567822,12.4321512 10.5102661,12.6460867 10.6107317,12.8390244 Z M13.9590244,12.8390244 L11.8712195,12.8390244 C11.515602,12.8390244 11.2273171,12.5507394 11.2273171,12.195122 C11.2273171,11.8395045 11.515602,11.5512195 11.8712195,11.5512195 L13.9590244,11.5512195 C14.3146419,11.5512195 14.6029268,11.8395045 14.6029268,12.195122 C14.6029268,12.5507394 14.3146419,12.8390244 13.9590244,12.8390244 Z M14.2985366,10.7707317 L11.3521951,10.7707317 C10.9965776,10.7707317 10.7082927,10.4824468 10.7082927,10.1268293 C10.7082927,9.77121177 10.9965776,9.48292683 11.3521951,9.48292683 L14.2985366,9.48292683 C14.6541541,9.48292683 14.942439,9.77121177 14.942439,10.1268293 C14.942439,10.4824468 14.6541541,10.7707317 14.2985366,10.7707317 Z M14.56,8.70243902 L10.3921951,8.70243902 C10.0365776,8.70243902 9.74829268,8.41415408 9.74829268,8.05853659 C9.74829268,7.70291909 10.0365776,7.41463415 10.3921951,7.41463415 L14.56,7.41463415 C14.9156175,7.41463415 15.2039024,7.70291909 15.2039024,8.05853659 C15.2039024,8.41415408 14.9156175,8.70243902 14.56,8.70243902 Z" id="Shape"></path>
                    </g>
                </g>
            </g>
        </g>
    </g>
</svg>