<?xml version="1.0" encoding="UTF-8" standalone="no"?>
<svg width="26px" height="20px" viewBox="0 0 26 20" version="1.1" xmlns="http://www.w3.org/2000/svg" xmlns:xlink="http://www.w3.org/1999/xlink">
    <!-- Generator: Sketch 49.3 (51167) - http://www.bohemiancoding.com/sketch -->
    <title>group (1)</title>
    <desc>Created with Sketch.</desc>
    <defs></defs>
    <g id="Page-1" stroke="none" stroke-width="1" fill="none" fill-rule="evenodd">
        <g id="Home-Group-list" transform="translate(-1091.000000, -300.000000)" fill-rule="nonzero">
            <g id="Group-2" transform="translate(231.000000, 119.000000)">
                <g id="2-copy" transform="translate(798.000000, 0.000000)">
                    <g id="Group-4" transform="translate(62.000000, 181.000000)">
                        <g id="group-(1)">
                            <path d="M10.7553367,12.5650156 C10.3744608,12.190625 9.88177817,11.9141094 9.31808979,11.7862344 L7.28085937,11.3240937 L7.28001761,11.3253594 L7.28085937,11.3240937 L7.28085937,10.1467344 L4.79308429,10.1467344 L4.79308429,11.3278906 L2.76115207,11.7874062 C1.4324934,12.087875 0.495158451,13.2120781 0.495158451,14.5052656 L0.495158451,17.65625 L4.99921875,17.65625 L10.7553367,12.5650156 Z" id="Shape" fill="#78D2FA"></path>
                            <polygon id="Shape" fill="#FFB487" points="7.33428697 10.1467344 7.33428697 11.355875 6.04321083 14.2834531 4.75352113 11.3600469 4.75352113 10.1467344"></polygon>
                            <path d="M8.81159221,6.09035938 L8.81159221,7.72114063 C8.81159221,9.17089063 7.57008143,10.3461406 6.03860585,10.3461406 C4.50713028,10.3461406 3.2656195,9.17089063 3.2656195,7.72114063 L3.2656195,6.09035938 L8.81159221,6.09035938 Z" id="Shape" fill="#FFCDAC"></path>
                            <path d="M8.81159221,6.60621875 L8.81159221,5.97429688 C8.81159221,4.52454688 7.57008143,3.34929687 6.03860585,3.34929687 C4.50713028,3.34929687 3.2656195,4.52454688 3.2656195,5.97429688 L3.2656195,6.60621875 L5.17707967,6.60621875 C6.3740757,6.60621875 7.54864107,6.29857813 8.57540163,5.71615625" id="Shape" fill="#878791"></path>
                            <path d="M14.596776,12.5650156 C14.9776518,12.190625 15.4703345,11.9141094 16.0340229,11.7862344 L18.0712533,11.3240937 L18.0720951,11.3253594 L18.0712533,11.3240937 L18.0712533,10.1467344 L20.5590284,10.1467344 L20.5590284,11.3278906 L22.5909606,11.7874062 C23.9196193,12.087875 24.8569542,13.2120781 24.8569542,14.5052656 L24.8569542,17.65625 L20.3528939,17.65625 L14.596776,12.5650156 Z" id="Shape" fill="#A5DC69"></path>
                            <path d="M10.9406745,12.5188906 L8.1031195,13.1625781 C6.25380172,13.5821094 4.9497029,15.1474062 4.9497029,16.9475937 L4.9497029,19.53125 L20.3922095,19.53125 L20.3922095,16.9498437 C20.3922095,15.148625 19.0866747,13.5827187 17.2359705,13.1641719 L14.4057934,12.5241406 L10.9406745,12.5188906 Z" id="Shape" fill="#FF5A5A"></path>
                            <g id="Group" transform="translate(10.794454, 10.109375)" fill="#FFB487">
                                <polygon id="Shape" points="9.80413732 0.037359375 9.80413732 1.25067187 8.51444762 4.17407813 7.22337148 1.2465 7.22337148 0.037359375"></polygon>
                                <path d="M1.88209727,6.17521875 L3.72953345,2.20453125 C3.59242408,1.9865625 3.51428807,1.732875 3.51428807,1.46428125 L3.51428807,1.082625 L0.247925836,1.082625 L0.247925836,1.46432813 C0.247925836,1.73245313 0.170086928,1.98576563 0.0333736796,2.2035 L1.88209727,6.17521875 Z" id="Shape"></path>
                            </g>
                            <path d="M16.5383418,4.97773437 L16.5383418,7.5005 C16.5383418,9.51978125 14.8091494,11.1567969 12.6761059,11.1567969 C10.5430623,11.1567969 8.81386994,9.51982813 8.81386994,7.5005 L8.81386994,4.97773437 L16.5383418,4.97773437 Z" id="Shape" fill="#FFCDAC"></path>
                            <path d="M12.6760563,1.41110938 C10.5429632,1.41110938 8.81377091,3.04807813 8.81377091,5.06735938 L8.81377091,5.94753125 L10.7021567,5.94753125 C11.9574329,5.94753125 13.1483385,5.42135938 13.9545555,4.51053125 L16.5382427,5.94753125 L16.5382427,5.06735938 C16.5383418,3.04807813 14.8091494,1.41110938 12.6760563,1.41110938 Z" id="Shape" fill="#F5B955"></path>
                            <path d="M16.5405205,6.09035938 L16.5405205,7.72114063 C16.5405205,9.17089063 17.7820313,10.3461406 19.3135068,10.3461406 C20.8449824,10.3461406 22.0864932,9.17089063 22.0864932,7.72114063 L22.0864932,6.09035938 L16.5405205,6.09035938 Z" id="Shape" fill="#FFCDAC"></path>
                            <path d="M16.5405205,6.60621875 L16.5405205,5.97429688 C16.5405205,4.52454688 17.7820313,3.34929687 19.3135068,3.34929687 C20.8449824,3.34929687 22.0864932,4.52454688 22.0864932,5.97429688 L22.0864932,6.60621875 L20.175033,6.60621875 C18.978037,6.60621875 17.8034716,6.29857813 16.776711,5.71615625" id="Shape" fill="#878791"></path>
                            <path d="M12.6631822,19.0625 C12.532906,19.0625 12.4051551,19.1126563 12.3131052,19.1998437 C12.2210057,19.2870313 12.1680238,19.4079688 12.1680238,19.53125 C12.1680238,19.6545312 12.2209562,19.7754687 12.3131052,19.8626563 C12.4051551,19.9498437 12.532906,20 12.6631822,20 C12.7934089,20 12.9211598,19.9498437 13.0132097,19.8626563 C13.1053092,19.7754687 13.1583407,19.6545312 13.1583407,19.53125 C13.1583407,19.4079688 13.1053587,19.2870313 13.0132097,19.1998437 C12.9211598,19.1126563 12.7934089,19.0625 12.6631822,19.0625 Z" id="Shape" fill="#000000"></path>
                            <path d="M22.7059859,11.3314531 L21.0542364,10.9579063 L21.0542364,10.3376563 C21.9710717,9.78907813 22.5817011,8.821625 22.5817011,7.7211875 L22.5817011,5.97429688 C22.5817011,4.268375 21.115636,2.88054688 19.3135563,2.88054688 C18.3414613,2.88054688 17.4676551,3.28489063 16.8684639,3.9246875 C16.343695,2.20423438 14.6652564,0.942359375 12.681206,0.942359375 L12.6811565,0.942359375 C10.6938875,0.942359375 9.01317121,2.20821875 8.49132372,3.93289063 C7.89198393,3.28835938 7.01495929,2.88054688 6.03870489,2.88054688 C4.23662522,2.88054688 2.77056008,4.26842188 2.77056008,5.97429688 L2.77056008,7.7211875 C2.77056008,8.82167188 3.38118948,9.789125 4.29802487,10.3376563 L4.29802487,10.9579063 L2.64627531,11.3314531 C1.08816021,11.6837656 0,12.9889063 0,14.5052656 L0,17.65625 C0,17.9151406 0.221731954,18.125 0.495158451,18.125 L4.45459397,18.125 L4.45459397,19.53125 C4.45459397,19.7901406 4.67632592,20 4.94975242,20 L10.3818387,20 C10.6552652,20 10.8769971,19.7901406 10.8769971,19.53125 C10.8769971,19.2723594 10.6552652,19.0625 10.3818387,19.0625 L8.17130282,19.0625 L8.17130282,16.9994375 C8.17130282,16.7405469 7.94957086,16.5306875 7.67614437,16.5306875 C7.40271787,16.5306875 7.18098592,16.7405469 7.18098592,16.9994375 L7.18098592,19.0625 L5.44486136,19.0625 L5.44486136,16.9475938 C5.44486136,15.357875 6.58540933,13.9888906 8.21849142,13.6184375 L10.6538292,13.0659688 L12.2208077,16.4407813 C12.2998349,16.6109844 12.4776463,16.7209063 12.6740262,16.7209063 L12.6740757,16.7209063 C12.8704555,16.7209063 13.0483165,16.6110313 13.1273437,16.4408281 L14.6927377,13.0709375 L17.1209947,13.6200781 C18.7555623,13.9896875 19.8971006,15.3589531 19.8971006,16.9497969 L19.8971006,17.472875 C19.871798,17.5292187 19.8577355,17.5911406 19.8577355,17.6562031 C19.8577355,17.7212656 19.871798,17.7832344 19.8971006,17.8395312 L19.8971006,19.0625 L18.1711268,19.0625 L18.1711268,16.9994375 C18.1711268,16.7405469 17.9493948,16.5306875 17.6759683,16.5306875 C17.4025418,16.5306875 17.1808099,16.7405469 17.1808099,16.9994375 L17.1808099,19.0625 L14.7557713,19.0625 C14.4823449,19.0625 14.2606129,19.2723594 14.2606129,19.53125 C14.2606129,19.7901406 14.4823449,20 14.7557713,20 L20.392259,20 C20.6656855,20 20.8874175,19.7901406 20.8874175,19.53125 L20.8874175,18.125 L24.8569542,18.125 C25.1303807,18.125 25.3521127,17.9151406 25.3521127,17.65625 L25.3521127,14.5052656 C25.3521127,12.9889063 24.2639525,11.6837656 22.7059859,11.3314531 Z M20.0650088,11.3532031 L19.3090009,13.0669063 L18.5631932,11.37575 C18.5651739,11.3587344 18.5666098,11.341625 18.5666098,11.3244688 C18.5666098,11.3201094 18.5665603,11.3157031 18.5664118,11.3113438 L18.5664118,10.7324375 C18.8065636,10.7858281 19.0564206,10.8149375 19.3135068,10.8149375 C19.571732,10.8149375 19.8227773,10.7855469 20.0638699,10.7316875 L20.0638699,11.3278438 C20.0638699,11.336375 20.0645136,11.3447656 20.0650088,11.3532031 Z M10.4455161,11.72975 C10.1346556,11.5472187 9.79359045,11.4120781 9.43351122,11.3304219 L7.77601783,10.9544375 L7.77601783,10.3396719 C8.18823724,10.0937187 8.53836378,9.76315625 8.7993618,9.37371875 C9.17266175,10.0641406 9.7456096,10.6422969 10.4455161,11.0399844 L10.4455161,11.72975 Z M9.31393046,7.50054688 L9.31393046,6.41632813 L10.7072073,6.41632813 C11.9710497,6.41632813 13.1688875,5.94345313 14.0538347,5.10659375 L16.0454115,6.21420313 L16.0454115,7.6105625 C15.9838138,9.31732812 14.4988831,10.6880938 12.6811565,10.6880938 C10.8244113,10.6880469 9.31393046,9.258125 9.31393046,7.50054688 Z M14.9010013,11.0487969 C15.6052157,10.6524688 16.1821743,10.0738906 16.5583462,9.38196875 C16.8187995,9.76779687 17.1668464,10.0954062 17.5760949,10.3396719 L17.5760949,10.9544375 L15.9186015,11.3304219 C15.5563435,11.4125937 15.2133473,11.5489531 14.9009518,11.7331719 L14.9009518,11.0487969 L14.9010013,11.0487969 Z M19.3135068,9.8774375 C18.0575374,9.8774375 17.0356789,8.910125 17.0356789,7.7211875 L17.0356789,7.6446875 C17.037412,7.59682813 17.0386499,6.3843125 17.0386499,6.3843125 C18.0120819,6.8375 19.0852388,7.07501562 20.1750825,7.07501562 L21.5913842,7.07501562 L21.5913842,7.72123438 C21.5913347,8.91017187 20.5694762,9.8774375 19.3135068,9.8774375 Z M19.3135068,3.81804688 C20.5694762,3.81804688 21.5913347,4.78535938 21.5913347,5.97429688 L21.5913347,6.09035938 L21.5913347,6.13746875 L20.175033,6.13746875 C19.1051937,6.13746875 18.0539228,5.87154688 17.1274318,5.3675 C17.4050176,4.47303125 18.2799626,3.81804688 19.3135068,3.81804688 Z M9.31393046,5.06740625 C9.31393046,3.30978125 10.8244608,1.87990625 12.6811565,1.87990625 C14.5378026,1.87990625 16.048333,3.30982813 16.048333,5.06740625 L16.048333,5.12853125 L14.2105524,4.10642188 C14.0020412,3.99040625 13.7355469,4.03404687 13.5802157,4.2095 C12.8661972,5.016125 11.8190361,5.47878125 10.7072568,5.47878125 L9.31393046,5.47878125 L9.31393046,5.06740625 Z M3.76077795,5.97429688 C3.76077795,4.7853125 4.78263644,3.81804688 6.03860585,3.81804688 C7.07215009,3.81804688 7.94709507,4.47303125 8.22463138,5.36754688 C7.2981404,5.87154688 6.24691901,6.13751563 5.17703015,6.13751563 L3.76077795,6.13751563 L3.76077795,6.09040625 L3.76077795,5.97429688 Z M3.76077795,7.07496875 L5.17707967,7.07496875 C6.26801276,7.07496875 7.34225902,6.83703125 8.31643376,6.38295312 L8.31643376,7.7211875 C8.31643376,8.91017187 7.29457526,9.8774375 6.03860585,9.8774375 C4.78263644,9.8774375 3.76077795,8.910125 3.76077795,7.7211875 C3.76077795,7.7211875 3.76077795,7.07496875 3.76077795,7.07496875 Z M6.03860585,10.8149375 C6.29569212,10.8149375 6.54554908,10.7857812 6.78570092,10.7324375 L6.78570092,11.2982188 C6.78515625,11.3070313 6.78490867,11.3158437 6.78490867,11.3246563 C6.78490867,11.3394219 6.78639415,11.3540938 6.78787962,11.3687656 L6.03870489,13.0669062 L5.28670775,11.3616406 C5.28754952,11.3504375 5.28824274,11.3392344 5.28824274,11.3278906 L5.28824274,10.7317344 C5.52933539,10.7855469 5.78038072,10.8149375 6.03860585,10.8149375 Z M4.45459397,16.9475938 L4.45459397,17.1875 L2.9709507,17.1875 L2.9709507,15.1048906 C2.9709507,14.846 2.74921875,14.6361406 2.47579225,14.6361406 C2.20236576,14.6361406 1.9806338,14.846 1.9806338,15.1048906 L1.9806338,17.1875 L0.990316901,17.1875 L0.990316901,14.5052656 C0.990316901,13.4245625 1.76583407,12.4944219 2.87622689,12.2433125 L4.44578015,11.8883281 L5.47016395,14.2112188 C4.82947843,14.9646875 4.45459397,15.9197188 4.45459397,16.9475938 Z M7.98774758,12.7067656 C7.69535651,12.7730938 7.4159386,12.8653906 7.1506327,12.9792031 L7.63291703,11.8859844 L9.20271787,12.2420938 C9.32447733,12.2697031 9.4431173,12.3062188 9.55794454,12.3505625 L7.98774758,12.7067656 Z M12.6741747,15.0874531 L11.435833,12.4204063 L11.435833,11.4536563 C11.8305733,11.5653125 12.2485365,11.6255469 12.681107,11.6255469 C13.1079335,11.6255469 13.5205491,11.5668594 13.9106349,11.4580625 L13.9106349,12.4256094 L12.6741747,15.0874531 Z M15.7851067,12.354125 C15.9027564,12.3081875 16.0244168,12.2704531 16.1493948,12.2420938 L17.7153829,11.886875 L18.1996479,12.9849688 C17.9309254,12.8690938 17.6476452,12.7753906 17.3510453,12.7083125 L15.7851067,12.354125 Z M24.3617958,17.1875 L23.3714789,17.1875 L23.3714789,15.1048906 C23.3714789,14.846 23.1497469,14.6361406 22.8763204,14.6361406 C22.6028939,14.6361406 22.381162,14.846 22.381162,15.1048906 L22.381162,17.1875 L20.8874175,17.1875 L20.8874175,16.9498438 C20.8874175,15.9233281 20.5137709,14.9696094 19.8749175,14.2167969 L20.9025198,11.8874844 L22.4758858,12.2433125 C23.5862786,12.4944219 24.3617958,13.4245625 24.3617958,14.5052656 L24.3617958,17.1875 Z" id="Shape" fill="#000000"></path>
                            <path d="M11.0152949,6.83984375 C10.8850682,6.83984375 10.7573173,6.89 10.6652179,6.9771875 C10.5731184,7.064375 10.5201364,7.1853125 10.5201364,7.30859375 C10.5201364,7.431875 10.5730689,7.5528125 10.6652179,7.64 C10.7573669,7.7271875 10.8850682,7.77734375 11.0152949,7.77734375 C11.1460167,7.77734375 11.2732724,7.7271875 11.3653224,7.64 C11.457917,7.5528125 11.5104533,7.431875 11.5104533,7.30859375 C11.5104533,7.1853125 11.457917,7.064375 11.3653224,6.9771875 C11.2732724,6.89 11.1455216,6.83984375 11.0152949,6.83984375 Z" id="Shape" fill="#000000"></path>
                            <path d="M14.3264195,7.77734375 C14.4566461,7.77734375 14.584397,7.7271875 14.676447,7.64 C14.7690416,7.5528125 14.8215779,7.431875 14.8215779,7.30859375 C14.8215779,7.1853125 14.7690416,7.064375 14.676447,6.9771875 C14.584397,6.89 14.4566461,6.83984375 14.3264195,6.83984375 C14.1961928,6.83984375 14.0684419,6.89 13.9763424,6.9771875 C13.884243,7.064375 13.831261,7.1853125 13.831261,7.30859375 C13.831261,7.431875 13.8841934,7.5528125 13.9763424,7.64 C14.0684914,7.7271875 14.1961928,7.77734375 14.3264195,7.77734375 Z" id="Shape" fill="#000000"></path>
                            <path d="M13.6290878,8.55509375 C13.4356789,8.37204687 13.1222436,8.37204687 12.9287852,8.55509375 C12.7823669,8.69370312 12.5441461,8.69370312 12.3977278,8.55509375 C12.2043189,8.37204687 11.8908836,8.37204687 11.6974252,8.55509375 C11.5040658,8.73814062 11.5040658,9.03495313 11.6974252,9.21804688 C11.9637214,9.47009375 12.3134518,9.59614063 12.6632317,9.59614063 C13.0130117,9.59614063 13.3627421,9.47014063 13.6290383,9.21804688 C13.8224472,9.03495313 13.8224472,8.73814062 13.6290878,8.55509375 Z" id="Shape" fill="#000000"></path>
                        </g>
                    </g>
                </g>
            </g>
        </g>
    </g>
</svg>