<?xml version="1.0" encoding="UTF-8" standalone="no"?>
<svg width="3px" height="10px" viewBox="0 0 3 10" version="1.1" xmlns="http://www.w3.org/2000/svg" xmlns:xlink="http://www.w3.org/1999/xlink">
    <!-- Generator: Sketch 49.3 (51167) - http://www.bohemiancoding.com/sketch -->
    <title>more</title>
    <desc>Created with Sketch.</desc>
    <defs></defs>
    <g id="Page-1" stroke="none" stroke-width="1" fill="none" fill-rule="evenodd">
        <g id="Fixed-Width" transform="translate(-903.000000, -268.000000)" fill="#777777" fill-rule="nonzero">
            <g id="Group-4" transform="translate(1.000000, 0.000000)">
                <g id="Card" transform="translate(230.000000, 253.000000)">
                    <g id="more" transform="translate(673.500000, 20.500000) rotate(90.000000) translate(-673.500000, -20.500000) translate(668.000000, 19.000000)">
                        <path d="M1.19303452,0 C0.535195286,0 0,0.535195286 0,1.19303452 C0,1.85087375 0.535195286,2.38606904 1.19303452,2.38606904 C1.85087375,2.38606904 2.38606904,1.85087375 2.38606904,1.19303452 C2.38606904,0.535195286 1.85087375,0 1.19303452,0 Z" id="XMLID_28_"></path>
                        <path d="M5.01074499,0 C4.35290575,0 3.81771047,0.535195286 3.81771047,1.19303452 C3.81771047,1.85087375 4.35290575,2.38606904 5.01074499,2.38606904 C5.66858422,2.38606904 6.20377951,1.85087375 6.20377951,1.19303452 C6.20377951,0.535195286 5.66858422,0 5.01074499,0 Z" id="XMLID_30_"></path>
                        <path d="M8.82845545,0 C8.17061622,0 7.63542093,0.535195286 7.63542093,1.19303452 C7.63542093,1.85087375 8.17061622,2.38606904 8.82845545,2.38606904 C9.48629469,2.38606904 10.02149,1.85087375 10.02149,1.19303452 C10.02149,0.535195286 9.48629469,0 8.82845545,0 Z" id="XMLID_71_"></path>
                    </g>
                </g>
            </g>
        </g>
    </g>
</svg>