<?xml version="1.0" encoding="UTF-8" standalone="no"?>
<svg width="8px" height="10px" viewBox="0 0 8 10" version="1.1" xmlns="http://www.w3.org/2000/svg" xmlns:xlink="http://www.w3.org/1999/xlink">
    <!-- Generator: Sketch 49.3 (51167) - http://www.bohemiancoding.com/sketch -->
    <title>newspaper</title>
    <desc>Created with Sketch.</desc>
    <defs></defs>
    <g id="Page-1" stroke="none" stroke-width="1" fill="none" fill-rule="evenodd">
        <g id="Journal" transform="translate(-252.000000, -124.000000)" fill="#00B6BC" fill-rule="nonzero">
            <g id="Group-3" transform="translate(231.000000, 104.000000)">
                <g id="Group-2">
                    <g id="Group" transform="translate(16.000000, 15.000000)">
                        <g id="newspaper" transform="translate(5.000000, 5.000000)">
                            <path d="M7.7058585,0 L0.18887834,0 C0.0845671286,0 0,0.0823079563 0,0.183832541 L0,9.81616746 C0,9.91769204 0.0845671286,10 0.18887834,10 L7.7058585,10 C7.8101949,10 7.89473684,9.91769204 7.89473684,9.81616746 L7.89473684,0.183832541 C7.89473684,0.0823079563 7.81016971,0 7.7058585,0 Z M7.51698016,9.63233492 L0.377756679,9.63233492 L0.377756679,0.367665082 L7.51698016,0.367665082 L7.51698016,9.63233492 Z" id="Shape"></path>
                            <path d="M0.80754782,1.67763158 L6.75824165,1.67763158 C6.85908107,1.67763158 6.94078947,1.61165422 6.94078947,1.53027298 L6.94078947,0.772358597 C6.94078947,0.690977356 6.85908107,0.625 6.75824165,0.625 L0.80754782,0.625 C0.706732744,0.625 0.625,0.690977356 0.625,0.772358597 L0.625,1.53027298 C0.625,1.61165422 0.706732744,1.67763158 0.80754782,1.67763158 Z M0.99009564,0.919717194 L6.57569383,0.919717194 L6.57569383,1.38291438 L0.99009564,1.38291438 L0.99009564,0.919717194 Z" id="Shape"></path>
                            <path d="M0.818854803,9.27631579 L3.58903993,9.27631579 C3.69609948,9.27631579 3.78289474,9.15849123 3.78289474,9.01315789 C3.78289474,8.86782456 3.69609948,8.75 3.58903993,8.75 L0.818854803,8.75 C0.711795257,8.75 0.625,8.86782456 0.625,9.01315789 C0.625,9.15849123 0.711795257,9.27631579 0.818854803,9.27631579 Z" id="Shape"></path>
                            <path d="M0.818854803,8.65131579 L3.58903993,8.65131579 C3.69609948,8.65131579 3.78289474,8.53349123 3.78289474,8.38815789 C3.78289474,8.24282456 3.69609948,8.125 3.58903993,8.125 L0.818854803,8.125 C0.711795257,8.125 0.625,8.24282456 0.625,8.38815789 C0.625,8.53349123 0.711795257,8.65131579 0.818854803,8.65131579 Z" id="Shape"></path>
                            <path d="M0.818854803,8.02631579 L3.58903993,8.02631579 C3.69609948,8.02631579 3.78289474,7.90849123 3.78289474,7.76315789 C3.78289474,7.61782456 3.69609948,7.5 3.58903993,7.5 L0.818854803,7.5 C0.711795257,7.5 0.625,7.61782456 0.625,7.76315789 C0.625,7.90849123 0.711795257,8.02631579 0.818854803,8.02631579 Z" id="Shape"></path>
                            <path d="M0.818854803,6.77631579 L3.58903993,6.77631579 C3.69609948,6.77631579 3.78289474,6.65849123 3.78289474,6.51315789 C3.78289474,6.36782456 3.69609948,6.25 3.58903993,6.25 L0.818854803,6.25 C0.711795257,6.25 0.625,6.36782456 0.625,6.51315789 C0.625,6.65849123 0.711795257,6.77631579 0.818854803,6.77631579 Z" id="Shape"></path>
                            <path d="M0.818854803,6.48026316 L3.58903993,6.48026316 C3.69609948,6.48026316 3.78289474,6.39365717 3.78289474,6.28683108 L3.78289474,4.56843208 C3.78289474,4.46160599 3.69609948,4.375 3.58903993,4.375 L0.818854803,4.375 C0.711795257,4.375 0.625,4.46160599 0.625,4.56843208 L0.625,6.28683108 C0.625,6.39365717 0.711795257,6.48026316 0.818854803,6.48026316 Z M1.01270961,4.76183837 L3.39518513,4.76183837 L3.39518513,6.09337321 L1.01270961,6.09337321 L1.01270961,4.76183837 Z" id="Shape"></path>
                            <path d="M0.818854803,3.65131579 L3.58903993,3.65131579 C3.69609948,3.65131579 3.78289474,3.53349123 3.78289474,3.38815789 C3.78289474,3.24282456 3.69609948,3.125 3.58903993,3.125 L0.818854803,3.125 C0.711795257,3.125 0.625,3.24282456 0.625,3.38815789 C0.625,3.53349123 0.711795257,3.65131579 0.818854803,3.65131579 Z" id="Shape"></path>
                            <path d="M0.818854803,3.02631579 L3.58903993,3.02631579 C3.69609948,3.02631579 3.78289474,2.90849123 3.78289474,2.76315789 C3.78289474,2.61782456 3.69609948,2.5 3.58903993,2.5 L0.818854803,2.5 C0.711795257,2.5 0.625,2.61782456 0.625,2.76315789 C0.625,2.90849123 0.711795257,3.02631579 0.818854803,3.02631579 Z" id="Shape"></path>
                            <path d="M7.33903993,7.5 L4.5688548,7.5 C4.46176941,7.5 4.375,7.58660599 4.375,7.69343208 L4.375,9.41183108 C4.375,9.51865717 4.46176941,9.60526316 4.5688548,9.60526316 L7.33903993,9.60526316 C7.44612533,9.60526316 7.53289474,9.51865717 7.53289474,9.41183108 L7.53289474,7.69343208 C7.53289474,7.58660599 7.44609948,7.5 7.33903993,7.5 Z M7.14518513,9.218399 L4.76270961,9.218399 L4.76270961,7.88686416 L7.14518513,7.88686416 L7.14518513,9.218399 Z" id="Shape"></path>
                            <path d="M7.33903993,6.25 L4.5688548,6.25 C4.46176941,6.25 4.375,6.36782456 4.375,6.51315789 C4.375,6.65849123 4.46176941,6.77631579 4.5688548,6.77631579 L7.33903993,6.77631579 C7.44612533,6.77631579 7.53289474,6.65849123 7.53289474,6.51315789 C7.53289474,6.36782456 7.44609948,6.25 7.33903993,6.25 Z" id="Shape"></path>
                            <path d="M7.33903993,5.625 L4.5688548,5.625 C4.46176941,5.625 4.375,5.74282456 4.375,5.88815789 C4.375,6.03349123 4.46176941,6.15131579 4.5688548,6.15131579 L7.33903993,6.15131579 C7.44612533,6.15131579 7.53289474,6.03349123 7.53289474,5.88815789 C7.53289474,5.74282456 7.44609948,5.625 7.33903993,5.625 Z" id="Shape"></path>
                            <path d="M7.33903993,5 L4.5688548,5 C4.46176941,5 4.375,5.11782456 4.375,5.26315789 C4.375,5.40849123 4.46176941,5.52631579 4.5688548,5.52631579 L7.33903993,5.52631579 C7.44612533,5.52631579 7.53289474,5.40849123 7.53289474,5.26315789 C7.53289474,5.11782456 7.44609948,5 7.33903993,5 Z" id="Shape"></path>
                            <path d="M7.33903993,4.375 L4.5688548,4.375 C4.46176941,4.375 4.375,4.49282456 4.375,4.63815789 C4.375,4.78349123 4.46176941,4.90131579 4.5688548,4.90131579 L7.33903993,4.90131579 C7.44612533,4.90131579 7.53289474,4.78349123 7.53289474,4.63815789 C7.53289474,4.49282456 7.44609948,4.375 7.33903993,4.375 Z" id="Shape"></path>
                            <path d="M7.33903993,3.125 L4.5688548,3.125 C4.46176941,3.125 4.375,3.24282456 4.375,3.38815789 C4.375,3.53349123 4.46176941,3.65131579 4.5688548,3.65131579 L7.33903993,3.65131579 C7.44612533,3.65131579 7.53289474,3.53349123 7.53289474,3.38815789 C7.53289474,3.24282456 7.44609948,3.125 7.33903993,3.125 Z" id="Shape"></path>
                            <path d="M7.33903993,2.5 L4.5688548,2.5 C4.46176941,2.5 4.375,2.61782456 4.375,2.76315789 C4.375,2.90849123 4.46176941,3.02631579 4.5688548,3.02631579 L7.33903993,3.02631579 C7.44612533,3.02631579 7.53289474,2.90849123 7.53289474,2.76315789 C7.53289474,2.61782456 7.44609948,2.5 7.33903993,2.5 Z" id="Shape"></path>
                        </g>
                    </g>
                </g>
            </g>
        </g>
    </g>
</svg>