<?xml version="1.0" encoding="UTF-8" standalone="no"?>
<svg width="11px" height="13px" viewBox="0 0 11 13" version="1.1" xmlns="http://www.w3.org/2000/svg" xmlns:xlink="http://www.w3.org/1999/xlink">
    <!-- Generator: Sketch 49.3 (51167) - http://www.bohemiancoding.com/sketch -->
    <title>newspaper</title>
    <desc>Created with Sketch.</desc>
    <defs></defs>
    <g id="Symbols" stroke="none" stroke-width="1" fill="none" fill-rule="evenodd">
        <g id="Interact" transform="translate(-17.000000, -211.000000)" fill="#FFFFFF" fill-rule="nonzero">
            <g id="Menu">
                <g id="Menuinner" transform="translate(0.000000, 79.000000)">
                    <g id="newspaper" transform="translate(17.000000, 132.000000)">
                        <path d="M10.0176161,0 L0.245541842,0 C0.109937267,0 0,0.107000343 0,0.238982303 L0,12.7610177 C0,12.8929997 0.109937267,13 0.245541842,13 L10.0176161,13 C10.1532534,13 10.2631579,12.8929997 10.2631579,12.7610177 L10.2631579,0.238982303 C10.2631579,0.107000343 10.1532206,0 10.0176161,0 Z M9.77207421,12.5220354 L0.491083683,12.5220354 L0.491083683,0.477964606 L9.77207421,0.477964606 L9.77207421,12.5220354 Z" id="Shape"></path>
                        <path d="M0.921522692,2.05263158 L8.65742468,2.05263158 C8.78851592,2.05263158 8.89473684,1.96686102 8.89473684,1.8610654 L8.89473684,0.875776703 C8.89473684,0.769981089 8.78851592,0.684210526 8.65742468,0.684210526 L0.921522692,0.684210526 C0.790463093,0.684210526 0.684210526,0.769981089 0.684210526,0.875776703 L0.684210526,1.8610654 C0.684210526,1.96686102 0.790463093,2.05263158 0.921522692,2.05263158 Z M1.15883486,1.06734288 L8.42011251,1.06734288 L8.42011251,1.66949923 L1.15883486,1.66949923 L1.15883486,1.06734288 Z" id="Shape"></path>
                        <path d="M0.93622177,12.3157895 L4.53746244,12.3157895 C4.67663985,12.3157895 4.78947368,12.1626175 4.78947368,11.9736842 C4.78947368,11.7847509 4.67663985,11.6315789 4.53746244,11.6315789 L0.93622177,11.6315789 C0.79704436,11.6315789 0.684210526,11.7847509 0.684210526,11.9736842 C0.684210526,12.1626175 0.79704436,12.3157895 0.93622177,12.3157895 Z" id="Shape"></path>
                        <path d="M0.93622177,11.6315789 L4.53746244,11.6315789 C4.67663985,11.6315789 4.78947368,11.478407 4.78947368,11.2894737 C4.78947368,11.1005404 4.67663985,10.9473684 4.53746244,10.9473684 L0.93622177,10.9473684 C0.79704436,10.9473684 0.684210526,11.1005404 0.684210526,11.2894737 C0.684210526,11.478407 0.79704436,11.6315789 0.93622177,11.6315789 Z" id="Shape"></path>
                        <path d="M0.93622177,10.2631579 L4.53746244,10.2631579 C4.67663985,10.2631579 4.78947368,10.109986 4.78947368,9.92105263 C4.78947368,9.7321193 4.67663985,9.57894737 4.53746244,9.57894737 L0.93622177,9.57894737 C0.79704436,9.57894737 0.684210526,9.7321193 0.684210526,9.92105263 C0.684210526,10.109986 0.79704436,10.2631579 0.93622177,10.2631579 Z" id="Shape"></path>
                        <path d="M0.93622177,8.89473684 L4.53746244,8.89473684 C4.67663985,8.89473684 4.78947368,8.74156491 4.78947368,8.55263158 C4.78947368,8.36369825 4.67663985,8.21052632 4.53746244,8.21052632 L0.93622177,8.21052632 C0.79704436,8.21052632 0.684210526,8.36369825 0.684210526,8.55263158 C0.684210526,8.74156491 0.79704436,8.89473684 0.93622177,8.89473684 Z" id="Shape"></path>
                        <path d="M0.93622177,8.21052632 L4.53746244,8.21052632 C4.67663985,8.21052632 4.78947368,8.09793853 4.78947368,7.95906461 L4.78947368,5.72514591 C4.78947368,5.586272 4.67663985,5.47368421 4.53746244,5.47368421 L0.93622177,5.47368421 C0.79704436,5.47368421 0.684210526,5.586272 0.684210526,5.72514591 L0.684210526,7.95906461 C0.684210526,8.09793853 0.79704436,8.21052632 0.93622177,8.21052632 Z M1.18823301,5.97657409 L4.2854512,5.97657409 L4.2854512,7.70756938 L1.18823301,7.70756938 L1.18823301,5.97657409 Z" id="Shape"></path>
                        <path d="M0.93622177,4.78947368 L4.53746244,4.78947368 C4.67663985,4.78947368 4.78947368,4.63630175 4.78947368,4.44736842 C4.78947368,4.25843509 4.67663985,4.10526316 4.53746244,4.10526316 L0.93622177,4.10526316 C0.79704436,4.10526316 0.684210526,4.25843509 0.684210526,4.44736842 C0.684210526,4.63630175 0.79704436,4.78947368 0.93622177,4.78947368 Z" id="Shape"></path>
                        <path d="M0.93622177,4.10526316 L4.53746244,4.10526316 C4.67663985,4.10526316 4.78947368,3.95209123 4.78947368,3.76315789 C4.78947368,3.57422456 4.67663985,3.42105263 4.53746244,3.42105263 L0.93622177,3.42105263 C0.79704436,3.42105263 0.684210526,3.57422456 0.684210526,3.76315789 C0.684210526,3.95209123 0.79704436,4.10526316 0.93622177,4.10526316 Z" id="Shape"></path>
                        <path d="M9.32693612,9.57894737 L5.72569545,9.57894737 C5.58648444,9.57894737 5.47368421,9.69153515 5.47368421,9.83040907 L5.47368421,12.0643278 C5.47368421,12.2032017 5.58648444,12.3157895 5.72569545,12.3157895 L9.32693612,12.3157895 C9.46614714,12.3157895 9.57894737,12.2032017 9.57894737,12.0643278 L9.57894737,9.83040907 C9.57894737,9.69153515 9.46611353,9.57894737 9.32693612,9.57894737 Z M9.07492488,11.8128661 L5.9777067,11.8128661 L5.9777067,10.0818708 L9.07492488,10.0818708 L9.07492488,11.8128661 Z" id="Shape"></path>
                        <path d="M9.32693612,8.21052632 L5.72569545,8.21052632 C5.58648444,8.21052632 5.47368421,8.36369825 5.47368421,8.55263158 C5.47368421,8.74156491 5.58648444,8.89473684 5.72569545,8.89473684 L9.32693612,8.89473684 C9.46614714,8.89473684 9.57894737,8.74156491 9.57894737,8.55263158 C9.57894737,8.36369825 9.46611353,8.21052632 9.32693612,8.21052632 Z" id="Shape"></path>
                        <path d="M9.32693612,7.52631579 L5.72569545,7.52631579 C5.58648444,7.52631579 5.47368421,7.67948772 5.47368421,7.86842105 C5.47368421,8.05735439 5.58648444,8.21052632 5.72569545,8.21052632 L9.32693612,8.21052632 C9.46614714,8.21052632 9.57894737,8.05735439 9.57894737,7.86842105 C9.57894737,7.67948772 9.46611353,7.52631579 9.32693612,7.52631579 Z" id="Shape"></path>
                        <path d="M9.32693612,6.15789474 L5.72569545,6.15789474 C5.58648444,6.15789474 5.47368421,6.31106667 5.47368421,6.5 C5.47368421,6.68893333 5.58648444,6.84210526 5.72569545,6.84210526 L9.32693612,6.84210526 C9.46614714,6.84210526 9.57894737,6.68893333 9.57894737,6.5 C9.57894737,6.31106667 9.46611353,6.15789474 9.32693612,6.15789474 Z" id="Shape"></path>
                        <path d="M9.32693612,5.47368421 L5.72569545,5.47368421 C5.58648444,5.47368421 5.47368421,5.62685614 5.47368421,5.81578947 C5.47368421,6.00472281 5.58648444,6.15789474 5.72569545,6.15789474 L9.32693612,6.15789474 C9.46614714,6.15789474 9.57894737,6.00472281 9.57894737,5.81578947 C9.57894737,5.62685614 9.46611353,5.47368421 9.32693612,5.47368421 Z" id="Shape"></path>
                        <path d="M9.32693612,4.10526316 L5.72569545,4.10526316 C5.58648444,4.10526316 5.47368421,4.25843509 5.47368421,4.44736842 C5.47368421,4.63630175 5.58648444,4.78947368 5.72569545,4.78947368 L9.32693612,4.78947368 C9.46614714,4.78947368 9.57894737,4.63630175 9.57894737,4.44736842 C9.57894737,4.25843509 9.46611353,4.10526316 9.32693612,4.10526316 Z" id="Shape"></path>
                        <path d="M9.32693612,3.42105263 L5.72569545,3.42105263 C5.58648444,3.42105263 5.47368421,3.57422456 5.47368421,3.76315789 C5.47368421,3.95209123 5.58648444,4.10526316 5.72569545,4.10526316 L9.32693612,4.10526316 C9.46614714,4.10526316 9.57894737,3.95209123 9.57894737,3.76315789 C9.57894737,3.57422456 9.46611353,3.42105263 9.32693612,3.42105263 Z" id="Shape"></path>
                    </g>
                </g>
            </g>
        </g>
    </g>
</svg>