<?xml version="1.0" encoding="UTF-8" standalone="no"?>
<svg width="20px" height="22px" viewBox="0 0 20 22" version="1.1" xmlns="http://www.w3.org/2000/svg" xmlns:xlink="http://www.w3.org/1999/xlink">
    <!-- Generator: Sketch 49.3 (51167) - http://www.bohemiancoding.com/sketch -->
    <title>calendar</title>
    <desc>Created with Sketch.</desc>
    <defs></defs>
    <g id="Symbols" stroke="none" stroke-width="1" fill="none" fill-rule="evenodd">
        <g id="Side-" transform="translate(-20.000000, -139.000000)" fill-rule="nonzero">
            <g id="Side">
                <g id="Group-7" transform="translate(20.000000, 133.000000)">
                    <g id="Group-5">
                        <g id="calendar" transform="translate(0.000000, 6.000000)">
                            <polygon id="Shape" fill="#F6716F" points="17.037037 1.48148148 17.037037 2.96296296 14.4444444 2.96296296 14.4444444 1.48148148 5.55555556 1.48148148 5.55555556 2.96296296 2.96296296 2.96296296 2.96296296 1.48148148 0 1.48148148 0 5.55555556 20 5.55555556 20 1.48148148"></polygon>
                            <polygon id="Shape" fill="#FFE3BA" points="2.96296296 5.55555556 0 5.55555556 0 21.4814815 20 21.4814815 20 5.55555556 17.037037 5.55555556 14.4444444 5.55555556 5.55555556 5.55555556"></polygon>
                            <path d="M13.7037037,8.14814815 L12.962963,8.14814815 L10.3703704,8.14814815 L9.62962963,8.14814815 L7.03703704,8.14814815 L6.2962963,8.14814815 L2.96296296,8.14814815 L2.96296296,11.4814815 L2.96296296,12.2222222 L2.96296296,14.8148148 L2.96296296,15.5555556 L2.96296296,18.8888889 L6.2962963,18.8888889 L7.03703704,18.8888889 L9.62962963,18.8888889 L10.3703704,18.8888889 L12.962963,18.8888889 L13.7037037,18.8888889 L17.037037,18.8888889 L17.037037,15.5555556 L17.037037,14.8148148 L17.037037,12.2222222 L17.037037,11.4814815 L17.037037,8.14814815 L13.7037037,8.14814815 Z M10.3703704,8.88888889 L12.962963,8.88888889 L12.962963,11.4814815 L10.3703704,11.4814815 L10.3703704,8.88888889 Z M12.962963,14.8148148 L10.3703704,14.8148148 L10.3703704,12.2222222 L12.962963,12.2222222 L12.962963,14.8148148 Z M7.03703704,12.2222222 L9.62962963,12.2222222 L9.62962963,14.8148148 L7.03703704,14.8148148 L7.03703704,12.2222222 Z M7.03703704,8.88888889 L9.62962963,8.88888889 L9.62962963,11.4814815 L7.03703704,11.4814815 L7.03703704,8.88888889 Z M3.7037037,8.88888889 L6.2962963,8.88888889 L6.2962963,11.4814815 L3.7037037,11.4814815 L3.7037037,8.88888889 Z M3.7037037,12.2222222 L6.2962963,12.2222222 L6.2962963,14.8148148 L3.7037037,14.8148148 L3.7037037,12.2222222 Z M6.2962963,18.1481481 L3.7037037,18.1481481 L3.7037037,15.5555556 L6.2962963,15.5555556 L6.2962963,18.1481481 Z M9.62962963,18.1481481 L7.03703704,18.1481481 L7.03703704,15.5555556 L9.62962963,15.5555556 L9.62962963,18.1481481 Z M12.962963,18.1481481 L10.3703704,18.1481481 L10.3703704,15.5555556 L12.962963,15.5555556 L12.962963,18.1481481 Z M16.2962963,18.1481481 L13.7037037,18.1481481 L13.7037037,15.5555556 L16.2962963,15.5555556 L16.2962963,18.1481481 Z M16.2962963,14.8148148 L13.7037037,14.8148148 L13.7037037,12.2222222 L16.2962963,12.2222222 L16.2962963,14.8148148 Z M13.7037037,11.4814815 L13.7037037,8.88888889 L16.2962963,8.88888889 L16.2962963,11.4814815 L13.7037037,11.4814815 Z" id="Shape" fill="#3D3D63"></path>
                            <rect id="Rectangle-path" fill="#3D3D63" x="2.96296296" y="0" width="2.59259259" height="2.96296296"></rect>
                            <rect id="Rectangle-path" fill="#3D3D63" x="14.4444444" y="0" width="2.59259259" height="2.96296296"></rect>
                            <rect id="Rectangle-path" fill="#F6716F" x="10.3703704" y="12.2222222" width="2.59259259" height="2.59259259"></rect>
                        </g>
                    </g>
                </g>
            </g>
        </g>
    </g>
</svg>