<?xml version="1.0" encoding="UTF-8" standalone="no"?>
<svg width="21px" height="20px" viewBox="0 0 21 20" version="1.1" xmlns="http://www.w3.org/2000/svg" xmlns:xlink="http://www.w3.org/1999/xlink">
    <!-- Generator: Sketch 49.3 (51167) - http://www.bohemiancoding.com/sketch -->
    <title>target</title>
    <desc>Created with Sketch.</desc>
    <defs></defs>
    <g id="Symbols" stroke="none" stroke-width="1" fill="none" fill-rule="evenodd">
        <g id="Side-" transform="translate(-168.000000, -140.000000)" fill-rule="nonzero">
            <g id="Side">
                <g id="Group-7" transform="translate(20.000000, 133.000000)">
                    <g id="Group-2" transform="translate(148.000000, 2.000000)">
                        <g id="target" transform="translate(0.000000, 5.000000)">
                            <path d="M10.8333333,11.6666667 C8.07187769,11.6666667 5.83333333,9.52140234 5.83333333,6.8750164 L5.83333333,5.6249836 C5.83333333,2.97859766 8.07187769,0.833333333 10.8333333,0.833333333 C13.594789,0.833333333 15.8333333,2.97859766 15.8333333,5.6249836 L15.8333333,6.8750164 C15.8333333,9.52131707 13.594789,11.6666667 10.8333333,11.6666667 Z" id="Shape" fill="#FFE3BA"></path>
                            <path d="M13.0010976,10.8333333 L17.7789317,12.4279368 C19.1048639,12.8705387 20,14.1191063 20,15.5259762 L20,19.1666667 L0.833333333,19.1666667 L0.833333333,15.5259762 C0.833333333,14.1190193 1.7284694,12.8704516 3.05448805,12.4279368 L7.83232221,10.8333333 L13.0010976,10.8333333 Z" id="Shape" fill="#F6716F"></path>
                            <path d="M18.0280306,11.7200947 L14.7098676,10.6298553 C15.5881947,9.63447881 16.122259,8.33331909 16.122259,6.90994864 L16.122259,5.65707498 C16.1223452,2.53779559 13.5627844,0 10.4166667,0 C7.27054889,0 4.71098814,2.53779559 4.71098814,5.65716044 L4.71098814,6.9100341 C4.71098814,8.33340455 5.24505241,9.63456427 6.12346573,10.6299408 L2.80530272,11.7201802 C1.1273445,12.2714958 0,13.8193845 0,15.5720402 L0,19.1453795 C0,19.6173864 0.385981244,20 0.861950076,20 L19.9713833,20 C20.4473521,20 20.8333333,19.6173864 20.8333333,19.1453795 L20.8333333,15.5720402 C20.8333333,13.8193845 19.7059888,12.2714104 18.0280306,11.7200947 Z M6.43488829,5.65716044 C6.43488829,3.48027109 8.22119363,1.70924101 10.4166667,1.70924101 C12.6121397,1.70924101 14.3983588,3.48027109 14.3983588,5.65716044 L14.3983588,6.9100341 C14.3983588,8.27999077 13.6906116,9.48876601 12.6189491,10.19699 C12.5602503,10.225107 12.5049131,10.2597192 12.4537995,10.3003136 C11.85733,10.6539556 11.1606158,10.8579535 10.4165805,10.8579535 C9.67245897,10.8579535 8.97565853,10.6540411 8.37918908,10.3002282 C8.32816163,10.2596337 8.27282444,10.2250216 8.21421183,10.19699 C7.1425493,9.48876601 6.4348021,8.27999077 6.4348021,6.9100341 L6.4348021,5.65716044 L6.43488829,5.65716044 Z M19.1094332,18.2906735 L16.9674872,18.2906735 L16.9674872,16.2077924 C16.9674872,15.7357855 16.581506,15.3531719 16.1055372,15.3531719 C15.6295683,15.3531719 15.2435871,15.7357855 15.2435871,16.2077924 L15.2435871,18.2906735 L5.58974624,18.2906735 L5.58974624,16.2077924 C5.58974624,15.7357855 5.203765,15.3531719 4.72779617,15.3531719 C4.25182733,15.3531719 3.86584609,15.7357855 3.86584609,16.2077924 L3.86584609,18.2906735 L1.72390015,18.2906735 L1.72390015,15.5719548 C1.72390015,14.5575202 2.37639636,13.6616216 3.34755551,13.3425063 L7.73436423,11.9011888 C8.53451248,12.3255933 9.4475762,12.5671091 10.4167529,12.5671091 C11.3858433,12.5671091 12.298907,12.3255933 13.0990553,11.9011888 L17.485864,13.3425063 C18.456937,13.6616216 19.1094332,14.5576057 19.1094332,15.5719548 L19.1094332,18.2906735 Z" id="Shape" fill="#3D3D63"></path>
                        </g>
                    </g>
                </g>
            </g>
        </g>
    </g>
</svg>