<?xml version="1.0" encoding="UTF-8"?>
<svg width="30px" height="34px" viewBox="0 0 30 34" version="1.1" xmlns="http://www.w3.org/2000/svg" xmlns:xlink="http://www.w3.org/1999/xlink">
    <!-- Generator: Sketch 53.2 (72643) - https://sketchapp.com -->
    <title>rank</title>
    <desc>Created with Sketch.</desc>
    <g id="Page-1" stroke="none" stroke-width="1" fill="none" fill-rule="evenodd">
        <g id="MyskorelNew" transform="translate(-529.000000, -221.000000)">
            <g id="Group-9" transform="translate(529.000000, 217.000000)">
                <g id="rank" transform="translate(0.000000, 4.000000)">
                    <path d="M4.98506439,2 C4.83662272,3.68516157 3,3.95125505 3,3.95125505 C4.57692601,4.02222303 4.96982397,6 4.96982397,6 C5.0035053,4.58982112 7,3.93041641 7,3.93041641 C5.50445782,3.84473023 4.98506439,2 4.98506439,2 Z" id="Path" fill="#FFA742"></path>
                    <path d="M5.80725213,4.17560361 C4.63031051,4.09119523 4.18880353,2.20103868 4.18456353,2.18198932 C4.15857644,2.06670783 4.06830549,1.99018195 3.96791326,2.00102038 C3.868752,2.01185881 3.7903804,2.10644874 3.78203718,2.22550726 C3.66454818,3.90300067 2.23484791,4.19021907 2.17439373,4.20138593 C2.07003505,4.2204353 1.99480926,4.33128288 2.00028023,4.45773123 C2.00575119,4.5843438 2.09014085,4.68517405 2.19559372,4.69108592 C3.43025405,4.76087884 3.76822299,6.77961858 3.7713688,6.7999817 C3.79024363,6.91690537 3.87531716,7 3.97283713,7 C3.97858164,7 3.98432616,6.99967156 3.99007067,6.99917891 C4.09456613,6.98866891 4.17567321,6.88537539 4.17813514,6.75941969 C4.20466933,5.36208328 5.8455489,4.66119813 5.86209857,4.65430094 C5.9545579,4.61587378 6.01145595,4.50420511 5.99805208,4.38793831 C5.98451144,4.27134308 5.90477211,4.18250079 5.80725213,4.17560361 Z M3.95163714,5.87460966 C3.76617138,5.3604411 3.44447856,4.74035151 2.91406837,4.41684079 C3.31495343,4.18627782 3.79051718,3.77441747 4.03575324,3.0584242 C4.24788996,3.56273964 4.61020471,4.18824844 5.17562907,4.4909034 C4.76434918,4.76005775 4.22874158,5.21428651 3.95163714,5.87460966 Z" id="Shape" fill="#3D3D63" fill-rule="nonzero"></path>
                    <path d="M0.992458522,4 C0.91822883,5.26388173 0,5.46337694 0,5.46337694 C0.788407671,5.51653446 0.984917044,7 0.984917044,7 C1.00172377,5.94241269 2,5.44776965 2,5.44776965 C1.25220858,5.38364067 0.992458522,4 0.992458522,4 Z" id="Path" fill="#FFA742"></path>
                    <path d="M2.80357739,5.25432132 C2.00130519,5.20814288 1.69441903,4.15862083 1.69135852,4.14804664 C1.66506591,4.05408356 1.57102464,3.99358312 1.4714188,4.00054335 C1.37042181,4.00924363 1.2905702,4.08660924 1.28208423,4.18365088 C1.20167616,5.10320406 0.218416252,5.2632893 0.177377532,5.26958028 C0.0712333169,5.28510694 -0.00527955104,5.37545605 0.000285021175,5.47852096 C0.00584959339,5.58171973 0.0916831198,5.66390395 0.198940249,5.66872257 C1.03849508,5.70673613 1.27332003,6.8257266 1.27540674,6.83670235 C1.29432629,6.93200393 1.3809945,7 1.48032212,7 C1.4860258,7 1.4918686,6.9997323 1.49757229,6.99933075 C1.60399473,6.99089816 1.68662863,6.90657233 1.68913269,6.80377511 C1.70735666,6.03975626 2.84823308,5.64824344 2.85950134,5.64449563 C2.95354261,5.6131746 3.01155328,5.52229009 2.99805919,5.42739006 C2.98428687,5.33249003 2.902905,5.25994304 2.80357739,5.25432132 Z M1.47016677,6.1638357 C1.34162515,5.91139359 1.1446393,5.63552764 0.851525456,5.45710488 C1.10958249,5.31776647 1.36583104,5.10521182 1.52901212,4.79909564 C1.67619506,5.04993155 1.8983606,5.32847451 2.21651502,5.49833084 C1.95915356,5.64556643 1.66158806,5.86494746 1.47016677,6.1638357 Z" id="Shape" fill="#3D3D63" fill-rule="nonzero"></path>
                    <path d="M0.992458522,0 C0.91822883,1.26388173 0,1.46337694 0,1.46337694 C0.788407671,1.51653446 0.984917044,3 0.984917044,3 C1.00172377,1.94241269 2,1.44776965 2,1.44776965 C1.25220858,1.38364067 0.992458522,0 0.992458522,0 Z" id="Path" fill="#FFA742"></path>
                    <path d="M2.80357751,1.25437756 C2.00130527,1.20806677 1.6944191,0.158578541 1.69135859,0.148004689 C1.66506598,0.0540446408 1.57102471,-0.00618615942 1.47141886,0.000506151715 C1.37042187,0.00920615618 1.29057026,0.0865692728 1.28208428,0.183607784 C1.20167621,1.10326518 0.218416261,1.26321142 0.177377539,1.26950219 C0.0712333199,1.28502835 -0.00527955126,1.37537455 0.000285021187,1.47843614 C0.00584959363,1.58163158 0.0916831236,1.66381316 0.198940258,1.66863162 C1.03849513,1.70664395 1.27332008,2.82573222 1.2754068,2.83670761 C1.29432634,2.93200612 1.38099456,3 1.48032218,3 C1.48602586,3 1.49186867,2.99973231 1.49757235,2.99933077 C1.60413391,2.99089846 1.6866287,2.90657534 1.68913276,2.80378144 C1.70735673,2.03965335 2.8482332,1.648287 2.85936234,1.6445393 C2.95354273,1.61335313 3.0115534,1.5223377 2.99805931,1.42744073 C2.984287,1.33254376 2.90290512,1.26013295 2.80357751,1.25437756 Z M1.47016683,2.1637288 C1.34162521,1.91142867 1.14463935,1.63543776 0.851525491,1.45715459 C1.10958254,1.31782067 1.3658311,1.10513903 1.52901219,0.799032716 C1.67619513,1.04986054 1.89822157,1.32839453 2.21651511,1.49837923 C1.95915364,1.64561007 1.66158813,1.86485019 1.47016683,2.1637288 Z" id="Shape" fill="#3D3D63" fill-rule="nonzero"></path>
                    <path d="M17.5317716,19.5826256 L10.4766967,17.0410323 C10.1113716,16.9093924 9.71052679,17.1049803 9.58151082,17.4777353 L7.95068432,22.190563 L7.19361447,24.3784209 L5.0417337,30.5967956 C4.83536685,31.192994 5.43245102,31.7495057 5.99577674,31.4859264 L9.69320724,29.7558878 C10.0473774,29.5902521 10.4661289,29.7506461 10.6256742,30.1133672 L12.1505286,33.5773382 C12.4098815,34.1667974 13.2413667,34.1316036 13.4521368,33.522376 L17.95977,20.4961675 C18.088786,20.1232627 17.8972435,19.7142655 17.5317716,19.5826256 Z" id="Path" fill="#FFA742"></path>
                    <path d="M17.3592779,18.6777701 L10.0105746,16.0559883 C9.76870617,15.9694762 9.50803253,15.9836889 9.27671334,16.0953823 C9.04524127,16.2072301 8.87079633,16.4034273 8.78548496,16.6478242 L7.086749,21.5091894 C7.04455198,21.6296885 7.10723596,21.7622375 7.22664131,21.8047211 C7.34574088,21.8473593 7.47707147,21.7841745 7.5191156,21.6633665 L9.21785155,16.8020012 C9.26249478,16.6743958 9.35361589,16.5719716 9.47455011,16.5135759 C9.59548433,16.4550257 9.73140155,16.4479193 9.85783974,16.4928747 L17.206543,19.1146565 C17.4673695,19.2079661 17.6046628,19.4977818 17.5126243,19.7614894 L12.8172882,33.1985267 C12.7338115,33.437053 12.5289419,33.5292812 12.3648933,33.536233 C12.2046669,33.5434939 11.9894009,33.4684137 11.8868133,33.2374571 L10.2984623,29.6641961 C10.1928168,29.4262877 10.0015542,29.2449211 9.76014445,29.1531564 C9.51904045,29.0618552 9.25699082,29.0712788 9.02246099,29.179728 L5.17106532,30.9643502 C4.98224893,31.0516348 4.77753221,31.0195017 4.62388001,30.8778381 C4.4702278,30.7360199 4.41992773,30.5330253 4.489033,30.3346653 L6.73052051,23.9202523 C6.77271754,23.7997533 6.71003355,23.6672043 6.59062821,23.6247206 C6.47168153,23.581928 6.34019805,23.6452673 6.29815392,23.7660753 L4.0566664,30.1804883 C3.92610025,30.5543444 4.02486575,30.9526093 4.31474095,31.2200245 C4.60461615,31.4874398 5.00609942,31.5509335 5.36232791,31.385479 L9.21387647,29.6008568 C9.33618668,29.5441605 9.47317412,29.5393714 9.59915364,29.5869531 C9.72528604,29.6349982 9.82527464,29.7296982 9.88046712,29.8539049 L11.4688181,33.4271659 C11.6270569,33.7835651 11.9588234,34 12.3416544,34 C12.35572,34 12.3700915,33.999691 12.3841572,33.9990731 C12.7847231,33.9823886 13.1164895,33.7347475 13.2499606,33.3525492 L17.9452967,19.9155119 C18.1212705,19.4112696 17.8586093,18.8558925 17.3592779,18.6777701 Z" id="Path" fill="#3D3D63"></path>
                    <path d="M29.9582663,30.5970848 L25.4184892,17.4777607 C25.2894732,17.1048484 24.8886284,16.9094065 24.5233033,17.041049 L17.4682284,19.5826934 C17.1027565,19.7143359 16.911214,20.1233413 17.04023,20.4961039 L19.2932393,27.0069429 L20.0614641,29.227044 L21.5478632,33.5224245 C21.7586333,34.1316644 22.5901185,34.1667092 22.8494714,33.5773879 L24.3743258,30.1133472 C24.5340179,29.7506189 24.9526226,29.5902217 25.3067928,29.7558606 L29.0042233,31.485934 C29.567549,31.7498182 30.1646332,31.1932952 29.9582663,30.5970848 Z" id="Path" fill="#FFA742"></path>
                    <path d="M29.943259,30.1803857 L25.2142938,16.6477508 C25.1289825,16.4033573 24.9545378,16.2070083 24.723066,16.0953164 C24.4917472,15.9836246 24.230921,15.9695665 23.9893586,16.055923 L16.6403593,18.6776692 C16.1411814,18.8557892 15.8786735,19.4111588 16.0548,19.9155487 L18.4017769,26.6317361 C18.4436681,26.752388 18.5751514,26.8157264 18.6942508,26.7730888 C18.813656,26.7306058 18.8763399,26.5980586 18.834143,26.4775612 L16.487166,19.7613738 C16.3951277,19.4978242 16.5324207,19.207858 16.793094,19.1145497 L24.1420933,16.4928035 C24.2683784,16.4478487 24.4044484,16.4549549 24.5252295,16.5135043 C24.6461636,16.5718992 24.7372846,16.6743221 24.7819278,16.8019258 L29.5108929,30.3345606 C29.5799981,30.5327634 29.5296981,30.7359098 29.3760461,30.877726 C29.2223941,31.0195422 29.0178305,31.0516748 28.8288615,30.964237 L24.9776238,29.179639 C24.7434001,29.0711913 24.481045,29.0617678 24.2397885,29.1530678 C23.998379,29.2448312 23.8071167,29.4261953 23.7014714,29.6641005 L22.1131225,33.237313 C22.0105349,33.4681119 21.796951,33.5430366 21.6350431,33.5360849 C21.4709947,33.5291331 21.2661254,33.4369062 21.1826488,33.1983831 L19.6343564,28.7676304 C19.5923124,28.6469785 19.460982,28.5834856 19.3418825,28.6262777 C19.2224774,28.6687607 19.1597935,28.8011534 19.2019904,28.9218054 L20.7502828,33.352558 C20.8837536,33.7347512 21.2155196,33.9822344 21.616085,33.9990731 C21.6304565,33.999691 21.644675,34 21.6585878,34 C22.0412653,34 22.3731842,33.7835681 22.5314229,33.4271737 L24.1197717,29.8539612 C24.1749641,29.7297561 24.2749526,29.6350575 24.4010848,29.587013 C24.5270642,29.5389685 24.6640514,29.5440665 24.7865144,29.6009166 L28.637905,31.3855145 C28.994133,31.5508123 29.3956157,31.4874739 29.6854905,31.2200623 C29.9750596,30.9524962 30.0739778,30.5542367 29.943259,30.1803857 Z" id="Path" fill="#3D3D63"></path>
                    <circle id="Oval" fill="#3D3D63" cx="17.5" cy="11.5" r="11.5"></circle>
                    <path d="M17.5,0 C11.1588884,0 6,5.15888841 6,11.5 C6,17.8411116 11.1588884,23 17.5,23 C23.8411116,23 29,17.8411116 29,11.5 C29,5.15888841 23.8411116,0 17.5,0 Z M17.5,22.5459391 C11.4092273,22.5459391 6.45406088,17.5907727 6.45406088,11.5 C6.45406088,5.40922731 11.4092273,0.454060884 17.5,0.454060884 C23.5907727,0.454060884 28.5459391,5.40922731 28.5459391,11.5 C28.5459391,17.5907727 23.5907727,22.5459391 17.5,22.5459391 Z" id="Shape" fill="#3D3D63" fill-rule="nonzero"></path>
                    <ellipse id="Oval" fill="#FFA742" cx="17.5" cy="11" rx="8.5" ry="8"></ellipse>
                    <path d="M17.5,3 C12.8130473,3 9,6.81304735 9,11.5 C9,16.1869527 12.8130473,20 17.5,20 C22.1869527,20 26,16.1869527 26,11.5 C26,6.81304735 22.1869527,3 17.5,3 Z M17.5,19.5461018 C13.0634478,19.5461018 9.45389818,15.9367035 9.45389818,11.5 C9.45389818,7.06329655 13.0632965,3.45389818 17.5,3.45389818 C21.9367035,3.45389818 25.5461018,7.06329655 25.5461018,11.5 C25.5461018,15.9367035 21.9365522,19.5461018 17.5,19.5461018 Z" id="Shape" fill="#3D3D63" fill-rule="nonzero"></path>
                    <path d="M22.831333,9.75535545 C23.1616337,9.41862264 22.9793516,8.83196845 22.522961,8.7625193 L19.6863955,8.33132927 C19.5051794,8.30377261 19.3484807,8.18478519 19.2674664,8.01291446 L17.9989535,5.32446771 C17.794895,4.8918441 17.205105,4.8918441 17.0010465,5.32446771 L15.7325336,8.01291446 C15.6515193,8.1846259 15.4948206,8.30377261 15.3136045,8.33132927 L12.477039,8.7625193 C12.0206484,8.83180916 11.8383663,9.41862264 12.168667,9.75535545 L14.2211301,11.8480687 C14.3522453,11.9817105 14.4120923,12.1744478 14.3811789,12.363203 L13.8966161,15.3182962 C13.8186475,15.7937681 14.2957485,16.1563054 14.7040178,15.9318699 L17.2410437,14.5366747 C17.4030722,14.4474739 17.5967755,14.4474739 17.7589563,14.5366747 L20.2959822,15.9318699 C20.7042515,16.1563054 21.1813525,15.7937681 21.1033839,15.3182962 L20.6186688,12.3633622 C20.5877554,12.1746071 20.6476024,11.9818698 20.7787176,11.8482279 L22.831333,9.75535545 Z" id="Path" fill="#FFC670"></path>
                    <path d="M22.771822,9.95041767 C22.9787091,9.73990126 23.0518142,9.43107263 22.962626,9.1440742 C22.8734379,8.85707576 22.6402329,8.65174976 22.3542461,8.60839467 L19.6310843,8.19530012 C19.5282986,8.17957627 19.4395492,8.11240642 19.3936392,8.01531546 L18.1757097,5.43858856 C18.0479221,5.16822993 17.7889841,5 17.5000731,5 C17.2111621,5 16.9522241,5.16822993 16.8244366,5.43858856 L15.606507,8.01531546 C15.5605971,8.11240642 15.4718476,8.17957627 15.3692081,8.19530012 L12.6457539,8.60839467 C12.3597671,8.65174976 12.1265621,8.85707576 12.037374,9.1440742 C11.9481858,9.43107263 12.0212909,9.73990126 12.228178,9.95041767 L14.1987968,11.9562009 C14.2730715,12.031767 14.306846,12.1406126 14.2893008,12.2471684 L13.8240605,15.0792934 C13.7752264,15.37652 13.8901475,15.6714567 14.1239373,15.8488461 C14.3578733,16.0262356 14.6619902,16.0491344 14.9175653,15.908841 L17.3534244,14.5717031 C17.4449519,14.5213257 17.5546094,14.521173 17.6464293,14.5717031 L20.0822884,15.908841 C20.1935543,15.9697518 20.3138851,15.9999783 20.4336311,15.9999783 C20.5891986,15.9999783 20.7437426,15.9491429 20.8757703,15.8489988 C21.1095601,15.6716093 21.2244812,15.3766726 21.1756471,15.0792934 L20.7104067,12.2474738 C20.6928615,12.1407653 20.726636,12.0319196 20.8009107,11.9563535 L22.771822,9.95041767 Z M20.2782099,12.3247191 L20.7434502,15.1566914 C20.764212,15.2827875 20.7172786,15.4030826 20.6181482,15.4783434 C20.5190178,15.5534515 20.3947393,15.5629163 20.2865439,15.5032267 L17.8506848,14.1660888 C17.740881,14.1057886 17.620404,14.0757148 17.5000731,14.0757148 C17.3797423,14.0757148 17.2592652,14.1057886 17.1494615,14.1660888 L14.7136024,15.5032267 C14.6052607,15.5629163 14.4811284,15.5534515 14.381998,15.4783434 C14.2827214,15.4030826 14.2359342,15.2827875 14.256696,15.1566914 L14.7219363,12.3245664 C14.7637524,12.069321 14.682752,11.8090378 14.5052531,11.6281372 L12.5341956,9.62235403 C12.4463234,9.53304867 12.4166428,9.40710521 12.4545112,9.28543619 C12.4923796,9.16361452 12.5874161,9.07995752 12.7087704,9.06148582 L15.4322246,8.64839126 C15.6777113,8.61098987 15.889862,8.45008756 15.9995196,8.21804627 L17.2174491,5.64131937 C17.271693,5.52652 17.3774029,5.45797622 17.4999269,5.45797622 C17.6224509,5.45797622 17.7281608,5.52652 17.7824047,5.64131937 L19.0003342,8.21804627 C19.1099917,8.45024022 19.3221425,8.61098987 19.5677754,8.64839126 L22.2910834,9.06148582 C22.4124377,9.07995752 22.5074742,9.16361452 22.5453426,9.28543619 C22.583211,9.40710521 22.5535304,9.53304867 22.4656581,9.62235403 L20.4948932,11.6281372 C20.3173942,11.8090378 20.2363938,12.069321 20.2782099,12.3247191 Z" id="Shape" fill="#3D3D63" fill-rule="nonzero"></path>
                    <path d="M17.1123929,3 C16.7341793,3 16.3633817,3.02707785 16,3.07972922 C19.0449901,3.51748778 21.535267,5.72583678 22.4251813,8.63971418 C22.5290046,8.72997367 22.6090969,8.85031967 22.6535926,8.99022189 C22.7099539,9.16622791 22.7025379,9.34975555 22.6387607,9.51372697 C22.7277521,9.99511094 22.7752142,10.4915382 22.7752142,11 C22.7752142,15.0270778 19.8236651,18.3711922 16,18.9202708 C16.3633817,18.9729222 16.7341793,19 17.1123929,19 C21.4611074,19 25,15.4106807 25,11 C25,6.58931929 21.4611074,3 17.1123929,3 Z" id="Path" fill="#FFC670"></path>
                </g>
            </g>
        </g>
    </g>
</svg>