<?xml version="1.0" encoding="UTF-8" standalone="no"?>
<svg width="16px" height="16px" viewBox="0 0 16 16" version="1.1" xmlns="http://www.w3.org/2000/svg" xmlns:xlink="http://www.w3.org/1999/xlink">
    <!-- Generator: Sketch 49.3 (51167) - http://www.bohemiancoding.com/sketch -->
    <title>Group 3</title>
    <desc>Created with Sketch.</desc>
    <defs></defs>
    <g id="Symbols" stroke="none" stroke-width="1" fill="none" fill-rule="evenodd">
        <g id="Interact" transform="translate(-15.000000, -141.000000)" fill="#FFFFFF" fill-rule="nonzero">
            <g id="Menu">
                <g id="Menuinner" transform="translate(0.000000, 79.000000)">
                    <g id="Group-3" transform="translate(15.000000, 62.000000)">
                        <path d="M11.46,0 L7.2,0 L8,1.28 L10.72,1.28 L10.72,5.28 L14.72,5.28 L14.72,14.72 L4.96,14.72 L4.96,6.90304 L3.68,6.764 L3.68,16 L16,16 L16,4.71584 L11.46,0 Z M11.68,4.32 L11.68,2.1408 L13.78608,4.32 L11.68,4.32 Z" id="Shape"></path>
                        <rect id="Rectangle-path" x="6.24" y="7.68" width="7.04" height="1"></rect>
                        <rect id="Rectangle-path" x="6.24" y="9.92" width="7.04" height="1"></rect>
                        <rect id="Rectangle-path" x="6.24" y="12.16" width="7.04" height="1"></rect>
                        <path d="M6.86464,5.0384 C7.3888,4.48544 7.63296,3.76512 7.61376,3.03856 C7.57408,1.53632 6.26288,0.29296 4.76,0.3328 C3.24512,0.3728 2.00112,1.65856 2.04128,3.17424 C2.05856,3.82528 2.30032,4.47008 2.7528,4.98448 L1.5024,5.53104 L0.24704,6.868 C0.15008,6.99536 0.10464,7.15952 0.10896,7.3224 C0.11952,7.72272 0.4672,8.07712 0.88032,8.06624 C1.04304,8.06192 1.192,8.00816 1.32704,7.90432 L2.59488,6.568 L3.07584,5.3016 C3.61328,5.72592 4.25776,5.9344 4.90832,5.91728 C5.6224,5.8984 6.3288,5.604 6.86464,5.0384 Z M3.65232,4.37136 C3.30528,4.04272 3.13088,3.60832 3.11888,3.1576 C3.09472,2.24368 3.85024,1.43408 4.7888,1.40944 C5.70352,1.38528 6.51264,2.14096 6.53728,3.06704 C6.5624,4.01904 5.80672,4.81616 4.87952,4.84064 C4.44176,4.85232 3.99888,4.68832 3.65232,4.37136 Z" id="Shape"></path>
                    </g>
                </g>
            </g>
        </g>
    </g>
</svg>