<?xml version="1.0" encoding="UTF-8" standalone="no"?>
<svg width="26px" height="26px" viewBox="0 0 26 26" version="1.1" xmlns="http://www.w3.org/2000/svg" xmlns:xlink="http://www.w3.org/1999/xlink">
    <!-- Generator: Sketch 49.3 (51167) - http://www.bohemiancoding.com/sketch -->
    <title>Shape</title>
    <desc>Created with Sketch.</desc>
    <defs>
        <circle id="path-1" cx="12" cy="12" r="12"></circle>
    </defs>
    <g id="Page-1" stroke="none" stroke-width="1" fill="none" fill-rule="evenodd">
        <g id="Myskorkel-Score" transform="translate(-252.000000, -231.000000)">
            <g id="Score" transform="translate(231.000000, 80.000000)">
                <g id="Group-6" transform="translate(22.000000, 147.000000)">
                    <g id="Shape" transform="translate(0.000000, 5.000000)">
                        <mask id="mask-2" fill="white">
                            <use xlink:href="#path-1"></use>
                        </mask>
                        <use id="Mask" stroke="#3D3D63" fill="#FFE3BA" xlink:href="#path-1"></use>
                        <path d="M18.9639844,15.2360156 C17.9837227,14.2557891 16.816957,13.5301289 15.5439492,13.0908516 C16.9073789,12.151793 17.803125,10.5802031 17.803125,8.803125 C17.803125,5.93412891 15.4689961,3.6 12.6,3.6 C9.73100391,3.6 7.396875,5.93412891 7.396875,8.803125 C7.396875,10.5802031 8.29262109,12.151793 9.65608594,13.0908516 C8.38307812,13.5301289 7.2163125,14.2557891 6.23605078,15.2360156 C4.53617578,16.9359258 3.6,19.1960156 3.6,21.6 L5.00625,21.6 C5.00625,17.4127852 8.41278516,14.00625 12.6,14.00625 C16.7872148,14.00625 20.19375,17.4127852 20.19375,21.6 L21.6,21.6 C21.6,19.1960156 20.6638242,16.9359258 18.9639844,15.2360156 Z M12.6,12.6 C10.5064102,12.6 8.803125,10.89675 8.803125,8.803125 C8.803125,6.7095 10.5064102,5.00625 12.6,5.00625 C14.6935898,5.00625 16.396875,6.7095 16.396875,8.803125 C16.396875,10.89675 14.6935898,12.6 12.6,12.6 Z" fill="#3D3D63" fill-rule="nonzero" mask="url(#mask-2)"></path>
                    </g>
                </g>
            </g>
        </g>
    </g>
</svg>