<?xml version="1.0" encoding="UTF-8" standalone="no"?>
<svg width="26px" height="26px" viewBox="0 0 26 26" version="1.1" xmlns="http://www.w3.org/2000/svg" xmlns:xlink="http://www.w3.org/1999/xlink">
    <!-- Generator: Sketch 49.3 (51167) - http://www.bohemiancoding.com/sketch -->
    <title>Group</title>
    <desc>Created with Sketch.</desc>
    <defs>
        <path d="M12,0 C5.45217391,0.052173913 0.208695652,5.34782609 0.260869565,11.8173913 C0.313043478,18.2347826 5.55652174,23.4782609 12,23.4782609 C12,23.4782609 12.0782609,23.4782609 12.0782609,23.4782609 C15.2086957,23.4521739 18.1565217,22.226087 20.3478261,19.9826087 C22.5391304,17.7391304 23.7652174,14.7913043 23.7391304,11.6608696 C23.6869565,5.24347826 18.4434783,0 12,0 Z" id="path-1"></path>
    </defs>
    <g id="Page-1" stroke="none" stroke-width="1" fill="none" fill-rule="evenodd">
        <g id="Myskorkel-Score" transform="translate(-374.000000, -231.000000)" fill-rule="nonzero">
            <g id="Score" transform="translate(231.000000, 80.000000)">
                <g id="Group-7" transform="translate(144.000000, 147.000000)">
                    <g id="Group" transform="translate(0.000000, 5.000000)">
                        <g id="Shape">
                            <use fill="#FFE3BA" fill-rule="evenodd" xlink:href="#path-1"></use>
                            <path stroke="#3D3D63" stroke-width="1" d="M11.9960161,-0.499984128 L12,-0.5 C18.7062894,-0.5 24.1846121,4.95307691 24.2391131,11.656703 C24.2661272,14.8983962 23.0040532,17.9787123 20.7055142,20.3319785 C18.4328122,22.6587924 15.3631546,23.9509041 12.0782609,23.9782609 C12.0684783,23.9782609 12.0684783,23.9782609 12.0391304,23.9782609 C12.0097826,23.9782609 12.0097826,23.9782609 12,23.9782609 C5.29371058,23.9782609 -0.184612059,18.525184 -0.239114176,11.8214234 C-0.293570327,5.06886082 5.17892371,-0.445664667 11.9960161,-0.499984128 Z"></path>
                        </g>
                        <path d="M19.7217391,11.4521739 L17.8434783,11.4521739 L16.0695652,6.52173913 C15.9652174,6.20869565 15.6521739,6 15.3391304,6 C15.026087,6 14.7391304,6.20869565 14.6347826,6.52173913 L12.1304348,14.4782609 L9.6,8.76521739 C9.49565217,8.50434783 9.26086957,8.34782609 8.97391304,8.32173913 C8.68695652,8.29565217 8.42608696,8.42608696 8.26956522,8.66086957 L6.4173913,11.4521739 L4.17391304,11.4521739 C3.75652174,11.4521739 3.4173913,11.7913043 3.4173913,12.2086957 C3.4173913,12.626087 3.75652174,12.9652174 4.17391304,12.9652174 L6.80869565,12.9652174 C7.06956522,12.9652174 7.30434783,12.8347826 7.43478261,12.626087 L8.76521739,10.6434783 L11.5565217,16.9304348 C11.6869565,17.2173913 11.9478261,17.373913 12.2347826,17.373913 C12.2608696,17.373913 12.2608696,17.373913 12.2869565,17.373913 C12.6,17.3478261 12.8608696,17.1391304 12.9652174,16.8521739 L15.3913043,9.13043478 L16.5913043,12.4434783 C16.6956522,12.7565217 16.9826087,12.9391304 17.2956522,12.9391304 L19.6956522,12.9391304 C20.1130435,12.9391304 20.4521739,12.6 20.4521739,12.1826087 C20.4782609,11.7913043 20.1391304,11.4521739 19.7217391,11.4521739 Z" id="Shape" fill="#3D3D63"></path>
                    </g>
                </g>
            </g>
        </g>
    </g>
</svg>