<?xml version="1.0" encoding="UTF-8" standalone="no"?>
<svg width="67px" height="61px" viewBox="0 0 67 61" version="1.1" xmlns="http://www.w3.org/2000/svg" xmlns:xlink="http://www.w3.org/1999/xlink">
    <!-- Generator: Sketch 49.3 (51167) - http://www.bohemiancoding.com/sketch -->
    <title>Group</title>
    <desc>Created with Sketch.</desc>
    <defs></defs>
    <g id="Page-1" stroke="none" stroke-width="1" fill="none" fill-rule="evenodd">
        <g id="Myskorkel-Score" transform="translate(-284.000000, -124.000000)">
            <g id="Score" transform="translate(231.000000, 80.000000)">
                <g id="Group-5" transform="translate(49.000000, 30.000000)">
                    <g id="Group" transform="translate(0.000000, 4.000000)">
                        <g id="Medal">
                            <rect id="Rectangle-path" x="0" y="0" width="75" height="75"></rect>
                            <polyline id="Shape" points="62.0375 42.1 62.5125 36.9625 69.425 33.0875 62.15 29.95 60.6 22.175 57.2875 25.95"></polyline>
                            <path d="M23.95,16.875 L52.2875,16.875 L52.2875,27.7125 C52.2875031,29.4816728 51.5838475,31.1782028 50.3316816,32.4280239 C49.0795156,33.6778449 47.3816696,34.3783193 45.6125,34.375 L30.6125,34.375 C26.9329029,34.375 23.95,31.3920971 23.95,27.7125 L23.95,16.875 Z" id="Shape" fill="#79DEB4" fill-rule="nonzero"></path>
                            <path d="M43.1125,30.025 L43.1125,16.875 L33.1125,16.875 L33.1125,30.025 C23.3609664,32.5428352 17.0028739,41.9189336 18.2719061,51.9100026 C19.5409382,61.9010716 28.0411594,69.3899167 38.1125,69.3899167 C48.1838406,69.3899167 56.6840618,61.9010716 57.9530939,51.9100026 C59.2221261,41.9189336 52.8640336,32.5428352 43.1125,30.025 Z" id="Shape" fill="#EDF4FF" fill-rule="nonzero"></path>
                            <path d="M38.1125,56.875 C30.7564527,56.8856242 23.6477416,54.2198576 18.1125,49.375 C18.1125,60.420695 27.066805,69.375 38.1125,69.375 C49.158195,69.375 58.1125,60.420695 58.1125,49.375 C52.5778549,54.2208552 45.4687538,56.8867681 38.1125,56.875 Z" id="Shape" fill="#D8E3F0" fill-rule="nonzero"></path>
                            <circle id="Oval" cx="38.1125" cy="49.375" r="20"></circle>
                            <path d="M54.7875,11.875 L21.45,11.875 C20.0692881,11.875 18.95,12.9942881 18.95,14.375 C18.95,15.7557119 20.0692881,16.875 21.45,16.875 L54.7875,16.875 C56.1682119,16.875 57.2875,15.7557119 57.2875,14.375 C57.2875,12.9942881 56.1682119,11.875 54.7875,11.875 Z" id="Shape" fill="#FFC670" fill-rule="nonzero"></path>
                            <circle id="Oval" fill="#FFC670" fill-rule="nonzero" cx="38.1125" cy="49.375" r="15"></circle>
                            <path d="M38.1125,52.8125 C33.0017296,52.8219024 27.9275343,51.9508321 23.1125,50.2375 C23.7108699,58.0548522 30.2285305,64.0926917 38.06875,64.0926917 C45.9089695,64.0926917 52.4266301,58.0548522 53.025,50.2375 C48.2372675,51.9395245 43.1937662,52.8104057 38.1125,52.8125 Z" id="Shape" fill="#FFA742" fill-rule="nonzero"></path>
                            <circle id="Oval" cx="38.1125" cy="49.375" r="15"></circle>
                            <path d="M69.925,31.9375 L63.25,29.0625 L61.825,21.875 C61.7321966,21.4092499 61.3834809,21.0363178 60.925,20.9125 C60.4686034,20.7958085 59.9853623,20.9456132 59.675,21.3 L56.3625,25.05 C56.1615278,25.2778803 56.0504372,25.5711595 56.05,25.875 L56.05,28.375 C56.0490937,29.5440044 55.7841692,30.6977078 55.275,31.75 C55.0516505,32.2098809 55.1308632,32.7594189 55.475,33.1375 C57.9459891,35.7773732 59.7840347,38.9447959 60.85,42.4 C61.0087593,42.9239692 61.4900209,43.2836489 62.0375,43.2875 L62.175,43.2875 C62.7661734,43.2247614 63.2313704,42.7543375 63.2875,42.1625 L63.75,37.725 L70,34.175 C70.4132354,33.9434256 70.6600671,33.4981606 70.6375,33.025 C70.6220318,32.5577896 70.347164,32.1382546 69.925,31.9375 Z" id="Shape" fill="#FFEFB0" fill-rule="nonzero"></path>
                            <path d="M14.3625,49.375 C14.3726064,47.3754 14.6329635,45.3849277 15.1375,43.45 C15.2453814,42.9864001 15.0806052,42.5017645 14.7125,42.2 L11.925,39.9 C11.5681445,39.6243334 11.0904764,39.5622365 10.675,39.7375 C10.2440413,39.9367255 9.96315218,40.362902 9.95,40.8375 L9.8,46.6125 L4.8875,49.7625 C4.4678933,50.0300484 4.24696029,50.5210107 4.325,51.0125 C4.38337883,51.4829677 4.70287893,51.8799224 5.15,52.0375 L10.6,53.975 L12.1,59.55 C12.2238178,60.0084809 12.5967499,60.3571966 13.0625,60.45 L13.3125,60.45 C13.6993708,60.4490701 14.0640092,60.2690587 14.3,59.9625 L15.55,58.375 C15.8068585,58.0401041 15.8773744,57.5982043 15.7375,57.2 C14.8430512,54.6873742 14.3782154,52.0420358 14.3625,49.375 Z" id="Shape" fill="#FFEFB0" fill-rule="nonzero"></path>
                            <polyline id="Shape" points="13.9375 43.1375 11.1375 40.875 10.9625 47.3 5.575 50.8125 11.6375 52.9625 13.3125 59.175 14.525 57.5875"></polyline>
                            <path d="M51.55,32.925 C52.8243333,31.4870071 53.5309209,29.6338812 53.5375,27.7125 L53.5375,18.125 L54.7875,18.125 C56.8585678,18.125 58.5375,16.4460678 58.5375,14.375 C58.5375,12.3039322 56.8585678,10.625 54.7875,10.625 L21.45,10.625 C19.3789322,10.625 17.7,12.3039322 17.7,14.375 C17.7,16.4460678 19.3789322,18.125 21.45,18.125 L22.7,18.125 L22.7,27.7125 C22.6996742,29.6328887 23.4021905,31.4869983 24.675,32.925 C17.71354,38.6074719 15.0790539,48.0545661 18.0952683,56.5194856 C21.1114828,64.9844051 29.1262654,70.636959 38.1125,70.636959 C47.0987346,70.636959 55.1135172,64.9844051 58.1297317,56.5194856 C61.1459461,48.0545661 58.51146,38.6074719 51.55,32.925 Z M21.45,15.625 C20.7596441,15.625 20.2,15.0653559 20.2,14.375 C20.2,13.6846441 20.7596441,13.125 21.45,13.125 L54.7875,13.125 C55.4778559,13.125 56.0375,13.6846441 56.0375,14.375 C56.0375,15.0653559 55.4778559,15.625 54.7875,15.625 L21.45,15.625 Z M51.0375,18.125 L51.0375,27.7125 C51.0333006,29.1175386 50.4765439,30.4645305 49.4875,31.4625 C47.8914998,30.4449219 46.1683228,29.6421736 44.3625,29.075 L44.3625,18.125 L51.0375,18.125 Z M41.8625,18.125 L41.8625,28.475 C40.6250231,28.2497472 39.3702875,28.1326385 38.1125,28.125 C36.8547717,28.133827 35.6001386,28.2509261 34.3625,28.475 L34.3625,18.125 L41.8625,18.125 Z M31.8625,18.125 L31.8625,29.0625 C30.0597815,29.627536 28.3404618,30.4304457 26.75,31.45 C25.7609561,30.4520305 25.2041994,29.1050386 25.2,27.7 L25.2,18.125 L31.8625,18.125 Z M38.1125,68.125 C27.7571609,68.125 19.3625,59.7303391 19.3625,49.375 C19.3625,39.0196609 27.7571609,30.625 38.1125,30.625 C48.4678391,30.625 56.8625,39.0196609 56.8625,49.375 C56.8625,54.3478092 54.8870592,59.1169451 51.3707521,62.6332521 C47.8544451,66.1495592 43.0853092,68.125 38.1125,68.125 Z" id="Shape" fill="#3D3D63" fill-rule="nonzero"></path>
                            <path d="M38.1125,33.125 C29.1378728,33.125 21.8625,40.4003728 21.8625,49.375 C21.8625,58.3496272 29.1378728,65.625 38.1125,65.625 C47.0871272,65.625 54.3625,58.3496272 54.3625,49.375 C54.3625,40.4003728 47.0871272,33.125 38.1125,33.125 Z M38.1125,63.125 C32.5511441,63.125 27.5373952,59.7749201 25.4091564,54.6368972 C23.2809177,49.4988743 24.4573093,43.5847542 28.3897818,39.6522818 C32.3222542,35.7198093 38.2363743,34.5434177 43.3743972,36.6716564 C48.5124201,38.7998952 51.8625,43.8136441 51.8625,49.375 C51.8625,56.9689153 45.7064153,63.125 38.1125,63.125 Z" id="Shape" fill="#3D3D63" fill-rule="nonzero"></path>
                            <path d="M69.925,31.9375 L63.25,29.0625 L61.825,21.875 C61.7321966,21.4092499 61.3834809,21.0363178 60.925,20.9125 C60.4686034,20.7958085 59.9853623,20.9456132 59.675,21.3 L56.3625,25.05 C55.9427476,25.5711437 56.0078584,26.3304187 56.5102103,26.7724883 C57.0125621,27.214558 57.7739535,27.182605 58.2375,26.7 L59.8875,24.825 L60.9375,30.1125 C61.0139084,30.5176102 61.2851469,30.8589965 61.6625,31.025 L66.6625,33.1625 L61.95,35.7875 C61.5326957,35.9917413 61.2630983,36.4105801 61.25,36.875 L60.775,42.0125 C60.7180324,42.6208871 61.1092562,43.1812887 61.7,43.3375 C61.7661314,43.349447 61.8338686,43.349447 61.9,43.3375 C62.5868001,43.4027447 63.1966029,42.8992378 63.2625,42.2125 L63.75,37.725 L70,34.175 C70.4132354,33.9434256 70.6600671,33.4981606 70.6375,33.025 C70.6220318,32.5577896 70.347164,32.1382546 69.925,31.9375 Z" id="Shape" fill="#3D3D63" fill-rule="nonzero"></path>
                            <path d="M13.8875,56.5125 L12.85,52.6375 C12.740118,52.2394103 12.4407059,51.9212849 12.05,51.7875 L8.375,50.5375 L11.65,48.4 C11.9919864,48.1749729 12.2021113,47.7967481 12.2125,47.3875 L12.3125,43.4875 L13.15,44.1625 C13.6898071,44.5680229 14.4540858,44.4716062 14.8762664,43.9447247 C15.2984471,43.4178433 15.2259419,42.6509266 14.7125,42.2125 L11.925,39.9 C11.5681445,39.6243334 11.0904764,39.5622365 10.675,39.7375 C10.2440413,39.9367255 9.96315218,40.362902 9.95,40.8375 L9.8,46.6125 L4.8875,49.7625 C4.4678933,50.0300484 4.24696029,50.5210107 4.325,51.0125 C4.38337883,51.4829677 4.70287893,51.8799224 5.15,52.0375 L10.6,53.975 L12.1,59.55 C12.2238178,60.0084809 12.5967499,60.3571966 13.0625,60.45 C13.315318,60.5041439 13.5789358,60.4733885 13.8125,60.3625 C14.0036961,60.2800528 14.1712684,60.151151 14.3,59.9875 L15.55,58.4 C15.9126282,57.9253604 15.8887832,57.2604882 15.4930853,56.8130453 C15.0973875,56.3656023 14.4404209,56.2606336 13.925,56.5625 L13.8875,56.5125 Z" id="Shape" fill="#3D3D63" fill-rule="nonzero"></path>
                        </g>
                    </g>
                </g>
            </g>
        </g>
    </g>
</svg>