<?xml version="1.0" encoding="UTF-8" standalone="no"?>
<svg width="18px" height="15px" viewBox="0 0 18 15" version="1.1" xmlns="http://www.w3.org/2000/svg" xmlns:xlink="http://www.w3.org/1999/xlink">
    <!-- Generator: Sketch 49.3 (51167) - http://www.bohemiancoding.com/sketch -->
    <title>Shape</title>
    <desc>Created with Sketch.</desc>
    <defs></defs>
    <g id="Symbols" stroke="none" stroke-width="1" fill="none" fill-rule="evenodd">
        <g id="Profile" transform="translate(-18.000000, -198.000000)" fill="#3D3D63" fill-rule="nonzero">
            <g id="Group-6">
                <g transform="translate(16.000000, 188.000000)">
                    <g id="Group-3" transform="translate(0.000000, 4.000000)">
                        <path d="M19.1999542,14.5230954 C19.2037394,14.0561978 18.9727572,13.6168042 18.5809772,13.3456259 C18.9573911,12.9220002 19.0435022,12.3238898 18.8011409,11.8164143 C18.5587796,11.3089388 18.0327811,10.9859776 17.4563002,10.9906871 L14.5717867,10.9906871 C14.3295003,10.9918396 14.0914759,11.0526088 13.879989,11.1673075 C13.8126706,11.0334285 13.7886945,10.8829175 13.8112137,10.7355687 C13.9358568,10.116622 13.9699054,9.48371463 13.9123538,8.85554255 C13.7945704,7.54543407 12.6048791,6.57569851 11.2543939,6.68899882 C11.0294756,6.70793744 10.8215764,6.81294916 10.6765984,6.9808485 C10.5316204,7.14874783 10.4614874,7.36572566 10.4816842,7.58387558 L10.5059578,7.84684375 C10.6054861,8.96722949 10.3302734,10.0889113 9.72111119,11.0456357 L8.08264281,13.1258316 C7.92386425,12.6918851 7.50137526,12.4013545 7.02674096,12.3997255 L5.465139,12.3997255 C4.84647181,12.3996908 4.34306867,12.8828232 4.33641634,13.4829974 L4.33641634,13.5811198 L3.28456009,13.5811198 C3.06112772,13.5811198 2.88,13.7568435 2.88,13.9736096 C2.88,14.1903758 3.06112772,14.3660994 3.28456009,14.3660994 L4.33641634,14.3660994 L4.33641634,18.1418514 L3.28456009,18.1418514 C3.06112772,18.1418514 2.88,18.317575 2.88,18.5343412 C2.88,18.7511073 3.06112772,18.926831 3.28456009,18.926831 L4.33641634,18.926831 L4.33641634,19.0249534 C4.33641634,19.629731 4.84176269,20.12 5.465139,20.12 L7.02674096,20.12 C7.52270513,20.1142701 7.95714628,19.7961725 8.09882521,19.3350204 C9.0272826,19.844209 10.0745969,20.1144396 11.1411171,20.12 L17.0841049,20.12 C17.899633,20.12 18.5607492,19.4786086 18.5607492,18.6874122 C18.5619687,18.3649683 18.4491582,18.0518731 18.2411468,17.8003852 C18.6523718,17.5401833 18.9039158,17.0991489 18.9127165,16.6229158 C18.9118811,16.2877542 18.7886067,15.9637313 18.5647948,15.7084146 C18.9634507,15.4377472 19.2006133,14.99516 19.1999542,14.5230954 Z M7.36252584,16.4855444 L7.36252584,18.192875 L7.36252584,19.0092538 C7.36034422,19.1796147 7.21852334,19.3172043 7.04292337,19.3193208 L5.465139,19.3193208 C5.28862743,19.3193208 5.14553653,19.1804991 5.14553653,19.0092538 L5.14553653,13.4829974 C5.14553653,13.3117521 5.28862743,13.1729304 5.465139,13.1729304 L7.02674096,13.1729304 C7.20234094,13.1750469 7.34416182,13.3126365 7.34634344,13.4829974 L7.36252584,16.4855444 Z M14.5879691,11.7756667 L17.4563002,11.7756667 C17.8249636,11.7756667 18.1238243,12.0656108 18.1238243,12.4232749 C18.1238243,12.780939 17.8249636,13.0708831 17.4563002,13.0708831 L14.5717867,13.0708831 C14.2031233,13.0708831 13.9042626,12.780939 13.9042626,12.4232749 C13.9042626,12.0656108 14.2031233,11.7756667 14.5717867,11.7756667 L14.5879691,11.7756667 Z M13.6129793,19.3310955 L11.1411171,19.3310955 C10.1758187,19.3297497 9.22808037,19.0805876 8.39415408,18.6089142 C8.24973734,18.5271723 8.15937769,18.3785897 8.15546362,18.2164244 L8.15546362,14.460297 C8.15469769,14.3351807 8.2057068,14.2149974 8.29705966,14.1266807 L8.33347007,14.0874317 L10.3845897,11.4773745 C11.100941,10.3702188 11.4261535,9.06684748 11.3110324,7.76442089 L11.2867588,7.49752782 C11.2867588,7.47790333 11.2867588,7.45827884 11.3231692,7.45435394 C11.7626759,7.41147565 12.2011477,7.54476444 12.5368494,7.82329436 C12.8738471,8.09325228 13.0839696,8.48397122 13.119416,8.90656622 C13.1707902,9.46258145 13.1408256,10.0228519 13.0304128,10.570723 C12.945387,10.9833076 13.0454286,11.4114991 13.3055136,11.7481924 C13.0542204,12.1592181 13.0404406,12.6672283 13.2691032,13.0905076 C12.5341644,13.1421396 11.9516948,13.7128355 11.9057306,14.4263218 C11.8597663,15.1398081 12.3644583,15.7764243 13.0870512,15.9164342 C12.9628859,16.1321071 12.9000559,16.3759288 12.9049991,16.6229158 C12.9079829,17.1593586 13.22047,17.6489682 13.7141193,17.8906579 C13.544297,18.1296834 13.4526586,18.4128094 13.4511553,18.7031118 C13.4533821,18.9218807 13.5088281,19.1370475 13.6129793,19.3310955 Z M17.0841049,19.3310955 L14.9197084,19.3310955 C14.551045,19.3310955 14.2521843,19.0411514 14.2521843,18.6834873 C14.2521843,18.3258232 14.551045,18.0358791 14.9197084,18.0358791 L17.0841049,18.0358791 C17.4527683,18.0358791 17.751629,18.3258232 17.751629,18.6834873 C17.751629,19.0411514 17.4527683,19.3310955 17.0841049,19.3310955 Z M17.4360722,17.2508995 L14.3816435,17.2508995 C14.0129801,17.2508995 13.7141193,16.9609555 13.7141193,16.6032913 C13.7141193,16.2456272 14.0129801,15.9556832 14.3816435,15.9556832 L17.4360722,15.9556832 C17.8047356,15.9556832 18.1035963,16.2456272 18.1035963,16.6032913 C18.1035963,16.9609555 17.8047356,17.2508995 17.4360722,17.2508995 Z M17.7071274,15.1707035 L13.3864256,15.1707035 C13.0177622,15.1707035 12.7189015,14.8807595 12.7189015,14.5230954 C12.7189015,14.1654312 13.0177622,13.8754872 13.3864256,13.8754872 L17.7071274,13.8754872 C18.0757909,13.8754872 18.3746516,14.1654312 18.3746516,14.5230954 C18.3746516,14.8807595 18.0757909,15.1707035 17.7071274,15.1707035 Z" id="Shape"></path>
                    </g>
                </g>
            </g>
        </g>
    </g>
</svg>