<?xml version="1.0" encoding="UTF-8" standalone="no"?>
<svg width="22px" height="20px" viewBox="0 0 22 20" version="1.1" xmlns="http://www.w3.org/2000/svg" xmlns:xlink="http://www.w3.org/1999/xlink">
    <!-- Generator: Sketch 49.3 (51167) - http://www.bohemiancoding.com/sketch -->
    <title>Group</title>
    <desc>Created with Sketch.</desc>
    <defs></defs>
    <g id="Symbols" stroke="none" stroke-width="1" fill="none" fill-rule="evenodd">
        <g id="Profile" transform="translate(-195.000000, -197.000000)">
            <g id="Group-5">
                <g transform="translate(194.000000, 188.000000)">
                    <g id="Group" transform="translate(0.000000, 6.000000)">
                        <g id="Medal">
                            <rect id="Rectangle-path" x="0" y="0" width="24" height="24"></rect>
                            <polyline id="Shape" points="19.852 13.472 20.004 11.828 22.216 10.588 19.888 9.584 19.392 7.096 18.332 8.304"></polyline>
                            <path d="M7.664,5.4 L16.732,5.4 L16.732,8.868 C16.732001,9.43413528 16.5068312,9.97702489 16.1061381,10.3769676 C15.705445,10.7769104 15.1621343,11.0010622 14.596,11 L9.796,11 C8.61852891,11 7.664,10.0454711 7.664,8.868 L7.664,5.4 Z" id="Shape" fill="#79DEB4" fill-rule="nonzero"></path>
                            <path d="M13.796,9.608 L13.796,5.4 L10.596,5.4 L10.596,9.608 C7.47550924,10.4137072 5.44091966,13.4140588 5.84700994,16.6112008 C6.25310023,19.8083429 8.973171,22.2047734 12.196,22.2047734 C15.418829,22.2047734 18.1388998,19.8083429 18.5449901,16.6112008 C18.9510803,13.4140588 16.9164908,10.4137072 13.796,9.608 Z" id="Shape" fill="#EDF4FF" fill-rule="nonzero"></path>
                            <path d="M12.196,18.2 C9.84206487,18.2033998 7.56727731,17.3503544 5.796,15.8 C5.796,19.3346224 8.6613776,22.2 12.196,22.2 C15.7306224,22.2 18.596,19.3346224 18.596,15.8 C16.8249136,17.3506737 14.5500012,18.2037658 12.196,18.2 Z" id="Shape" fill="#D8E3F0" fill-rule="nonzero"></path>
                            <circle id="Oval" cx="12.196" cy="15.8" r="6.4"></circle>
                            <path d="M17.532,3.8 L6.864,3.8 C6.4221722,3.8 6.064,4.1581722 6.064,4.6 C6.064,5.0418278 6.4221722,5.4 6.864,5.4 L17.532,5.4 C17.9738278,5.4 18.332,5.0418278 18.332,4.6 C18.332,4.1581722 17.9738278,3.8 17.532,3.8 Z" id="Shape" fill="#FFC670" fill-rule="nonzero"></path>
                            <circle id="Oval" fill="#FFC670" fill-rule="nonzero" cx="12.196" cy="15.8" r="4.8"></circle>
                            <path d="M12.196,16.9 C10.5605535,16.9030088 8.93681097,16.6242663 7.396,16.076 C7.58747836,18.5775527 9.67312975,20.5096614 12.182,20.5096614 C14.6908702,20.5096614 16.7765216,18.5775527 16.968,16.076 C15.4359256,16.6206478 13.8220052,16.8993298 12.196,16.9 Z" id="Shape" fill="#FFA742" fill-rule="nonzero"></path>
                            <circle id="Oval" cx="12.196" cy="15.8" r="4.8"></circle>
                            <polygon id="Shape" fill="#FFDEAD" fill-rule="nonzero" points="11.624 13 10.424 14.868 11.624 14.868 11.624 18.6 13.224 18.6 13.224 13"></polygon>
                            <path d="M22.376,10.22 L20.24,9.3 L19.784,7 C19.7543029,6.85095997 19.6427139,6.73162171 19.496,6.692 C19.3499531,6.65465872 19.1953159,6.70259623 19.096,6.816 L18.036,8.016 C17.9716889,8.08892169 17.9361399,8.18277104 17.936,8.28 L17.936,9.08 C17.93571,9.4540814 17.8509341,9.82326651 17.688,10.16 C17.6165282,10.3071619 17.6418762,10.4830141 17.752,10.604 C18.5427165,11.4487594 19.1308911,12.4623347 19.472,13.568 C19.522803,13.7356701 19.6768067,13.8507676 19.852,13.852 L19.896,13.852 C20.0851755,13.8319237 20.2340385,13.681388 20.252,13.492 L20.4,12.072 L22.4,10.936 C22.5322353,10.8618962 22.6112215,10.7194114 22.604,10.568 C22.5990502,10.4184927 22.5110925,10.2842415 22.376,10.22 Z" id="Shape" fill="#FFEFB0" fill-rule="nonzero"></path>
                            <path d="M4.596,15.8 C4.59923404,15.160128 4.68254832,14.5231769 4.844,13.904 C4.87852204,13.755648 4.82579368,13.6005646 4.708,13.504 L3.816,12.768 C3.70180623,12.6797867 3.54895246,12.6599157 3.416,12.716 C3.2780932,12.7797522 3.1882087,12.9161286 3.184,13.068 L3.136,14.916 L1.564,15.924 C1.42972586,16.0096155 1.35902729,16.1667234 1.384,16.324 C1.40268123,16.4745497 1.50492126,16.6015752 1.648,16.652 L3.392,17.272 L3.872,19.056 C3.91162171,19.2027139 4.03095997,19.3143029 4.18,19.344 L4.26,19.344 C4.38379866,19.3437024 4.50048296,19.2860988 4.576,19.188 L4.976,18.68 C5.05819473,18.5728333 5.08075982,18.4314254 5.036,18.304 C4.74977639,17.4999597 4.60102893,16.6534515 4.596,15.8 Z" id="Shape" fill="#FFEFB0" fill-rule="nonzero"></path>
                            <polyline id="Shape" points="4.46 13.804 3.564 13.08 3.508 15.136 1.784 16.26 3.724 16.948 4.26 18.936 4.648 18.428"></polyline>
                            <path d="M16.496,10.536 C16.9037867,10.0758423 17.1298947,9.48284197 17.132,8.868 L17.132,5.8 L17.532,5.8 C18.1947417,5.8 18.732,5.2627417 18.732,4.6 C18.732,3.9372583 18.1947417,3.4 17.532,3.4 L6.864,3.4 C6.2012583,3.4 5.664,3.9372583 5.664,4.6 C5.664,5.2627417 6.2012583,5.8 6.864,5.8 L7.264,5.8 L7.264,8.868 C7.26389574,9.48252438 7.48870097,10.0758395 7.896,10.536 C5.6683328,12.354391 4.82529724,15.3774611 5.79048586,18.0862354 C6.75567449,20.7950096 9.32040494,22.6038269 12.196,22.6038269 C15.0715951,22.6038269 17.6363255,20.7950096 18.6015141,18.0862354 C19.5667028,15.3774611 18.7236672,12.354391 16.496,10.536 Z M6.864,5 C6.6430861,5 6.464,4.8209139 6.464,4.6 C6.464,4.3790861 6.6430861,4.2 6.864,4.2 L17.532,4.2 C17.7529139,4.2 17.932,4.3790861 17.932,4.6 C17.932,4.8209139 17.7529139,5 17.532,5 L6.864,5 Z M16.332,5.8 L16.332,8.868 C16.3306562,9.31761235 16.1524941,9.74864975 15.836,10.068 C15.3252799,9.74237502 14.7738633,9.48549555 14.196,9.304 L14.196,5.8 L16.332,5.8 Z M13.396,5.8 L13.396,9.112 C13.0000074,9.03991909 12.598492,9.00244432 12.196,9 C11.7935269,9.00282464 11.3920443,9.04029635 10.996,9.112 L10.996,5.8 L13.396,5.8 Z M10.196,5.8 L10.196,9.3 C9.61913009,9.48081153 9.06894778,9.73774264 8.56,10.064 C8.24350594,9.74464975 8.06534381,9.31361235 8.064,8.864 L8.064,5.8 L10.196,5.8 Z M12.196,21.8 C8.8822915,21.8 6.196,19.1137085 6.196,15.8 C6.196,12.4862915 8.8822915,9.8 12.196,9.8 C15.5097085,9.8 18.196,12.4862915 18.196,15.8 C18.196,17.3912989 17.563859,18.9174224 16.4386407,20.0426407 C15.3134224,21.167859 13.7872989,21.8 12.196,21.8 Z" id="Shape" fill="#3D3D63" fill-rule="nonzero"></path>
                            <path d="M12.196,10.6 C9.3241193,10.6 6.996,12.9281193 6.996,15.8 C6.996,18.6718807 9.3241193,21 12.196,21 C15.0678807,21 17.396,18.6718807 17.396,15.8 C17.396,12.9281193 15.0678807,10.6 12.196,10.6 Z M12.196,20.2 C10.4163661,20.2 8.81196646,19.1279744 8.13093006,17.4838071 C7.44989366,15.8396398 7.82633898,13.9471213 9.08473016,12.6887302 C10.3431213,11.430339 12.2356398,11.0538937 13.8798071,11.7349301 C15.5239744,12.4159665 16.596,14.0203661 16.596,15.8 C16.596,18.2300529 14.6260529,20.2 12.196,20.2 Z" id="Shape" fill="#3D3D63" fill-rule="nonzero"></path>
                            <path d="M13.224,12.6 L11.624,12.6 C11.4880032,12.6002266 11.3614382,12.6695359 11.288,12.784 L10.088,14.652 C10.0090847,14.7750001 10.0035284,14.9312465 10.0735074,15.0595414 C10.1434864,15.1878363 10.2778611,15.2677568 10.424,15.268 L11.224,15.268 L11.224,18.6 C11.224,18.8209139 11.4030861,19 11.624,19 L13.224,19 C13.4449139,19 13.624,18.8209139 13.624,18.6 L13.624,13 C13.624,12.7790861 13.4449139,12.6 13.224,12.6 Z M12.824,18.2 L12.024,18.2 L12.024,14.868 C12.024,14.6470861 11.8449139,14.468 11.624,14.468 L11.156,14.468 L11.844,13.4 L12.824,13.4 L12.824,18.2 Z" id="Shape" fill="#3D3D63" fill-rule="nonzero"></path>
                            <path d="M22.376,10.22 L20.24,9.3 L19.784,7 C19.7543029,6.85095997 19.6427139,6.73162171 19.496,6.692 C19.3499531,6.65465872 19.1953159,6.70259623 19.096,6.816 L18.036,8.016 C17.9016792,8.182766 17.9225147,8.42573399 18.0832673,8.56719627 C18.2440199,8.70865855 18.4876651,8.6984336 18.636,8.544 L19.164,7.944 L19.5,9.636 C19.5244507,9.76563528 19.611247,9.87487888 19.732,9.928 L21.332,10.612 L19.824,11.452 C19.6904626,11.5173572 19.6041915,11.6513856 19.6,11.8 L19.448,13.444 C19.4297704,13.6386839 19.554962,13.8180124 19.744,13.868 C19.7651621,13.871823 19.7868379,13.871823 19.808,13.868 C20.027776,13.8888783 20.2229129,13.7277561 20.244,13.508 L20.4,12.072 L22.4,10.936 C22.5322353,10.8618962 22.6112215,10.7194114 22.604,10.568 C22.5990502,10.4184927 22.5110925,10.2842415 22.376,10.22 Z" id="Shape" fill="#3D3D63" fill-rule="nonzero"></path>
                            <path d="M4.444,18.084 L4.112,16.844 C4.07683777,16.7166113 3.98102588,16.6148112 3.856,16.572 L2.68,16.172 L3.728,15.488 C3.83743565,15.4159913 3.90467562,15.2949594 3.908,15.164 L3.94,13.916 L4.208,14.132 C4.38073828,14.2617673 4.62530746,14.230914 4.76040526,14.0623119 C4.89550307,13.8937098 4.87230142,13.6482965 4.708,13.508 L3.816,12.768 C3.70180623,12.6797867 3.54895246,12.6599157 3.416,12.716 C3.2780932,12.7797522 3.1882087,12.9161286 3.184,13.068 L3.136,14.916 L1.564,15.924 C1.42972586,16.0096155 1.35902729,16.1667234 1.384,16.324 C1.40268123,16.4745497 1.50492126,16.6015752 1.648,16.652 L3.392,17.272 L3.872,19.056 C3.91162171,19.2027139 4.03095997,19.3143029 4.18,19.344 C4.26090175,19.361326 4.34525946,19.3514843 4.42,19.316 C4.48118274,19.2896169 4.5348059,19.2483683 4.576,19.196 L4.976,18.688 C5.09204103,18.5361153 5.08441062,18.3233562 4.95778731,18.1801745 C4.83116399,18.0369927 4.62093468,18.0034028 4.456,18.1 L4.444,18.084 Z" id="Shape" fill="#3D3D63" fill-rule="nonzero"></path>
                        </g>
                    </g>
                </g>
            </g>
        </g>
    </g>
</svg>