<?xml version="1.0" encoding="UTF-8"?>
<svg width="16px" height="17px" viewBox="0 0 16 17" version="1.1" xmlns="http://www.w3.org/2000/svg" xmlns:xlink="http://www.w3.org/1999/xlink">
    <!-- Generator: Sketch 50.2 (55047) - http://www.bohemiancoding.com/sketch -->
    <title>chat</title>
    <desc>Created with Sketch.</desc>
    <defs></defs>
    <g id="Symbols" stroke="none" stroke-width="1" fill="none" fill-rule="evenodd">
        <g id="Un" transform="translate(-85.000000, -6.000000)">
            <g id="Answer-section">
                <g id="Group-3" transform="translate(85.500000, 6.000000)">
                    <g id="chat" transform="translate(0.000000, 1.000000)">
                        <path d="M13.6170319,0 L1.36171277,0 C0.611042553,0 0,0.610691489 0,1.36171277 L0,14.6383085 C0,14.7759574 0.083106383,14.900266 0.210095745,14.9527979 C0.252,14.9704149 0.296521277,14.9787447 0.340404255,14.9787447 C0.428840426,14.9787447 0.51593617,14.9441809 0.581106383,14.8790106 L3.8856383,11.5744787 L13.6170319,11.5744787 C14.3677021,11.5744787 14.9787447,10.9637872 14.9787447,10.212766 L14.9787447,1.36171277 C14.9787128,0.610691489 14.3677021,0 13.6170319,0 Z" id="Shape" stroke="#777777" fill-rule="nonzero"></path>
                        <path d="M6.71541489,5.33443617 C6.71541489,5.33976596 6.72007447,5.38131915 6.7227234,5.40324468 L6.72205319,5.40324468 C6.72071277,5.41387234 6.71541489,5.46375532 6.71541489,5.47438298 C6.7087766,5.60903191 6.78256383,5.7343617 6.90291489,5.79452128 L8.21209574,6.4487766 C8.33378723,6.50893617 8.47804255,6.49234043 8.58243617,6.40588298 C8.83443617,6.19610638 9.1336383,6.08507447 9.44678723,6.08507447 C10.1974574,6.08507447 10.8085,6.69576596 10.8085,7.44678723 C10.8085,8.19780851 10.1974574,8.8085 9.44678723,8.8085 C8.69611702,8.8085 8.08507447,8.19780851 8.08641489,7.44780851 C8.08775532,7.43718085 8.09305319,7.38796809 8.09305319,7.37698936 C8.09969149,7.24269149 8.02590426,7.11701064 7.90555319,7.05685106 L6.59637234,6.40259574 C6.54782979,6.37865957 6.49596809,6.36669149 6.44410638,6.36669149 C6.36629787,6.36669149 6.28919149,6.3932766 6.22667021,6.4451383 C5.974,6.65491489 5.67479787,6.76594681 5.36164894,6.76594681 C4.61104255,6.76597872 4,6.15525532 4,5.40426596 C4,4.6532766 4.61104255,4.04255319 5.36171277,4.04255319 C5.67489362,4.04255319 5.97409574,4.15358511 6.22606383,4.3633617 C6.32978723,4.44946809 6.47474468,4.46574468 6.59640426,4.40625532 L7.90558511,3.75168085 C8.02593617,3.69152128 8.0997234,3.56584043 8.09308511,3.43154255 C8.09241489,3.40760638 8.08976596,3.38398936 8.08510638,3.36171277 C8.08510638,2.6107234 8.69614894,2 9.44681915,2 C10.1974894,2 10.8085319,2.61069149 10.8085319,3.36171277 C10.8085319,4.11273404 10.1974894,4.72342553 9.44681915,4.72342553 C9.1336383,4.72342553 8.83443617,4.61239362 8.58246809,4.40261702 C8.47807447,4.31584043 8.33311702,4.29956383 8.21212766,4.3597234 L6.90294681,5.01429787 C6.78256383,5.07448936 6.7087766,5.2001383 6.71541489,5.33443617 Z" id="Path" fill="#777777"></path>
                    </g>
                </g>
            </g>
        </g>
    </g>
</svg>