<?xml version="1.0" encoding="UTF-8"?>
<svg width="17px" height="16px" viewBox="0 0 17 16" version="1.1" xmlns="http://www.w3.org/2000/svg" xmlns:xlink="http://www.w3.org/1999/xlink">
    <!-- Generator: Sketch 50.2 (55047) - http://www.bohemiancoding.com/sketch -->
    <title>chat</title>
    <desc>Created with Sketch.</desc>
    <defs></defs>
    <g id="Page-1" stroke="none" stroke-width="1" fill="none" fill-rule="evenodd">
        <g id="Case-detail" transform="translate(-1057.000000, -95.000000)">
            <g id="Research-Card" transform="translate(230.000000, 80.000000)">
                <g id="Group-10" transform="translate(827.500000, 13.000000)">
                    <g id="chat" transform="translate(0.000000, 2.000000)">
                        <path d="M0.5,15.2838274 L3.93829167,11.8461106 L14.527263,11.8461106 C15.0521374,11.8461106 15.4799995,11.4183961 15.4799995,10.893617 L15.4799995,1.45251487 C15.4799772,0.927709153 15.0521273,0.5 14.527263,0.5 L1.45273652,0.5 C0.927862181,0.5 0.5,0.927714514 0.5,1.45249362 L0.5,15.2838274 Z" id="Shape" stroke="#00B6BC" fill="#FFFFFF" fill-rule="nonzero"></path>
                        <path d="M7.16310922,5.69006525 C7.16310922,5.69575035 7.16807943,5.74007376 7.17090496,5.76346099 L7.17019007,5.76346099 C7.16876028,5.77479716 7.16310922,5.82800567 7.16310922,5.83934184 C7.15602837,5.98296738 7.23473475,6.11665248 7.36310922,6.1808227 L8.75956879,6.87869504 C8.88937305,6.94286525 9.04324539,6.92516312 9.15459858,6.83294184 C9.42339858,6.60918014 9.74254752,6.4907461 10.076573,6.4907461 C10.8772879,6.4907461 11.5290667,7.14215035 11.5290667,7.94323972 C11.5290667,8.74432908 10.8772879,9.39573333 10.076573,9.39573333 C9.27585816,9.39573333 8.62407943,8.74432908 8.62550922,7.94432908 C8.62693901,7.93299291 8.63259007,7.88049929 8.63259007,7.86878865 C8.63967092,7.72553759 8.56096454,7.59147801 8.43259007,7.5273078 L7.0361305,6.82943546 C6.98435177,6.80390355 6.92903262,6.79113759 6.87371348,6.79113759 C6.79071773,6.79113759 6.70847092,6.81949504 6.64178156,6.87481418 C6.37226667,7.09857589 6.05311773,7.21700993 5.7190922,7.21700993 C4.91844539,7.21704397 4.26666667,6.56560567 4.26666667,5.76455035 C4.26666667,4.96349504 4.91844539,4.31205674 5.71916028,4.31205674 C6.05321986,4.31205674 6.37236879,4.43049078 6.64113475,4.65425248 C6.75177305,4.74609929 6.90639433,4.76346099 7.03616454,4.70000567 L8.43262411,4.00179291 C8.56099858,3.9376227 8.63970496,3.80356312 8.63262411,3.66031206 C8.63190922,3.63478014 8.62908369,3.60958865 8.62411348,3.58582695 C8.62411348,2.78477163 9.2758922,2.13333333 10.0766071,2.13333333 C10.877322,2.13333333 11.5291007,2.78473759 11.5291007,3.58582695 C11.5291007,4.38691631 10.877322,5.03832057 10.0766071,5.03832057 C9.74254752,5.03832057 9.42339858,4.91988652 9.15463262,4.69612482 C9.04327943,4.60356312 8.88865816,4.58620142 8.75960284,4.65037163 L7.36314326,5.3485844 C7.23473475,5.41278865 7.15602837,5.54681418 7.16310922,5.69006525 Z" id="Path" fill="#00B6BC"></path>
                    </g>
                </g>
            </g>
        </g>
    </g>
</svg>