<?xml version="1.0" encoding="UTF-8" standalone="no"?>
<svg width="10px" height="8px" viewBox="0 0 10 8" version="1.1" xmlns="http://www.w3.org/2000/svg" xmlns:xlink="http://www.w3.org/1999/xlink">
    <!-- Generator: Sketch 49.3 (51167) - http://www.bohemiancoding.com/sketch -->
    <title>tags</title>
    <desc>Created with Sketch.</desc>
    <defs></defs>
    <g id="Symbols" stroke="none" stroke-width="1" fill="none" fill-rule="evenodd">
        <g id="Tag-list" transform="translate(-21.000000, -21.000000)" fill="#01B7BD" fill-rule="nonzero">
            <g id="Question-card">
                <g id="Group" transform="translate(16.000000, 15.000000)">
                    <g id="tags" transform="translate(5.000000, 6.000000)">
                        <path d="M7.96581952,4.72626151 C7.96581952,4.54399632 7.90097606,4.38447514 7.77127072,4.24773481 L4.01186004,0.493554328 C3.87867403,0.360257827 3.69990792,0.247255985 3.47556169,0.154401473 C3.25123389,0.0615285451 3.04611418,0.0150828729 2.86033149,0.0150828729 L0.673020258,0.0150828729 C0.490773481,0.0150828729 0.332983425,0.0817311234 0.199834254,0.214861878 C0.0665930018,0.348066298 0,0.505819521 0,0.688121547 L0,2.87543278 C0,3.06121547 0.0463904236,3.26620626 0.139300184,3.49060773 C0.232228361,3.71500921 0.345322284,3.8919337 0.478471455,4.02167587 L4.23793738,7.78635359 C4.36764273,7.91605893 4.52537753,7.98090239 4.71112339,7.98090239 C4.893407,7.98090239 5.05296501,7.91605893 5.18965009,7.78635359 L7.77134438,5.1994291 C7.90097606,5.06968692 7.96581952,4.91206262 7.96581952,4.72626151 Z M2.15845304,2.17348066 C2.02697974,2.30493554 1.86836096,2.37069982 1.68255985,2.37069982 C1.49683241,2.37069982 1.33821363,2.30493554 1.20674033,2.17348066 C1.07526703,2.04200737 1.00959484,1.88344383 1.00959484,1.69766114 C1.00959484,1.51186004 1.07526703,1.35324125 1.20674033,1.22184162 C1.33821363,1.09036832 1.49683241,1.02460405 1.68255985,1.02460405 C1.86836096,1.02460405 2.02697974,1.09036832 2.15845304,1.22184162 C2.28985267,1.35324125 2.35563536,1.51187845 2.35563536,1.69766114 C2.35561694,1.88344383 2.28985267,2.04200737 2.15845304,2.17348066 Z" id="Shape"></path>
                        <path d="M9.79027624,4.24779006 L6.03081031,0.493627993 C5.89766114,0.360331492 5.7188582,0.24732965 5.49449355,0.154456722 C5.27023941,0.0616022099 5.06515654,0.0151565378 4.87935543,0.0151565378 L3.70158379,0.0151565378 C3.88736648,0.0151565378 4.09241252,0.0616022099 4.31672192,0.154456722 C4.54112339,0.247384899 4.7198895,0.36038674 4.85309392,0.493627993 L8.61252302,4.24779006 C8.74228361,4.38449355 8.80720074,4.54399632 8.80720074,4.72626151 C8.80720074,4.91206262 8.74228361,5.06966851 8.61252302,5.1994291 L6.14123389,7.67069982 C6.24653775,7.77935543 6.33937385,7.85821363 6.41992634,7.90729282 C6.50058932,7.95639042 6.60401473,7.98092081 6.73012891,7.98092081 C6.9125046,7.98092081 7.07202578,7.91607735 7.20858195,7.78637201 L9.79027624,5.19944751 C9.92003683,5.06968692 9.98495396,4.91208103 9.98495396,4.72627993 C9.98488029,4.54399632 9.92003683,4.38449355 9.79027624,4.24779006 Z" id="Shape"></path>
                    </g>
                </g>
            </g>
        </g>
    </g>
</svg>