<?xml version="1.0" encoding="UTF-8"?>
<svg width="16px" height="13px" viewBox="0 0 16 13" version="1.1" xmlns="http://www.w3.org/2000/svg" xmlns:xlink="http://www.w3.org/1999/xlink">
    <!-- Generator: Sketch 50.2 (55047) - http://www.bohemiancoding.com/sketch -->
    <title>tags</title>
    <desc>Created with Sketch.</desc>
    <defs></defs>
    <g id="Page-1" stroke="none" stroke-width="1" fill="none" fill-rule="evenodd">
        <g id="Case-detail" transform="translate(-1141.000000, -96.000000)" fill-rule="nonzero">
            <g id="Research-Card" transform="translate(230.000000, 80.000000)">
                <g id="Group-4" transform="translate(911.000000, 13.000000)">
                    <g id="tags" transform="translate(0.000000, 3.000000)">
                        <path d="M12.0177164,7.42698237 C12.0177164,7.26979641 11.9657318,7.14192587 11.8586896,7.02881125 L5.95065152,1.12899213 C5.79130672,0.969515122 5.56567369,0.826841225 5.27033731,0.704604642 C4.9749598,0.582316751 4.71611085,0.523701657 4.49480663,0.523701657 L1.05760326,0.523701657 C0.905108806,0.523701657 0.783911435,0.574876789 0.66752977,0.691242356 C0.551123635,0.807616312 0.5,0.928698791 0.5,1.08133386 L0.5,4.51853723 C0.5,4.73991031 0.558560037,4.99856064 0.680856035,5.29393759 C0.802308825,5.58721985 0.94371176,5.80857722 1.10568192,5.96646797 L7.01316928,11.8821451 C7.12287819,11.991854 7.24343297,12.041418 7.4031939,12.041418 C7.56041796,12.041418 7.6883031,11.9894306 7.80125346,11.8825031 L11.8584086,7.8171287 C11.9681854,7.70725834 12.0177164,7.58677434 12.0177164,7.42698237 Z M3.03826422,3.06195337 C3.03828486,3.06193274 3.03830551,3.0619121 3.03832615,3.06189146 L3.03820232,3.06201531 C3.03822296,3.06199467 3.03824359,3.06197402 3.03826422,3.06195337 Z M3.74550723,3.76892391 L3.7453834,3.76904777 C3.44501829,4.0693708 3.06859478,4.22538542 2.64402263,4.22538542 C2.21954436,4.22538542 1.84312726,4.06935534 1.54275284,3.769023 C1.24241723,3.46868739 1.08650618,3.09235302 1.08650618,2.66775322 C1.08650618,2.24307411 1.24245697,1.86661103 1.54275284,1.56648344 C1.84309963,1.26613666 2.21952534,1.11009208 2.64402263,1.11009208 C3.0686138,1.11009208 3.44504592,1.2661212 3.74540817,1.56648344 C4.04567617,1.86675145 4.20171271,2.24322141 4.2017127,2.66780279 C4.20167063,3.09227087 4.04570116,3.46856169 3.74550723,3.76892391 Z" id="Shape" stroke="#00B6BC" fill="#FFFFFF"></path>
                        <path d="M15.3847198,6.67509866 L9.47698763,0.775701131 C9.26775322,0.566235201 8.98677716,0.388660879 8.63420416,0.242717706 C8.28180479,0.0968034728 7.9595317,0.0238174165 7.66755854,0.0238174165 L5.81677453,0.0238174165 C6.10871876,0.0238174165 6.43093396,0.0968034728 6.78342015,0.242717706 C7.13605104,0.388747698 7.41696922,0.566322021 7.62629045,0.775701131 L13.5339647,6.67509866 C13.7378742,6.88991844 13.8398869,7.14056564 13.8398869,7.42698237 C13.8398869,7.71895554 13.7378742,7.96662194 13.5339647,8.17053144 L9.65051039,12.0539569 C9.8159879,12.2247014 9.96187319,12.3486214 10.0884557,12.4257459 C10.2152118,12.5028992 10.3777374,12.541447 10.5759169,12.541447 C10.8625072,12.541447 11.1131834,12.4395501 11.3277716,12.2357274 L15.3847198,8.17056038 C15.5886293,7.96665088 15.6906419,7.71898448 15.6906419,7.42701131 C15.6905262,7.14056564 15.5886293,6.88991844 15.3847198,6.67509866 Z" id="Shape" fill="#00B6BC"></path>
                    </g>
                </g>
            </g>
        </g>
    </g>
</svg>