<?xml version="1.0" encoding="UTF-8"?>
<svg width="16px" height="14px" viewBox="0 0 16 14" version="1.1" xmlns="http://www.w3.org/2000/svg" xmlns:xlink="http://www.w3.org/1999/xlink">
    <!-- Generator: Sketch 50.2 (55047) - http://www.bohemiancoding.com/sketch -->
    <title>tags</title>
    <desc>Created with Sketch.</desc>
    <defs></defs>
    <g id="Symbols" stroke="none" stroke-width="1" fill="none" fill-rule="evenodd">
        <g id="Research" transform="translate(-346.000000, -8.000000)" fill-rule="nonzero">
            <g id="Answer-section">
                <g id="Group-4-Copy" transform="translate(347.000000, 6.000000)">
                    <g id="tags" transform="translate(0.000000, 3.000000)">
                        <path d="M11.9487293,7.08939227 C11.9487293,6.81599448 11.8514641,6.57671271 11.6569061,6.37160221 L6.01779006,0.740331492 C5.81801105,0.54038674 5.54986188,0.370883978 5.21334254,0.23160221 C4.87685083,0.0922928177 4.56917127,0.0226243094 4.29049724,0.0226243094 L1.00953039,0.0226243094 C0.736160221,0.0226243094 0.499475138,0.122596685 0.299751381,0.322292818 C0.0998895028,0.522099448 0,0.758729282 0,1.03218232 L0,4.31314917 C0,4.5918232 0.0695856354,4.89930939 0.208950276,5.2359116 C0.348342541,5.57251381 0.517983425,5.83790055 0.717707182,6.03251381 L6.35690608,11.6795304 C6.55146409,11.8740884 6.7880663,11.9713536 7.06668508,11.9713536 C7.3401105,11.9713536 7.57944751,11.8740884 7.78447514,11.6795304 L11.6570166,7.79914365 C11.8514641,7.60453039 11.9487293,7.36809392 11.9487293,7.08939227 Z M3.23767956,3.26022099 C3.04046961,3.45740331 2.80254144,3.55604972 2.52383978,3.55604972 C2.24524862,3.55604972 2.00732044,3.45740331 1.8101105,3.26022099 C1.61290055,3.06301105 1.51439227,2.82516575 1.51439227,2.54649171 C1.51439227,2.26779006 1.61290055,2.02986188 1.8101105,1.83276243 C2.00732044,1.63555249 2.24524862,1.53690608 2.52383978,1.53690608 C2.80254144,1.53690608 3.04046961,1.63555249 3.23767956,1.83276243 C3.43477901,2.02986188 3.53345304,2.26781768 3.53345304,2.54649171 C3.53342541,2.82516575 3.43477901,3.06301105 3.23767956,3.26022099 Z" id="Shape" stroke="#3D3D63" fill="#FFE3BA"></path>
                        <path d="M14.6854144,6.37168508 L9.04621547,0.740441989 C8.84649171,0.540497238 8.57828729,0.370994475 8.24174033,0.231685083 C7.90535912,0.0924033149 7.59773481,0.0227348066 7.31903315,0.0227348066 L5.55237569,0.0227348066 C5.83104972,0.0227348066 6.13861878,0.0924033149 6.47508287,0.231685083 C6.81168508,0.371077348 7.07983425,0.54058011 7.27964088,0.740441989 L12.9187845,6.37168508 C13.1134254,6.57674033 13.2108011,6.81599448 13.2108011,7.08939227 C13.2108011,7.36809392 13.1134254,7.60450276 12.9187845,7.79914365 L9.21185083,11.5060497 C9.36980663,11.6690331 9.50906077,11.7873204 9.6298895,11.8609392 C9.75088398,11.9345856 9.9060221,11.9713812 10.0951934,11.9713812 C10.3687569,11.9713812 10.6080387,11.874116 10.8128729,11.679558 L14.6854144,7.79917127 C14.8800552,7.60453039 14.9774309,7.36812155 14.9774309,7.08941989 C14.9773204,6.81599448 14.8800552,6.57674033 14.6854144,6.37168508 Z" id="Shape" fill="#3D3D63"></path>
                    </g>
                </g>
            </g>
        </g>
    </g>
</svg>