<?xml version="1.0" encoding="UTF-8" standalone="no"?>
<svg width="21px" height="21px" viewBox="0 0 21 21" version="1.1" xmlns="http://www.w3.org/2000/svg" xmlns:xlink="http://www.w3.org/1999/xlink">
    <!-- Generator: Sketch 49.3 (51167) - http://www.bohemiancoding.com/sketch -->
    <title>Group 3</title>
    <desc>Created with Sketch.</desc>
    <defs></defs>
    <g id="Symbols" stroke="none" stroke-width="1" fill="none" fill-rule="evenodd">
        <g id="Profile" transform="translate(-18.000000, -192.000000)">
            <g id="Group-6">
                <g transform="translate(16.000000, 188.000000)">
                    <g id="Group-3" transform="translate(0.000000, 4.000000)">
                        <rect id="Rectangle-path" x="0" y="1" width="24" height="24"></rect>
                        <rect id="Rectangle-path" fill="#F6716F" fill-rule="nonzero" x="4.8" y="13.4" width="2.88" height="6.72" rx="1.44"></rect>
                        <path d="M4.8,19.16 L4.8,19.6318182 C4.8,19.9014336 5.11022334,20.12 5.49290323,20.12 L6.98709677,20.12 C7.36977666,20.12 7.68,19.9014336 7.68,19.6318182 L7.68,19.16 L4.8,19.16 Z" id="Shape" fill="#F0504D" fill-rule="nonzero"></path>
                        <rect id="Rectangle-path" fill="#FFE3BA" fill-rule="nonzero" x="2.88" y="14.36" width="1.92" height="4.8"></rect>
                        <path d="M17.0044251,16.0089054 L17.2658207,16.0089054 C17.8132415,15.9755863 18.24,15.5257733 18.24,14.9820986 C18.24,14.438424 17.8132415,13.988611 17.2658207,13.9552918 L17.0005236,13.9552918 C17.5727948,13.9553078 18.0379181,13.4976894 18.0422048,12.9304188 C18.0400558,12.3616361 17.5743081,11.9016743 17.0005236,11.9016783 L14.2461157,11.9016783 C13.9623932,11.9014137 13.6912243,12.0176167 13.4970416,12.2226763 C13.1905816,11.9660151 13.0486852,11.5647626 13.126406,11.1745985 C13.2392667,10.600335 13.2707816,10.0132744 13.2200403,9.43038059 C13.125054,8.35182791 12.1662186,7.55369852 11.0781565,7.64748821 C10.8423122,7.66796118 10.667741,7.8738915 10.6880137,8.10771422 L10.7114223,8.36683307 C10.8161836,9.56687372 10.5245231,10.7681474 9.88041822,11.7895224 L7.92970441,14.3343015 C7.76990124,14.4936055 7.68014263,14.7090961 7.68001304,14.9337556 L7.68001304,18.6116962 C7.67832479,18.9145736 7.84065767,19.1950745 8.10526865,19.3465109 C8.96676228,19.8511644 9.94874043,20.118222 10.9494094,20.12 L16.6610994,20.12 C17.2342494,20.12 17.6988792,19.6594172 17.6988792,19.0912595 C17.6967399,18.5239825 17.2333609,18.0646397 16.6610994,18.062519 L17.0044251,18.062519 C17.5518459,18.0291998 17.9786043,17.5793868 17.9786043,17.0357122 C17.9786043,16.4920376 17.5518459,16.0422246 17.0044251,16.0089054 Z" id="Shape" fill="#FFE3BA" fill-rule="nonzero"></path>
                        <path d="M18.8866527,4.02804015 L19.3047096,5.4548168 C19.3346857,5.55159179 19.409137,5.62853376 19.5053768,5.66219713 L20.9184089,6.13502428 C21.0286705,6.17684169 21.1059147,6.2765548 21.118272,6.3930239 C21.1306294,6.509493 21.0760054,6.62297753 20.9769369,6.68665595 L19.7227664,7.51617726 C19.6372213,7.57440793 19.5857192,7.67040651 19.5848076,7.77332887 L19.5848076,9.25402441 C19.582861,9.37186453 19.5139567,9.47849376 19.4068348,9.52943657 C19.299713,9.58037938 19.1727717,9.5668864 19.0789589,9.49458559 L17.9042192,8.58211215 C17.824622,8.51786768 17.7178109,8.4976089 17.6199406,8.52819326 L16.1943668,8.97198717 C16.0777455,9.01066622 15.9491,8.97814243 15.865359,8.88880834 C15.7816181,8.79947425 15.7582415,8.66982229 15.8055739,8.55722651 L16.3239644,7.1594831 C16.3590365,7.06314369 16.3433552,6.9557957 16.2821587,6.87329825 L15.4167811,5.67878756 C15.3485489,5.58219793 15.3412486,5.45563048 15.3979294,5.35194917 C15.4546103,5.24826786 15.5655211,5.18530943 15.6843375,5.18936998 L17.1768003,5.24328887 C17.2800293,5.24805899 17.3788421,5.20137626 17.4401761,5.11886067 L18.3306372,3.92849759 C18.4013323,3.83175152 18.5216378,3.78373388 18.6401683,3.8049542 C18.7586988,3.82617452 18.8545,3.91288138 18.8866527,4.02804015 Z" id="Shape" fill="#FFB038" fill-rule="nonzero"></path>
                        <path d="M21.583859,6.19772712 L20.1921391,5.7325377 L19.812191,4.33696945 C19.7340551,4.06579299 19.5071347,3.8621739 19.2270179,3.81188507 C18.9469011,3.76159624 18.6622786,3.87337899 18.4930453,4.10014575 L17.6392294,5.26734828 L16.174935,5.21237135 C15.8849724,5.18617821 15.6060652,5.32925164 15.4603252,5.57895092 C15.3145851,5.82865021 15.3285678,6.13947717 15.4961513,6.3753449 L16.3499673,7.56369241 L15.8419468,8.9338867 C15.7440618,9.19743957 15.8070998,9.4932369 16.0041718,9.69510574 C16.1985352,9.90246808 16.4971325,9.97848209 16.7683371,9.8896395 L18.1685953,9.46674003 L19.3255159,10.3590579 C19.4200822,10.4335155 19.5313771,10.4842884 19.6499659,10.5070727 C19.8051104,10.5369804 19.965895,10.5146522 20.1067575,10.4436378 C20.3667565,10.3272609 20.5338008,10.0707733 20.5336654,9.78814363 L20.5336654,8.33336945 L21.7503532,7.52140246 C21.9861388,7.36402481 22.1113121,7.08771206 22.0732615,6.80860157 C22.0352108,6.52949108 21.8405324,6.29596815 21.5710518,6.20618511 L21.583859,6.19772712 Z M20.0213759,7.64404331 C19.8199414,7.78147292 19.6975977,8.00654919 19.6926567,8.24878955 L19.6926567,9.54709093 L18.6638085,8.74781093 C18.567948,8.67365274 18.4549927,8.62424471 18.3350894,8.60402511 C18.2170555,8.58154993 18.0952124,8.58882096 17.9807557,8.62517008 L16.7341845,9.0100086 L17.1824378,7.79628712 C17.2643839,7.56626929 17.2294205,7.31122858 17.0885181,7.11118998 L16.3286219,6.0581703 L17.6349603,6.10468924 C17.8816606,6.11481234 18.1171485,6.00214123 18.262515,5.80443061 L19.0437566,4.76832691 L19.385283,6.02010934 C19.4541125,6.25309128 19.6321382,6.43889291 19.8634199,6.51913072 L21.101453,6.94203019 L20.0213759,7.64404331 Z" id="Shape" fill="#3D3D63" fill-rule="nonzero"></path>
                        <path d="M15.7293364,3.5474698 C15.7855564,3.70473117 15.89173,3.80147284 16.0064688,3.79998304 C16.0592266,3.80039803 16.1112052,3.77996776 16.1576319,3.74056816 C16.2307412,3.6769209 16.284762,3.57019743 16.3077982,3.44389986 C16.3308344,3.31760229 16.3209969,3.18208809 16.280452,3.06719953 L15.9529319,2.13141518 C15.8966762,1.97663576 15.7921729,1.88079873 15.6787872,1.88000497 C15.5654015,1.87921121 15.4603594,1.97358131 15.4032294,2.12756696 C15.3460993,2.28155262 15.3455606,2.47175975 15.4018162,2.62653917 L15.7293364,3.5474698 Z" id="Shape" fill="#3D3D63" fill-rule="nonzero"></path>
                        <path d="M16.7712595,1.87999974 L16.8000216,1.87999974 C17.055685,1.88021311 17.2666072,1.74650977 17.2793902,1.57612867 L17.2793902,1.25626438 C17.2926276,1.07960821 17.088738,0.929239688 16.8239901,0.92040688 C16.5592421,0.911574072 16.3338905,1.04762179 16.3206531,1.22427795 L16.3206531,1.54414224 C16.307027,1.71969558 16.5082654,1.86968772 16.7712595,1.87999974 Z" id="Shape" fill="#3D3D63" fill-rule="nonzero"></path>
                        <path d="M13.6113929,3.56801465 L13.9049463,3.75359906 C13.9546892,3.78436555 14.0103806,3.80031922 14.0669068,3.79999516 C14.2193145,3.79774131 14.3514797,3.67868869 14.3893752,3.50951993 C14.4272707,3.34035117 14.3614858,3.16307646 14.2288672,3.07698923 L13.9488106,2.89140482 C13.7857538,2.78463874 13.5780366,2.849552 13.4848613,3.03639264 C13.3916859,3.22323329 13.4483361,3.46124857 13.6113929,3.56801465 Z" id="Shape" fill="#3D3D63" fill-rule="nonzero"></path>
                        <path d="M6.24,18.2 C5.97490332,18.2 5.76,18.4149033 5.76,18.68 C5.76,18.9450967 5.97490332,19.16 6.24,19.16 C6.50509668,19.16 6.72,18.9450967 6.72,18.68 C6.72,18.5526961 6.66942872,18.4306062 6.57941125,18.3405887 C6.48939379,18.2505713 6.36730392,18.2 6.24,18.2 Z" id="Shape" fill="#3D3D63" fill-rule="nonzero"></path>
                        <path d="M19.1999542,14.5230954 C19.2037394,14.0561978 18.9727572,13.6168042 18.5809772,13.3456259 C18.9573911,12.9220002 19.0435022,12.3238898 18.8011409,11.8164143 C18.5587796,11.3089388 18.0327811,10.9859776 17.4563002,10.9906871 L14.5717867,10.9906871 C14.3295003,10.9918396 14.0914759,11.0526088 13.879989,11.1673075 C13.8126706,11.0334285 13.7886945,10.8829175 13.8112137,10.7355687 C13.9358568,10.116622 13.9699054,9.48371463 13.9123538,8.85554255 C13.7945704,7.54543407 12.6048791,6.57569851 11.2543939,6.68899882 C11.0294756,6.70793744 10.8215764,6.81294916 10.6765984,6.9808485 C10.5316204,7.14874783 10.4614874,7.36572566 10.4816842,7.58387558 L10.5059578,7.84684375 C10.6054861,8.96722949 10.3302734,10.0889113 9.72111119,11.0456357 L8.08264281,13.1258316 C7.92386425,12.6918851 7.50137526,12.4013545 7.02674096,12.3997255 L5.465139,12.3997255 C4.84647181,12.3996908 4.34306867,12.8828232 4.33641634,13.4829974 L4.33641634,13.5811198 L3.28456009,13.5811198 C3.06112772,13.5811198 2.88,13.7568435 2.88,13.9736096 C2.88,14.1903758 3.06112772,14.3660994 3.28456009,14.3660994 L4.33641634,14.3660994 L4.33641634,18.1418514 L3.28456009,18.1418514 C3.06112772,18.1418514 2.88,18.317575 2.88,18.5343412 C2.88,18.7511073 3.06112772,18.926831 3.28456009,18.926831 L4.33641634,18.926831 L4.33641634,19.0249534 C4.33641634,19.629731 4.84176269,20.12 5.465139,20.12 L7.02674096,20.12 C7.52270513,20.1142701 7.95714628,19.7961725 8.09882521,19.3350204 C9.0272826,19.844209 10.0745969,20.1144396 11.1411171,20.12 L17.0841049,20.12 C17.899633,20.12 18.5607492,19.4786086 18.5607492,18.6874122 C18.5619687,18.3649683 18.4491582,18.0518731 18.2411468,17.8003852 C18.6523718,17.5401833 18.9039158,17.0991489 18.9127165,16.6229158 C18.9118811,16.2877542 18.7886067,15.9637313 18.5647948,15.7084146 C18.9634507,15.4377472 19.2006133,14.99516 19.1999542,14.5230954 Z M7.36252584,16.4855444 L7.36252584,18.192875 L7.36252584,19.0092538 C7.36034422,19.1796147 7.21852334,19.3172043 7.04292337,19.3193208 L5.465139,19.3193208 C5.28862743,19.3193208 5.14553653,19.1804991 5.14553653,19.0092538 L5.14553653,13.4829974 C5.14553653,13.3117521 5.28862743,13.1729304 5.465139,13.1729304 L7.02674096,13.1729304 C7.20234094,13.1750469 7.34416182,13.3126365 7.34634344,13.4829974 L7.36252584,16.4855444 Z M14.5879691,11.7756667 L17.4563002,11.7756667 C17.8249636,11.7756667 18.1238243,12.0656108 18.1238243,12.4232749 C18.1238243,12.780939 17.8249636,13.0708831 17.4563002,13.0708831 L14.5717867,13.0708831 C14.2031233,13.0708831 13.9042626,12.780939 13.9042626,12.4232749 C13.9042626,12.0656108 14.2031233,11.7756667 14.5717867,11.7756667 L14.5879691,11.7756667 Z M13.6129793,19.3310955 L11.1411171,19.3310955 C10.1758187,19.3297497 9.22808037,19.0805876 8.39415408,18.6089142 C8.24973734,18.5271723 8.15937769,18.3785897 8.15546362,18.2164244 L8.15546362,14.460297 C8.15469769,14.3351807 8.2057068,14.2149974 8.29705966,14.1266807 L8.33347007,14.0874317 L10.3845897,11.4773745 C11.100941,10.3702188 11.4261535,9.06684748 11.3110324,7.76442089 L11.2867588,7.49752782 C11.2867588,7.47790333 11.2867588,7.45827884 11.3231692,7.45435394 C11.7626759,7.41147565 12.2011477,7.54476444 12.5368494,7.82329436 C12.8738471,8.09325228 13.0839696,8.48397122 13.119416,8.90656622 C13.1707902,9.46258145 13.1408256,10.0228519 13.0304128,10.570723 C12.945387,10.9833076 13.0454286,11.4114991 13.3055136,11.7481924 C13.0542204,12.1592181 13.0404406,12.6672283 13.2691032,13.0905076 C12.5341644,13.1421396 11.9516948,13.7128355 11.9057306,14.4263218 C11.8597663,15.1398081 12.3644583,15.7764243 13.0870512,15.9164342 C12.9628859,16.1321071 12.9000559,16.3759288 12.9049991,16.6229158 C12.9079829,17.1593586 13.22047,17.6489682 13.7141193,17.8906579 C13.544297,18.1296834 13.4526586,18.4128094 13.4511553,18.7031118 C13.4533821,18.9218807 13.5088281,19.1370475 13.6129793,19.3310955 Z M17.0841049,19.3310955 L14.9197084,19.3310955 C14.551045,19.3310955 14.2521843,19.0411514 14.2521843,18.6834873 C14.2521843,18.3258232 14.551045,18.0358791 14.9197084,18.0358791 L17.0841049,18.0358791 C17.4527683,18.0358791 17.751629,18.3258232 17.751629,18.6834873 C17.751629,19.0411514 17.4527683,19.3310955 17.0841049,19.3310955 Z M17.4360722,17.2508995 L14.3816435,17.2508995 C14.0129801,17.2508995 13.7141193,16.9609555 13.7141193,16.6032913 C13.7141193,16.2456272 14.0129801,15.9556832 14.3816435,15.9556832 L17.4360722,15.9556832 C17.8047356,15.9556832 18.1035963,16.2456272 18.1035963,16.6032913 C18.1035963,16.9609555 17.8047356,17.2508995 17.4360722,17.2508995 Z M17.7071274,15.1707035 L13.3864256,15.1707035 C13.0177622,15.1707035 12.7189015,14.8807595 12.7189015,14.5230954 C12.7189015,14.1654312 13.0177622,13.8754872 13.3864256,13.8754872 L17.7071274,13.8754872 C18.0757909,13.8754872 18.3746516,14.1654312 18.3746516,14.5230954 C18.3746516,14.8807595 18.0757909,15.1707035 17.7071274,15.1707035 Z" id="Shape" fill="#3D3D63" fill-rule="nonzero"></path>
                    </g>
                </g>
            </g>
        </g>
    </g>
</svg>