<?xml version="1.0" encoding="UTF-8" standalone="no"?>
<svg width="15px" height="16px" viewBox="0 0 15 16" version="1.1" xmlns="http://www.w3.org/2000/svg" xmlns:xlink="http://www.w3.org/1999/xlink">
    <!-- Generator: Sketch 49.3 (51167) - http://www.bohemiancoding.com/sketch -->
    <title>writing</title>
    <desc>Created with Sketch.</desc>
    <defs></defs>
    <g id="Symbols" stroke="none" stroke-width="1" fill="none" fill-rule="evenodd">
        <g id="Article-" fill="#777777" fill-rule="nonzero">
            <g id="writing">
                <path d="M11,6.5 C11,6.22385 10.708813,6 10.3495935,6 L3.6504065,6 C3.29118699,6 3,6.22385 3,6.5 C3,6.77615 3.29118699,7 3.6504065,7 L10.3495935,7 C10.708813,7 11,6.77615 11,6.5 Z" id="Shape"></path>
                <path d="M3.60565317,9 C3.27115092,9 3,9.22385 3,9.5 C3,9.77615 3.27115092,10 3.60565317,10 L7.39434683,10 C7.72884908,10 8,9.77615 8,9.5 C8,9.22385 7.72884908,9 7.39434683,9 L3.60565317,9 Z" id="Shape"></path>
                <path d="M4.70462861,14.75 L2.56227688,14.75 C1.85585714,14.75 1.28113844,14.18925 1.28113844,13.5 L1.28113844,2.5 C1.28113844,1.81075 1.85585714,1.25 2.56227688,1.25 L10.4377231,1.25 C11.1441429,1.25 11.7188616,1.81075 11.7188616,2.5 L11.7188616,6.34375 C11.7188616,6.6889375 12.0056444,6.96875 12.3594308,6.96875 C12.7132172,6.96875 13,6.6889375 13,6.34375 L13,2.5 C13,1.1215 11.8505626,0 10.4377231,0 L2.56227688,0 C1.14943741,0 0,1.1215 0,2.5 L0,13.5 C0,14.8785 1.14943741,16 2.56227688,16 L4.70462861,16 C5.05841499,16 5.34519783,15.7201875 5.34519783,15.375 C5.34519783,15.0298125 5.05841499,14.75 4.70462861,14.75 Z" id="Shape"></path>
                <path d="M14.4198907,9.51186449 C13.6464501,8.8294709 12.3879974,8.82944173 11.6150528,9.51139778 L7.98480174,12.707219 C7.90770234,12.7750967 7.85083657,12.8586967 7.81916366,12.9506393 L7.02856419,15.247016 C6.95847382,15.4506198 7.0195384,15.6716962 7.18795364,15.8239906 C7.3141163,15.9380729 7.48550708,16 7.66129503,16 C7.72011143,16 7.77948987,15.9930576 7.83777728,15.9787937 L10.5066663,15.3265323 C10.6164965,15.2996963 10.7166067,15.2482703 10.7972768,15.1772131 L14.4199237,11.9870216 C15.1933643,11.304628 15.1933643,10.1943164 14.4198907,9.51186449 Z M9.98608001,14.2430567 L8.64338667,14.5712147 L9.03632251,13.4298375 L11.4858154,11.2734749 L12.4211251,12.0986828 L9.98608001,14.2430567 Z M13.4852753,11.1616387 L13.357162,11.2744375 L12.4220177,10.4493754 L12.5497012,10.3369558 C12.8075147,10.1094912 13.2269989,10.1094912 13.4848125,10.3369558 C13.742626,10.5644203 13.742626,10.9345242 13.4852753,11.1616387 Z" id="Shape"></path>
                <path d="M10.3495935,4 L3.6504065,4 C3.29118699,4 3,4.22385 3,4.5 C3,4.77615 3.29118699,5 3.6504065,5 L10.3495935,5 C10.708813,5 11,4.77615 11,4.5 C11,4.22385 10.708813,4 10.3495935,4 Z" id="Shape"></path>
            </g>
        </g>
    </g>
</svg>